<svg xmlns="http://www.w3.org/2000/svg" viewBox="0 0 120 100"><defs><style>.cls-1{fill:#eaeaea;}.cls-2{fill:#fff;}.cls-3{fill:#f50;}.cls-4{fill:#ffcb27;}.cls-5{fill:#00e391;}.cls-6{fill:none;stroke:#bfbfbf;stroke-miterlimit:10;}.cls-7{fill:#bfbfbf;}.cls-8{fill:#b2b2b2;}.cls-9{fill:#4b96ff;}</style></defs><title>news_3</title><g id="Layer_2" data-name="Layer 2"><g id="Layer_1-2" data-name="Layer 1"><rect class="cls-1" width="120" height="100"/><rect class="cls-2" y="0.72" width="120" height="13.38"/><circle class="cls-3" cx="6.13" cy="6.91" r="1.98"/><circle class="cls-4" cx="11.77" cy="6.91" r="1.98"/><circle class="cls-5" cx="17.41" cy="6.91" r="1.98"/><rect class="cls-2" x="10.92" y="22.47" width="98.84" height="68.04"/><rect class="cls-6" x="22.12" y="34.44" width="34.7" height="11.05"/><rect class="cls-7" x="25.18" y="38.93" width="16.17" height="2.05"/><rect class="cls-8" x="21.78" y="27.93" width="13.17" height="3.05"/><rect class="cls-6" x="22.12" y="55.91" width="76" height="11.05"/><rect class="cls-7" x="25.18" y="60.4" width="16.17" height="2.05"/><rect class="cls-8" x="21.78" y="49.4" width="13.17" height="3.05"/><rect class="cls-6" x="63.71" y="34.44" width="34.7" height="11.05"/><rect class="cls-7" x="66.77" y="38.93" width="16.17" height="2.05"/><rect class="cls-8" x="63.37" y="27.93" width="13.17" height="3.05"/><rect class="cls-9" x="22.12" y="71.91" width="25" height="11.05"/><rect class="cls-2" x="27.38" y="76.4" width="13.97" height="2.05"/></g></g></svg>