<svg xmlns="http://www.w3.org/2000/svg" viewBox="0 0 77.76 68.39"><title>Cancel Sequence Emails</title><g id="Layer_2" data-name="Layer 2"><g id="Layer_1-2" data-name="Layer 1"><path d="M67.85,20.71H42.74c0,.16,0,.33,0,.5a20.92,20.92,0,0,1-.12,2.25H66.48L37.87,44.92a3.85,3.85,0,0,1-4.22,0l-4.93-3.7a21.28,21.28,0,0,1-3.38.9l6.66,5a6.58,6.58,0,0,0,7.52,0L68.77,25.18V63.67L53.33,44.6a1.37,1.37,0,0,0-2.13,1.73L66.78,65.59l.06,0H4.69l0,0L20.32,46.33a1.37,1.37,0,1,0-2.13-1.73L2.75,63.67V31.32A21.23,21.23,0,0,1,.28,23,3.61,3.61,0,0,0,0,24.38V64.72a3.68,3.68,0,0,0,3.67,3.67H67.85a3.68,3.68,0,0,0,3.67-3.67V24.38A3.68,3.68,0,0,0,67.85,20.71Z"/><path d="M74.09,7.09H37.39a22.22,22.22,0,0,1,2.07,2.75H72.72L62.36,17.61H67l8.06-6V50.05l-5-6.16v4.38L73,52l0,.05H70v2.75h4.06a3.68,3.68,0,0,0,3.67-3.66V10.76A3.68,3.68,0,0,0,74.09,7.09Z"/><path d="M21.46,0A21.28,21.28,0,1,0,42.73,21.28,21.28,21.28,0,0,0,21.46,0Zm9.22,30.65a1.58,1.58,0,0,1-1.15.47,1.61,1.61,0,0,1-1.15-.47l-6.92-6.93-6.93,6.93a1.67,1.67,0,0,1-2.3,0,1.64,1.64,0,0,1,0-2.3l6.93-6.93L12.23,14.5a1.64,1.64,0,0,1,0-2.3,1.62,1.62,0,0,1,2.3,0l6.93,6.92,6.92-6.92a1.63,1.63,0,1,1,2.3,2.3l-6.92,6.92,6.92,6.93a1.6,1.6,0,0,1,.48,1.15A1.62,1.62,0,0,1,30.68,30.65Z"/></g></g></svg>