<?xml version="1.0" encoding="utf-8"?>
<!-- Generator: Adobe Illustrator 25.2.1, SVG Export Plug-In . SVG Version: 6.00 Build 0)  -->
<svg version="1.1" id="Layer_1" xmlns="http://www.w3.org/2000/svg" xmlns:xlink="http://www.w3.org/1999/xlink" x="0px" y="0px"
	 viewBox="0 0 80 80" style="enable-background:new 0 0 80 80;" xml:space="preserve">
<g>
	<g>
		<g>
			<g>
				<path d="M34,2.4c-10.9,0-19.8,8.9-19.8,19.8S23.1,42.1,34,42.1s19.8-8.9,19.8-19.8S45,2.4,34,2.4z"/>
			</g>
		</g>
		<g>
			<g>
				<path d="M51.4,77.6H3.2c-1.2,0-2.2-1-2.2-2.2C1,67.7,4,60.5,9.4,55c5.4-5.5,12.6-8.5,20.3-8.5h8.8c0.9,0,1.9,0,2.8,0.1
					c-1.9,3.2-2.9,7-2.9,10.9C38.3,66.5,43.7,74.2,51.4,77.6z"/>
			</g>
		</g>
	</g>
	<g>
		<g>
			<path d="M60.2,38.7c-6.5,0-12.3,3.3-15.7,8.4c-2,3-3.1,6.6-3.1,10.4c0,10.4,8.4,18.8,18.8,18.8c2.4,0,4.7-0.5,6.9-1.3
				C74,72.3,79,65.5,79,57.5C79,47.2,70.6,38.7,60.2,38.7z M73.5,60.9c-0.8,3.1-2.3,5.7-4.7,7.6c-2.4,2-5.2,2.9-8.4,2.9
				c-1.7,0-3.4-0.3-5-1c-1.6-0.6-3-1.6-4.3-2.8L48.8,70c-0.2,0.2-0.5,0.3-0.8,0.3c-0.3,0-0.6-0.1-0.8-0.3c-0.2-0.2-0.3-0.5-0.3-0.8
				v-7.9c0-0.3,0.1-0.6,0.3-0.8c0.2-0.2,0.5-0.3,0.8-0.3h7.9c0.3,0,0.6,0.1,0.8,0.3S57,61,57,61.3c0,0.3-0.1,0.6-0.3,0.8l-2.4,2.4
				c0.8,0.8,1.8,1.4,2.8,1.8c1.1,0.4,2.2,0.6,3.3,0.6c1.6,0,3-0.4,4.4-1.1c1.4-0.8,2.5-1.8,3.3-3.1c0.1-0.2,0.4-0.9,0.9-2.1
				c0.1-0.3,0.3-0.4,0.5-0.4h3.4c0.1,0,0.3,0.1,0.4,0.2c0.1,0.1,0.2,0.2,0.2,0.4C73.5,60.8,73.5,60.9,73.5,60.9z M73.9,54.6
				c0,0.3-0.1,0.6-0.3,0.8c-0.2,0.2-0.5,0.3-0.8,0.3h-7.9c-0.3,0-0.6-0.1-0.8-0.3c-0.2-0.2-0.3-0.5-0.3-0.8s0.1-0.6,0.3-0.8l2.4-2.4
				c-1.7-1.6-3.8-2.4-6.1-2.4c-1.6,0-3,0.4-4.4,1.1c-1.4,0.8-2.5,1.8-3.3,3.1c-0.1,0.2-0.4,0.9-0.9,2.1c-0.1,0.3-0.3,0.4-0.5,0.4
				h-3.5c-0.1,0-0.3-0.1-0.4-0.2c-0.1-0.1-0.2-0.2-0.2-0.4V55c0.8-3.1,2.3-5.7,4.7-7.6c2.4-2,5.2-2.9,8.4-2.9c1.7,0,3.4,0.3,5,1
				c1.6,0.7,3.1,1.6,4.3,2.8l2.3-2.3c0.2-0.2,0.5-0.3,0.8-0.3c0.3,0,0.6,0.1,0.8,0.3c0.2,0.2,0.3,0.5,0.3,0.8V54.6z"/>
		</g>
	</g>
</g>
</svg>
