<svg id="Layer_1" data-name="Layer 1" xmlns="http://www.w3.org/2000/svg" width="80" height="80" viewBox="0 0 80 80">
  <g>
    <path d="M71.74,15.68a21.36,21.36,0,0,0-29.93-.28H5a3,3,0,0,0-3,3V61.46a3,3,0,0,0,3,3H45.79a16,16,0,0,1-2.2-16.71,7.62,7.62,0,0,1,.44-.91,18.54,18.54,0,0,1-1.82-1.61c-.45-.45-.89-.94-1.3-1.43a20.41,20.41,0,0,1,1.3-27.39c.35-.34.7-.66,1.06-1A20.38,20.38,0,0,1,71.38,44.84a9.64,9.64,0,0,1,.58.84,21.37,21.37,0,0,0-.22-30ZM19.45,50.55a6.64,6.64,0,0,1-6.64,6.64.7.7,0,0,1-.69-.69V45.29a3.67,3.67,0,0,1,7.33,0Zm10.76,0a6.64,6.64,0,0,1-6.64,6.64.71.71,0,0,1-.7-.69V35.38a3.67,3.67,0,0,1,3.67-3.67,3.72,3.72,0,0,1,3.67,3.62Zm5-19.76a21.32,21.32,0,0,0,5.66,14.49V50.5a6.64,6.64,0,0,1-6.64,6.65.71.71,0,0,1-.69-.7V26.36a3.66,3.66,0,0,1,3.26-3.65A21.13,21.13,0,0,0,35.25,30.79Z"/>
    <path d="M64.14,39.25a16.39,16.39,0,0,1,5,3.08.52.52,0,0,0,.06-.13l2.63-6.11a5.84,5.84,0,0,0-5.06-8.76H65a5.8,5.8,0,0,0-1.73.27,8.61,8.61,0,0,1,1.54,1.93,8.12,8.12,0,0,1,0,8.13Z"/>
    <path d="M40.91,31.41a5.74,5.74,0,0,0,0,3.55,6.66,6.66,0,0,0,.51,1.13L44,42.2a3.56,3.56,0,0,0,1.8,1.86,16.21,16.21,0,0,1,3.88-3.41l-1.29-3a8.09,8.09,0,0,1,0-8.13A8.61,8.61,0,0,1,50,27.6a5.81,5.81,0,0,0-1.74-.27H46.48A5.82,5.82,0,0,0,40.91,31.41Z"/>
    <path d="M51.27,28.16a1.37,1.37,0,0,0-.22.19l0,0a4.68,4.68,0,0,0-.46.43l-.22.24A7.26,7.26,0,0,0,49,31.33a6.25,6.25,0,0,0-.21.74,5.69,5.69,0,0,0-.17,1.17c0,.14,0,.26,0,.39a6.78,6.78,0,0,0,1,3.47L50.81,40a1.19,1.19,0,0,1,.22-.12,15.91,15.91,0,0,1,11.91-1.07l.75-1.74a6.86,6.86,0,0,0,.94-3.46c0-.13,0-.26,0-.4a2.55,2.55,0,0,0,0-.39c0-.12,0-.24-.06-.37s0-.27-.08-.41a2.46,2.46,0,0,1-.07-.29,6.69,6.69,0,0,0-.71-1.65,2.29,2.29,0,0,0-.18-.29,5.08,5.08,0,0,0-.38-.53L62.83,29l-.27-.27a5.78,5.78,0,0,0-.59-.52,5.41,5.41,0,0,0-.72-.5,3,3,0,0,0-.39-.22l-.39-.19-.52-.2-.29-.1-.18,0c-.26-.07-.53-.12-.8-.17h0l-.44,0H55l-.43,0h0a7.27,7.27,0,0,0-.81.17,6.34,6.34,0,0,0-1.3.49l-.3.16-.29.17A6.42,6.42,0,0,0,51.27,28.16Z"/>
    <path d="M54.78,25.47a4,4,0,0,0,3.68,0,5.78,5.78,0,0,0,2.84-5.19c0-3.12-2.09-5.65-4.68-5.65S52,17.16,52,20.28A5.79,5.79,0,0,0,54.78,25.47Z"/>
    <path d="M50.73,19.49a3.84,3.84,0,0,0-3.37-2.29c-2.16,0-3.92,2.12-3.92,4.74s1.76,4.75,3.92,4.75a4,4,0,0,0,3.67-3,4.21,4.21,0,0,0,.16-.61,5.1,5.1,0,0,0,.11-1.11,5.5,5.5,0,0,0-.27-1.7A5.1,5.1,0,0,0,50.73,19.49Z"/>
    <path d="M65.88,17.2a3.83,3.83,0,0,0-3.36,2.29A5.46,5.46,0,0,0,62,21.94a5.1,5.1,0,0,0,.11,1.11,4.16,4.16,0,0,0,3.82,3.64c2.17,0,3.93-2.12,3.93-4.75S68.05,17.2,65.88,17.2Z"/>
    <path d="M71.11,52.56c0-.29-.08-.56-.14-.85a.15.15,0,0,0,0-.09,1.22,1.22,0,0,0-.06-.26h0a.25.25,0,0,1,0-.08c0-.13-.06-.25-.1-.38s-.16-.53-.25-.79-.19-.53-.29-.78-.22-.51-.34-.75l-.39-.73c-.08-.14-.17-.29-.26-.42A3,3,0,0,0,69,47c-.11-.17-.22-.32-.35-.49s-.24-.31-.38-.47a9.59,9.59,0,0,0-.8-.89,9.94,9.94,0,0,0-.9-.82l0,0a13.27,13.27,0,0,0-3.65-2.12l-.6-.21-.61-.17-.34-.08-.41-.1h-.08a4.86,4.86,0,0,0-.55-.1l-.16,0a.93.93,0,0,0-.24,0l-.54-.06-.39,0H57.69a2.69,2.69,0,0,0-.4,0,3.59,3.59,0,0,0-.44,0,3.81,3.81,0,0,0-.47.07h-.1l-.57.1c-.29.06-.58.13-.86.21l-.58.17c-.23.08-.46.15-.69.25l-.42.18a4.43,4.43,0,0,0-.45.2c-.18.08-.37.18-.56.28l-.08,0-.13.08-.33.2c-.19.11-.39.24-.58.37a13.32,13.32,0,0,0-2,1.64l-.06.08a4.15,4.15,0,0,0-.45.49l-.27.31-.25.33a14.81,14.81,0,0,0-.84,1.23L47,48l-.31.6a.6.6,0,0,0-.08.16c-.08.16-.16.33-.23.5s-.06.17-.1.26a0,0,0,0,0,0,0c-.08.18-.14.35-.2.53a10.14,10.14,0,0,0-.3,1c0,.19-.09.38-.13.58,0,0,0,0,0,.08,0,.2-.07.4-.1.6s-.06.38-.08.57,0,.13,0,.2a4.58,4.58,0,0,0,0,.53c0,.22,0,.44,0,.67a11.52,11.52,0,0,0,.15,2c0,.17.05.33.08.51s.12.55.19.81l.12.43a3.38,3.38,0,0,0,.16.48,3.26,3.26,0,0,0,.17.47c.07.17.13.34.21.51s.09.22.15.33a5,5,0,0,0,.26.52c.09.18.2.36.3.53l.17.29c.06.09.13.19.18.28s.13.18.19.28.14.18.19.26l.42.54.44.51.45.46c.16.16.33.32.49.46s.38.33.58.48l0,0,0,0c.18.14.36.28.55.4s.26.19.4.27l.54.34a.61.61,0,0,0,.14.07,6.45,6.45,0,0,0,.58.31c.2.1.4.2.61.28a12.3,12.3,0,0,0,1.91.66l.62.14a4.5,4.5,0,0,0,.64.11l.47.07h.12c.24,0,.47,0,.71.06l.67,0c.28,0,.57,0,.84,0l.27,0a7.42,7.42,0,0,0,.79-.1l.12,0a4.51,4.51,0,0,0,.53-.09l.18,0,.36-.08.16,0c.2,0,.4-.11.59-.16.4-.13.79-.27,1.18-.44a13.15,13.15,0,0,0,4.11-2.76,12.09,12.09,0,0,0,.83-.92h0c.13-.15.26-.31.38-.47h0a5.74,5.74,0,0,0,.36-.5l.5-.79h0a9.33,9.33,0,0,0,.43-.83,12.65,12.65,0,0,0,1.29-5.59,8.51,8.51,0,0,0,0-.88C71.18,53.13,71.15,52.84,71.11,52.56ZM62.75,64A2.84,2.84,0,0,1,62,58.41c0-2.65-2.13-3.43-4-4.13-.4-.16-.78-.3-1.11-.46a13,13,0,0,1-1.8-.94V58.6a2.86,2.86,0,1,1-2.37,0V50A2.8,2.8,0,0,1,51,47.38a2.84,2.84,0,0,1,1.83-2.65,2.69,2.69,0,0,1,1-.2A2.84,2.84,0,0,1,56.69,47a2,2,0,0,1,0,.43A2.81,2.81,0,0,1,55.08,50a9.48,9.48,0,0,0,1.76,1.2h0a9,9,0,0,0,1,.5c.28.13.6.25,1,.38h0c2,.73,5.75,2.16,5.55,6.77A2.85,2.85,0,0,1,62.75,64Z"/>
    <path d="M62.75,59.75a1.41,1.41,0,0,0,0,2.82,1.41,1.41,0,1,0,0-2.82Z"/>
    <path d="M55.19,46.7a1.43,1.43,0,0,0-1.31-.88.41.41,0,0,0-.16,0,1.39,1.39,0,1,0,1.47.86Z"/>
    <path d="M53.88,59.78a1.41,1.41,0,1,0,1.41,1.41A1.41,1.41,0,0,0,53.88,59.78Z"/>
  </g>
</svg>
