<svg id="Layer_1" data-name="Layer 1" xmlns="http://www.w3.org/2000/svg" width="80" height="80" viewBox="0 0 80 80">
  <g>
    <path d="M73.75,43.53A21.31,21.31,0,1,0,80,58.6,21.22,21.22,0,0,0,73.75,43.53ZM70.54,67.05a2.89,2.89,0,0,1-2.12,4.89A2.87,2.87,0,0,1,66.29,71l-7.61-8.16L51.06,71a2.92,2.92,0,0,1-4.1.15,2.91,2.91,0,0,1-.14-4.12L54.7,58.6l-7.88-8.44a2.91,2.91,0,0,1,4.24-4l7.62,8.16,7.61-8.16a2.91,2.91,0,0,1,4.25,4L62.66,58.6Z"/>
    <g>
      <rect y="0.07" width="11.32" height="11.32" rx="5.66"/>
      <rect y="24.28" width="11.32" height="11.32" rx="5.66"/>
      <rect y="48.49" width="11.32" height="11.32" rx="5.66"/>
    </g>
    <g>
      <path d="M61.57,29.94a4.87,4.87,0,0,1-.41,2h0c-.84-.08-1.7-.12-2.57-.12a26.46,26.46,0,0,0-12.23,3h-22a4.81,4.81,0,0,1-3.4-8.2,4.86,4.86,0,0,1,3.4-1.4H56.78A4.79,4.79,0,0,1,61.57,29.94Z"/>
      <rect x="19.51" y="1.01" width="42.06" height="9.59" rx="4.79"/>
      <path d="M31.82,58.52a2.06,2.06,0,0,0,0,.35H24.31a4.8,4.8,0,0,1-3.4-8.19,4.86,4.86,0,0,1,3.4-1.4h9.15A27,27,0,0,0,31.82,58.52Z"/>
    </g>
  </g>
</svg>
