<svg id="Layer_1" data-name="Layer 1" xmlns="http://www.w3.org/2000/svg" width="80" height="80" viewBox="0 0 80 80">
  <g>
    <path d="M67.5,38.07a13.29,13.29,0,0,0-22.77-9.33,13.28,13.28,0,0,0-18.93,0,13.23,13.23,0,0,0-9.07-3.94h-.4A3.83,3.83,0,0,0,12.5,28.6h0a3.84,3.84,0,0,0,3.83,3.84A5.64,5.64,0,0,1,22,38V51.4a3.83,3.83,0,0,0,3.84,3.83l.45,0,.13,0,.3,0,.16,0L27.1,55l.15,0,.28-.13.1,0,.08-.05a2.68,2.68,0,0,0,.28-.18l.16-.11.19-.17.15-.13a3.58,3.58,0,0,0,.26-.29l.13-.17a1.27,1.27,0,0,0,.13-.19l.12-.2a1.62,1.62,0,0,0,.1-.18c.06-.12.11-.24.16-.37s.05-.13.07-.2a2.33,2.33,0,0,0,.07-.25l0-.19a2.34,2.34,0,0,0,0-.26c0-.06,0-.12,0-.18s0-.16,0-.25V38a5.64,5.64,0,0,1,11.27,0h0V51.4h0a3.82,3.82,0,0,0,3.83,3.83,3.88,3.88,0,0,0,1.14-.17,3.84,3.84,0,0,0,2.7-3.66V38.07h0a5.63,5.63,0,1,1,11.26,0V51.4a3.84,3.84,0,0,0,2.84,3.7,4.09,4.09,0,0,0,1,.13A3.83,3.83,0,0,0,67.5,51.4h0Z"/>
    <path d="M72,4a4,4,0,0,1,4,4V72a4,4,0,0,1-4,4H8a4,4,0,0,1-4-4V8A4,4,0,0,1,8,4H72m0-4H8A8,8,0,0,0,0,8V72a8,8,0,0,0,8,8H72a8,8,0,0,0,8-8V8a8,8,0,0,0-8-8Z"/>
  </g>
</svg>
