<svg id="Layer_1" data-name="Layer 1" xmlns="http://www.w3.org/2000/svg" width="80" height="80" viewBox="0 0 80 80">
  <defs>
    <style>
      .cls-1 {
        fill-rule: evenodd;
      }
    </style>
  </defs>
  <path class="cls-1" d="M20.2,67.51H67.5V20.19H20.2V67.51Zm42.48-4.83H46.44L42.1,48.26a8.26,8.26,0,0,0-3.91-15.53h0v30H25V24.94H48.27A14.42,14.42,0,0,1,56,51.5l6.65,11.18ZM59.8,16.36H16.37V59.81H12.5V12.49H59.8v3.87Z"/>
  <path d="M72,4a4,4,0,0,1,4,4V72a4,4,0,0,1-4,4H8a4,4,0,0,1-4-4V8A4,4,0,0,1,8,4H72m0-4H8A8,8,0,0,0,0,8V72a8,8,0,0,0,8,8H72a8,8,0,0,0,8-8V8a8,8,0,0,0-8-8Z"/>
</svg>
