<svg id="Layer_1" data-name="Layer 1" xmlns="http://www.w3.org/2000/svg" width="80" height="80" viewBox="0 0 80 80">
  <g>
    <path d="M70.1,2H9.9A7.91,7.91,0,0,0,2,9.91V70.1A7.9,7.9,0,0,0,9.9,78H47.38a21.59,21.59,0,0,1-3.79-3.61H9.9A4.3,4.3,0,0,1,5.61,70.1V9.91A4.3,4.3,0,0,1,9.9,5.61H70.1a4.3,4.3,0,0,1,4.29,4.3V43.59A21.65,21.65,0,0,1,78,47.39V9.91A7.91,7.91,0,0,0,70.1,2Z"/>
    <path d="M27.23,38.77v6.28A2.86,2.86,0,0,0,30,47.8h.13a2.7,2.7,0,0,0,2.62-2.75V38.77a2.75,2.75,0,0,0-5.5,0Z"/>
    <path d="M47,38.78v4.43a21.46,21.46,0,0,1,5.49-3.13v-1.3a2.75,2.75,0,1,0-5.49,0Z"/>
    <path d="M40.17,52.27h.07a2.56,2.56,0,0,0,2.2-2.2V37.21a7,7,0,0,1,6.77-7.16,6.33,6.33,0,0,1,5.89,3.72,17,17,0,0,1,1.66,5.13,20.53,20.53,0,0,1,3.7-.32c.26,0,.51,0,.76,0A21.55,21.55,0,0,0,50.49,23.08V17.2h4.13a2.85,2.85,0,1,0,0-5.7H25.47a3,3,0,0,0-2.85,2.95,2.86,2.86,0,0,0,2.85,2.85h4.21v5.79a21.45,21.45,0,0,0-8.52,29.1c.24.44.51.88.77,1.3,3.73,6.31,10.42,10,17.26,12.12a21.34,21.34,0,0,1-.62-5.14c0-.63,0-1.26.09-1.86A17.12,17.12,0,0,1,24.49,34.07a6.92,6.92,0,0,1,6.08-4,7,7,0,0,1,6.77,7.16V50.06A2.57,2.57,0,0,0,40.17,52.27ZM35.24,20.82l0-3.62h9.61v3.72a20.72,20.72,0,0,0-4.9-.59A25.27,25.27,0,0,0,35.24,20.82Z"/>
    <path d="M77.45,56.09a16.63,16.63,0,0,0-1.18-3.21,15.92,15.92,0,0,0-.86-1.58q-.48-.77-1-1.47h0c-.25-.31-.48-.6-.74-.9h0c-.26-.28-.51-.56-.79-.83A17.49,17.49,0,0,0,61.4,43l-.93,0a17.11,17.11,0,0,0-3.6.37,17.51,17.51,0,0,0-4.36,1.54,17.28,17.28,0,0,0-3.84,2.65.21.21,0,0,0,0,.06h0l-.54.52a18.13,18.13,0,0,0-1.43,1.6q-.43.57-.84,1.17c-.26.4-.5.81-.74,1.23-.11.21-.23.43-.33.64-.22.44-.41.88-.59,1.33-.09.23-.18.46-.26.69a17.49,17.49,0,0,0-.58,2.13q-.15.72-.24,1.47h0a16.47,16.47,0,0,0-.13,2.13A13.54,13.54,0,0,0,43,62c0,.53.12,1,.21,1.54.06.34.13.68.21,1a19.41,19.41,0,0,0,.73,2.31h0c.22.56.47,1.11.74,1.65s.59,1.06.91,1.55c.17.26.35.5.52.74.36.49.74.94,1.13,1.38.2.22.41.44.62.64A12.14,12.14,0,0,0,49.32,74l.49.4h0A17.36,17.36,0,0,0,60.46,78h0a17.35,17.35,0,0,0,10.87-3.79s0,0,0,0h0l.25-.21a14.4,14.4,0,0,0,1.24-1.13,14.78,14.78,0,0,0,1.34-1.49h0s0,0,0,0c.2-.25.4-.51.58-.77a14.57,14.57,0,0,0,1-1.64c.17-.28.31-.57.45-.86a17,17,0,0,0,1.18-3.22c.14-.56.26-1.13.35-1.71a17.92,17.92,0,0,0,0-5.34C77.71,57.22,77.59,56.65,77.45,56.09Zm-11,17.57a3.86,3.86,0,0,1-1-7.59c0-3-2-4.22-4.09-5.09-.45-.19-.91-.35-1.35-.52a15.36,15.36,0,0,1-1.52-.62,16.91,16.91,0,0,1-2.45-1.28v7.77a3.87,3.87,0,1,1-5.48,3.51A3.77,3.77,0,0,1,51,68h0a3.83,3.83,0,0,1,1.79-1.68V54.61a4.09,4.09,0,0,1-1.1-.76,3.83,3.83,0,0,1-1.16-2.75,3.88,3.88,0,0,1,3.87-3.87,3.76,3.76,0,0,1,1.43.28,3.86,3.86,0,0,1,.19,7.1,16,16,0,0,0,3.77,2.3c.37.17.8.35,1.3.53l.24.08c2.73,1,7.6,3,7.33,9.1a3.9,3.9,0,0,1,1.64,3.18A3.85,3.85,0,0,1,66.5,73.66Z"/>
    <path d="M66.5,67.89a1.91,1.91,0,1,0,1.91,1.91A1.91,1.91,0,0,0,66.5,67.89Z"/>
    <path d="M55.18,49.14a1.8,1.8,0,0,0-.73-.15,1.94,1.94,0,1,0,.73.15Z"/>
    <path d="M55.7,68.4a1.92,1.92,0,0,0-1.25-.48,1.84,1.84,0,0,0-1.05.33,1.91,1.91,0,1,0,3,1.59,1.94,1.94,0,0,0-.66-1.44Z"/>
  </g>
</svg>
