<svg id="Layer_1" data-name="Layer 1" xmlns="http://www.w3.org/2000/svg" width="80" height="80" viewBox="0 0 80 80">
  <g>
    <path d="M42.77.22A17.43,17.43,0,0,0,23.34,22.48a16.92,16.92,0,0,0,6.1,8.71l.13.1-.07.16L17.34,56.29h-.16A6.2,6.2,0,0,0,11.61,60,6.34,6.34,0,1,0,23,59.7a5.44,5.44,0,0,0-.53-.84l-.08-.1,14-28.55A3.45,3.45,0,0,0,35,25.74,9.52,9.52,0,0,1,32.84,24a9.75,9.75,0,1,1,16.91-6.6c0,.18,0,.35,0,.52a3.8,3.8,0,0,0,3.19,4h0a3.82,3.82,0,0,0,4.43-3.6A17.38,17.38,0,0,0,42.77.22Z"/>
    <path d="M78.79,69a17.39,17.39,0,0,0-8.06-21.78c-.31-.17-.63-.32-.94-.47a19.7,19.7,0,0,0-2-.75,14.15,14.15,0,0,0-2-.51L65,45.4c-.5-.07-1-.12-1.57-.15a17.74,17.74,0,0,0-3.82.25l-.1.09-.07-.06-1,.22-.17,0-.51.15-.17,0L45.3,20.84l.06-.1a6.36,6.36,0,0,0,.6-5.51,6.18,6.18,0,0,0-4.19-3.93,6.33,6.33,0,1,0-2.08,12.4h.75L54.32,52.06a3.45,3.45,0,0,0,4.51,1.57A9.86,9.86,0,0,1,61.29,53l.24,0v0a8.22,8.22,0,0,1,.92-.07c.34,0,.66,0,1,0s.41,0,.61.07a9.84,9.84,0,0,1,1.64.41l.14,0a9.77,9.77,0,0,1,6,12.54,9.65,9.65,0,0,1-7,6.17,9.92,9.92,0,0,1-6-.52,3.54,3.54,0,0,0-4.59,1.59l-.12.25a3.83,3.83,0,0,0,1.94,5.28A17.43,17.43,0,0,0,78.79,69Z"/>
    <path d="M0,62.62a17.45,17.45,0,0,0,23,16.5A17.21,17.21,0,0,0,34.53,65.5v-.06H57l.06.11a6.1,6.1,0,0,0,3.33,3A6.33,6.33,0,1,0,62.76,56.3h-.14a6.27,6.27,0,0,0-5.1,2.58,6.7,6.7,0,0,0-.52.84l-.06.11H29.78a2.68,2.68,0,0,0-2.64,2.77v0a9.4,9.4,0,0,1-.51,3.09A9.75,9.75,0,1,1,10.88,55.36a3.74,3.74,0,0,0,.55-5.07l-.06-.08a3.83,3.83,0,0,0-5.59-.54A17.33,17.33,0,0,0,0,62.62Z"/>
  </g>
</svg>
