<svg id="Layer_1" data-name="Layer 1" xmlns="http://www.w3.org/2000/svg" width="80" height="80" viewBox="0 0 80 80">
  <g>
    <path d="M71.74,11.91a21.38,21.38,0,0,0-30.23,0,21.87,21.87,0,0,0-1.63,1.84H3.79A1.79,1.79,0,0,0,2,15.54V34.61c7.24,5.06,14.12,15.6,14.12,15.6a83,83,0,0,1,20.05-17l.89-.53a20.43,20.43,0,0,1,4.1-19q.5-.59,1.05-1.14A20.38,20.38,0,0,1,71.38,41.08a9.49,9.49,0,0,1,.58.83,21.37,21.37,0,0,0-.22-30Z"/>
    <path d="M64.14,35.48a16,16,0,0,1,5,3.09.84.84,0,0,0,.06-.14l2.63-6.1a5.84,5.84,0,0,0-5.06-8.76H65a5.79,5.79,0,0,0-1.73.26,8.61,8.61,0,0,1,1.54,1.93,8.12,8.12,0,0,1,0,8.13Z"/>
    <path d="M41.42,32.33,44,38.43a3.56,3.56,0,0,0,1.81,1.87,15.56,15.56,0,0,1,3.87-3.41l-1.29-3a8.09,8.09,0,0,1,0-8.13A8.61,8.61,0,0,1,50,23.83a5.81,5.81,0,0,0-1.74-.26H46.48A5.84,5.84,0,0,0,41.42,32.33Z"/>
    <path d="M51.27,24.39l-.22.18-.48.46c-.07.09-.15.16-.22.25A7.1,7.1,0,0,0,49,27.56a7.36,7.36,0,0,0-.38,1.92c0,.13,0,.25,0,.39a6.77,6.77,0,0,0,1,3.46l1.25,2.92a16,16,0,0,1,7.51-1.86,16.4,16.4,0,0,1,4.63.67l.74-1.73a6.85,6.85,0,0,0,.94-3.45c0-.14,0-.27,0-.4a2.42,2.42,0,0,0,0-.39c0-.13,0-.25-.06-.37s0-.28-.08-.41a2.64,2.64,0,0,1-.07-.3,6.69,6.69,0,0,0-.71-1.65,2.2,2.2,0,0,0-.18-.28h0c-.12-.18-.24-.36-.38-.54s-.19-.22-.28-.34-.17-.18-.27-.26A5.88,5.88,0,0,0,62,24.4a5.41,5.41,0,0,0-.72-.5c-.12-.08-.26-.15-.39-.22l-.39-.19-.52-.2-.29-.09-.18-.05c-.26-.07-.53-.11-.8-.16h0l-.44,0H55l-.43,0h0a7.25,7.25,0,0,0-.81.16,6.34,6.34,0,0,0-1.3.49l-.3.16c-.09.06-.2.11-.29.18A4.89,4.89,0,0,0,51.27,24.39Z"/>
    <path d="M54.79,21.7a4,4,0,0,0,1.83.45,4,4,0,0,0,1.84-.45,5.77,5.77,0,0,0,2.84-5.2c0-3.11-2.09-5.63-4.68-5.63S52,13.39,52,16.5A5.77,5.77,0,0,0,54.79,21.7Z"/>
    <path d="M47.36,13.43c-2.17,0-3.92,2.12-3.92,4.74s1.75,4.75,3.92,4.75a4.16,4.16,0,0,0,3.83-3.64,5.8,5.8,0,0,0,.11-1.11,5.46,5.46,0,0,0-.57-2.45A3.85,3.85,0,0,0,47.36,13.43Z"/>
    <path d="M65.88,13.43a3.83,3.83,0,0,0-3.36,2.29A5.46,5.46,0,0,0,62,18.17a5.8,5.8,0,0,0,.1,1.11,4.17,4.17,0,0,0,3.83,3.64c2.17,0,3.93-2.12,3.93-4.75S68.05,13.43,65.88,13.43Z"/>
    <path d="M42.18,50.52A16,16,0,0,1,43.58,44c.13-.31.29-.61.45-.92a18.43,18.43,0,0,1-1.82-1.6,23.17,23.17,0,0,1-1.84-2.11l-.9.44A77.46,77.46,0,0,0,15.84,58C7.46,44.74,2,40.23,2,40.23V64a1.78,1.78,0,0,0,1.79,1.78H52.28a1.43,1.43,0,0,0,.62-.12A16.14,16.14,0,0,1,42.18,50.52Z"/>
    <path d="M58.32,37.6A12.92,12.92,0,1,0,71.24,50.52,12.91,12.91,0,0,0,58.32,37.6Zm4.43,22.64a2.85,2.85,0,0,1-.75-5.6c0-2.65-2.13-3.44-4-4.13-.4-.15-.79-.3-1.11-.46a13,13,0,0,1-1.8-.94v5.72a2.86,2.86,0,1,1-2.37,0V46.2a2.84,2.84,0,1,1,2.38,0,12.29,12.29,0,0,0,2.77,1.7l1,.38c2,.73,5.78,2.14,5.58,6.77a2.86,2.86,0,0,1-1.64,5.19Z"/>
    <path d="M62.75,56a1.41,1.41,0,1,0,1.42,1.41A1.42,1.42,0,0,0,62.75,56Z"/>
    <path d="M53.88,42.05a1.42,1.42,0,1,0,1.41,1.41A1.41,1.41,0,0,0,53.88,42.05Z"/>
    <path d="M53.88,56a1.41,1.41,0,1,0,1.41,1.41A1.41,1.41,0,0,0,53.88,56Z"/>
  </g>
</svg>
