<svg id="Layer_1" data-name="Layer 1" xmlns="http://www.w3.org/2000/svg" width="80" height="80" viewBox="0 0 80 80">
  <defs>
    <style>
      .cls-1 {
        fill-rule: evenodd;
      }
    </style>
  </defs>
  <g>
    <path class="cls-1" d="M45.94,33.46a1.46,1.46,0,0,0-1.64-.55,3.81,3.81,0,0,0-1.83,1.78,6.73,6.73,0,0,0-.55,6.22,1.89,1.89,0,0,0,1.24,1.18,2.15,2.15,0,0,0,1.71-.67,6,6,0,0,0,1.81-3.53A6,6,0,0,0,45.94,33.46Zm0,0a1.46,1.46,0,0,0-1.64-.55,3.81,3.81,0,0,0-1.83,1.78,6.73,6.73,0,0,0-.55,6.22,1.89,1.89,0,0,0,1.24,1.18,2.15,2.15,0,0,0,1.71-.67,6,6,0,0,0,1.81-3.53A6,6,0,0,0,45.94,33.46ZM65.81,25a5.11,5.11,0,0,0-3.54-1.32H17.53a5.12,5.12,0,0,0-4.62,3.11,5.84,5.84,0,0,0-.41,2.48c0,5.6,0,11.19,0,16.79a5.14,5.14,0,0,0,4.84,5c7.16,0,14.32,0,21.47,0,3.26,1.75,6.47,3.59,9.7,5.38-.72-1.81-1.47-3.61-2.2-5.41,5.44,0,10.88,0,16.32,0a5.15,5.15,0,0,0,4.85-5c0-5.71,0-11.42,0-17.14A5.14,5.14,0,0,0,65.81,25ZM35,46.35a1.91,1.91,0,0,1-1.26,2,2.35,2.35,0,0,1-2.15-1,23.05,23.05,0,0,1-4.8-9.4c-1,2-2,4-3,6a14.19,14.19,0,0,1-2.49,3.8c-.46.46-1.24.87-1.83.4-.89-.77-1.11-2-1.49-3.09A130.13,130.13,0,0,1,14.91,30a1.93,1.93,0,0,1,1-2.2,2.2,2.2,0,0,1,2.15.21,2.24,2.24,0,0,1,.59,1.44c.59,3.93,1.29,7.86,2.24,11.73q2.43-4.64,4.87-9.28a3.05,3.05,0,0,1,1-1.19,1.6,1.6,0,0,1,2,.18,3.21,3.21,0,0,1,.68,1.62A41.4,41.4,0,0,0,31.48,40a43.53,43.53,0,0,1,2.24-10.79,8.47,8.47,0,0,1,1.06-2,2,2,0,0,1,3,.4,1.88,1.88,0,0,1,.09,1.77,25.73,25.73,0,0,0-2.07,7.25A45.82,45.82,0,0,0,35,46.35ZM49.14,42a8,8,0,0,1-2.79,3.19,5.77,5.77,0,0,1-6-.2,6.61,6.61,0,0,1-2.51-4.23,11.6,11.6,0,0,1,3.26-10.4,5.43,5.43,0,0,1,2.85-1.29,5.63,5.63,0,0,1,4.84,1.71,7.33,7.33,0,0,1,1.71,4A12.22,12.22,0,0,1,49.14,42ZM63.27,42a8,8,0,0,1-2.86,3.27,5.77,5.77,0,0,1-5.78-.08A5.88,5.88,0,0,1,52.24,42a11.58,11.58,0,0,1,2.63-11.32,5.62,5.62,0,0,1,7.91,0A7.4,7.4,0,0,1,64.59,35,12.11,12.11,0,0,1,63.27,42Zm-4.89-9a4.16,4.16,0,0,0-2,2A6.66,6.66,0,0,0,56.07,41a1.69,1.69,0,0,0,1.34,1.09,2.53,2.53,0,0,0,1.76-.87,6.45,6.45,0,0,0,1.67-3.91A5.52,5.52,0,0,0,60,33.45,1.43,1.43,0,0,0,58.38,32.92Zm-14.08,0a3.81,3.81,0,0,0-1.83,1.78,6.73,6.73,0,0,0-.55,6.22,1.89,1.89,0,0,0,1.24,1.18,2.15,2.15,0,0,0,1.71-.67,6,6,0,0,0,1.81-3.53,6,6,0,0,0-.74-4.43A1.46,1.46,0,0,0,44.3,32.91Z"/>
    <path d="M72,4a4,4,0,0,1,4,4V72a4,4,0,0,1-4,4H8a4,4,0,0,1-4-4V8A4,4,0,0,1,8,4H72m0-4H8A8,8,0,0,0,0,8V72a8,8,0,0,0,8,8H72a8,8,0,0,0,8-8V8a8,8,0,0,0-8-8Z"/>
  </g>
</svg>
