<svg id="Layer_1" data-name="Layer 1" xmlns="http://www.w3.org/2000/svg" width="80" height="80" viewBox="0 0 80 80">
  <g>
    <g id="W_Mark" data-name="W Mark">
      <path d="M40,14.15a25.61,25.61,0,0,1,10.06,2A25.9,25.9,0,0,1,63.82,29.94a25.94,25.94,0,0,1,0,20.12A25.9,25.9,0,0,1,50.06,63.82a25.94,25.94,0,0,1-20.12,0A25.9,25.9,0,0,1,16.18,50.06a25.94,25.94,0,0,1,0-20.12A25.9,25.9,0,0,1,29.94,16.18a25.61,25.61,0,0,1,10.06-2m0-1.65A27.5,27.5,0,1,0,67.5,40,27.5,27.5,0,0,0,40,12.5Z"/>
      <path d="M17.08,40A22.9,22.9,0,0,0,30,60.62L19.07,30.67A22.88,22.88,0,0,0,17.08,40Zm38.39-1.16a12.1,12.1,0,0,0-1.89-6.32c-1.16-1.89-2.25-3.48-2.25-5.37a4,4,0,0,1,3.85-4.07l.3,0a22.91,22.91,0,0,0-34.63,4.31l1.48,0c2.39,0,6.11-.29,6.11-.29A1,1,0,0,1,28.58,29s-1.24.14-2.62.21L34.3,54.08l5-15-3.57-9.79c-1.24-.07-2.4-.21-2.4-.21a1,1,0,0,1,.14-1.89s3.79.29,6,.29,6.11-.29,6.11-.29A1,1,0,0,1,45.78,29s-1.24.14-2.62.21l8.28,24.64L53.8,46.4C54.85,43.12,55.47,40.8,55.47,38.84ZM40.4,42,33.53,62a22.84,22.84,0,0,0,14.08-.36,1.59,1.59,0,0,1-.16-.32ZM60.11,29a17.31,17.31,0,0,1,.15,2.35,21.57,21.57,0,0,1-1.74,8.21l-7,20.24A22.91,22.91,0,0,0,60.11,29Z"/>
    </g>
    <path d="M72,4a4,4,0,0,1,4,4V72a4,4,0,0,1-4,4H8a4,4,0,0,1-4-4V8A4,4,0,0,1,8,4H72m0-4H8A8,8,0,0,0,0,8V72a8,8,0,0,0,8,8H72a8,8,0,0,0,8-8V8a8,8,0,0,0-8-8Z"/>
  </g>
</svg>
