<svg id="Layer_1" data-name="Layer 1" xmlns="http://www.w3.org/2000/svg" viewBox="0 0 1920 1920"><defs><style>.cls-1{fill:#e0623d;}.cls-2{fill:#fff;}</style></defs><title>BB_Logos</title><path class="cls-1" d="M1884,960c0,510.14-413.53,923.67-923.67,923.67S36.68,1470.14,36.68,960,450.19,36.33,960.33,36.33,1884,449.88,1884,960Z"/><path class="cls-2" d="M1164.74,626.3a409.58,409.58,0,0,0-153.49,29.92l6.93-37.51S1064.82,417.16,873.62,405c-15.25.08-20,7.93-22,18.51l-37.43,203a409.62,409.62,0,0,0-148,29.65l6.91-37.51S719.74,417.16,528.56,405c-15.18.06-20,7.84-21.94,18.32l-102.34,555a441.07,441.07,0,0,0-7.72,76.24c-2.95,236.13,182,428.24,412.37,428.24s420.16-192.11,423.13-428.24c.79-63.7-14.69-106.73-42.15-131.84-36.89-33.7-101.59-27-132.69,14.65-28.76,38.49-24.39,97.41-24.65,117.19a228.46,228.46,0,0,1-47.43,136.52,223.5,223.5,0,0,1-44-136.52c1.54-123.39,100.72-223.76,221.05-223.76s217,100.37,215.5,223.76a228.35,228.35,0,0,1-106,190.23c-4.32,2.72-15.53,9.43-24.36,19.08-7.57,8.29-13,19.52-15.4,24a498.85,498.85,0,0,1-151.87,170.49c-3.57,2.49-9.92,7.32-7.93,12.24,1.84,4.53,12.06,6.18,16.53,6.9a401.11,401.11,0,0,0,65.37,5.35c230.33,0,420.15-192.11,423.09-428.24S1395.11,626.3,1164.74,626.3ZM596,1054.56c1.35-108.92,78.84-199.78,179.76-219.62L749.35,978.32a443,443,0,0,0-7.71,76.24c-1,81.73,20.52,158.13,58.63,223.15C685.22,1271.65,594.53,1174,596,1054.56Z"/></svg>