<?xml version="1.0" standalone="no"?>
<!DOCTYPE svg PUBLIC "-//W3C//DTD SVG 1.1//EN" "http://www.w3.org/Graphics/SVG/1.1/DTD/svg11.dtd">
<svg width="100%" height="100%" viewBox="0 0 634 397" version="1.1" xmlns="http://www.w3.org/2000/svg" xmlns:xlink="http://www.w3.org/1999/xlink" xml:space="preserve" style="fill-rule:evenodd;clip-rule:evenodd;stroke-linejoin:round;stroke-miterlimit:1.41421;">
    <g id="logo_text">
        <path d="M86.8,262.1L112,262.1L133.6,330.1L113,330.1L109.4,317.4L86.8,317.4L83.2,330.1L65,330.1L86.8,262.1ZM90.6,304.1L105.5,304.1L98.1,277.9L90.6,304.1Z" style="fill:rgb(45,45,45);fill-rule:nonzero;"/>
        <path d="M139.3,292L133,292L133,280.4L139.3,280.4L139.3,276.6C139.3,264.2 146.9,258.4 158.7,258.4C161.8,258.4 164.1,258.8 166.3,259.4L166.3,271.9C165.1,271.5 163.6,271.2 161.7,271.2C157.9,271.2 156.2,273.5 156.2,276.6L156.2,280.4L170.7,280.4L170.7,276C170.7,263.6 178.4,257.7 190.2,257.7C193.3,257.7 195.5,258.1 197.7,258.7L197.7,271.2C196.5,270.8 195.2,270.6 193.2,270.6C189.3,270.6 187.7,272.8 187.7,276L187.7,280.4L197.7,280.4L197.7,292L187.7,292L187.7,330.1L170.7,330.1L170.7,292L156.2,292L156.2,330.1L139.3,330.1L139.3,292Z" style="fill:rgb(45,45,45);fill-rule:nonzero;"/>
        <path d="M201.7,266.9C201.7,261.9 205.7,258.1 211,258.1C216.3,258.1 220.4,261.9 220.4,266.9C220.4,271.9 216.3,275.7 211,275.7C205.7,275.6 201.7,271.9 201.7,266.9ZM202.6,280.4L219.6,280.4L219.6,330.1L202.6,330.1L202.6,280.4Z" style="fill:rgb(45,45,45);fill-rule:nonzero;"/>
        <rect x="228.8" y="258.5" width="16.9" height="71.6" style="fill:rgb(45,45,45);fill-rule:nonzero;"/>
        <path d="M253.9,266.9C253.9,261.9 257.9,258.1 263.2,258.1C268.5,258.1 272.6,261.9 272.6,266.9C272.6,271.9 268.5,275.7 263.2,275.7C257.9,275.6 253.9,271.9 253.9,266.9ZM254.8,280.4L271.8,280.4L271.8,330.1L254.8,330.1L254.8,280.4Z" style="fill:rgb(45,45,45);fill-rule:nonzero;"/>
        <path d="M277.9,316.3C277.9,304.6 287.8,300 304.3,300L309.1,300L309.1,298.9C309.1,294.1 308,291 302.5,291C297.8,291 296.1,293.8 295.7,296.9L279.7,296.9C280.5,284.9 289.9,279 303.5,279C317.2,279 325.9,284.6 325.9,297.8L325.9,330L309.3,330L309.3,324.2C306.9,327.8 302.5,331.1 294.6,331.1C285.8,331.3 277.9,326.9 277.9,316.3ZM309.1,312.7L309.1,309.7L304.6,309.7C297.8,309.7 294.7,311 294.7,315.1C294.7,318 296.6,319.8 300.6,319.8C305.5,319.8 309.1,317 309.1,312.7Z" style="fill:rgb(45,45,45);fill-rule:nonzero;"/>
        <path d="M336.2,314.1L336.2,292L330.2,292L330.2,280.4L336.2,280.4L336.2,270L353.2,270L353.2,280.4L363,280.4L363,292L353.2,292L353.2,312.5C353.2,316.1 355,317.7 358.2,317.7C360.1,317.7 361.5,317.4 363.1,316.8L363.1,329.7C360.9,330.3 357.7,331.1 353.7,331.1C342.5,331.3 336.2,325.8 336.2,314.1Z" style="fill:rgb(45,45,45);fill-rule:nonzero;"/>
        <path d="M366,305.9L366,305.1C366,289.1 377.9,279 392.9,279C406.5,279 418.2,286.8 418.2,304.7L418.2,309.2L383.2,309.2C383.7,315.8 387.5,319.6 393.6,319.6C399.2,319.6 401.6,317 402.3,313.7L418.3,313.7C416.8,324.9 408.1,331.3 393.1,331.3C377.4,331.3 366,322.1 366,305.9ZM401.7,299.6C401.4,293.6 398.5,290.3 392.9,290.3C387.8,290.3 384.2,293.6 383.4,299.6L401.7,299.6Z" style="fill:rgb(45,45,45);fill-rule:nonzero;"/>
        <path d="M418.1,262.1L437.8,262.1L446.6,304.5L455.7,262.1L473,262.1L482.9,304.9L492.1,262.1L510.2,262.1L494.3,330.1L473.9,330.1L463.4,286.9L452.8,330.1L433.8,330.1L418.1,262.1Z" style="fill:rgb(45,45,45);fill-rule:nonzero;"/>
        <path d="M515.8,262.1L541.7,262.1C560.3,262.1 569,270.4 569,284.8L569,285.2C569,299.5 559.4,307.2 542.6,307.2L535.3,307.2L535.3,330.1L515.9,330.1L515.9,262.1L515.8,262.1ZM540.8,293.9C547.1,293.9 550.4,291 550.4,285.3L550.4,284.9C550.4,279.1 547,276.7 540.9,276.7L535.2,276.7L535.2,293.8L540.8,293.8L540.8,293.9Z" style="fill:rgb(45,45,45);fill-rule:nonzero;"/>
    </g>
    <path id="logo_mark" d="M368.6,156.4C367.1,156.4 365.6,156.5 364.1,156.8L342.7,118.3C347.4,112.7 350.3,105.4 350.3,97.5C350.3,79.6 335.7,65 317.8,65C299.9,65 285.3,79.6 285.3,97.5C285.3,105.3 288,112.4 292.6,118L270.3,156.9C268.7,156.7 267,156.5 265.4,156.5C247.5,156.5 232.9,171.1 232.9,189C232.9,206.9 247.5,221.5 265.4,221.5C283.3,221.5 297.9,206.9 297.9,189C297.9,181.2 295.2,174.1 290.6,168.5L312.9,129.6C314.5,129.8 316.2,130 317.8,130C319.3,130 320.8,129.9 322.3,129.6L343.7,168.1C339,173.7 336.1,181 336.1,188.9C336.1,206.8 350.7,221.4 368.6,221.4C386.5,221.4 401.1,206.8 401.1,188.9C401.1,171 386.5,156.4 368.6,156.4ZM317.8,86.3C323.9,86.3 328.9,91.3 328.9,97.4C328.9,103.5 323.9,108.5 317.8,108.5C311.7,108.5 306.7,103.5 306.7,97.4C306.6,91.3 311.6,86.3 317.8,86.3ZM265.3,200C259.2,200 254.2,195 254.2,188.9C254.2,182.8 259.2,177.8 265.3,177.8C271.4,177.8 276.4,182.8 276.4,188.9C276.5,195.1 271.5,200 265.3,200ZM368.6,200C362.5,200 357.5,195 357.5,188.9C357.5,182.8 362.5,177.8 368.6,177.8C374.7,177.8 379.7,182.8 379.7,188.9C379.7,195.1 374.7,200 368.6,200Z" style="fill:rgb(227,79,67);fill-rule:nonzero;"/>
</svg>
