<svg id="Layer_1" data-name="Layer 1" xmlns="http://www.w3.org/2000/svg" width="256" height="256" viewBox="0 0 256 256">
  <g>
    <path d="M256,52.54V203.46c0,29-24.42,52.54-54.56,52.54H54.56C24.43,256,0,232.48,0,203.46V52.54C0,23.53,24.43,0,54.56,0H201.44C231.58,0,256,23.53,256,52.54Z" style="fill: #6f4685"/>
    <g>
      <path d="M169.81,21.45S75.37,46.77,37.68,56.86A20.58,20.58,0,0,0,22.43,76.74V90.61L141.17,58.8a38.72,38.72,0,0,0,28.64-37.35Z" style="fill: #fff;fill-rule: evenodd"/>
      <path d="M113.23,82.62,37.68,102.87a20.59,20.59,0,0,0-15.25,19.89v13.86S58,127.11,84.58,120a38.68,38.68,0,0,0,28.65-37.35Z" style="fill: #fff;fill-rule: evenodd"/>
    </g>
    <g>
      <path d="M160.31,165.87a40,40,0,0,0-28.38-11.75H103.21a40.14,40.14,0,0,0,0,80.27h25.73v-.06a16,16,0,0,0-16-16h-9.73a24.07,24.07,0,0,1,0-48.14h28.21c12.88,0,23.87,9.92,24.55,22.78,0,.11,0,.21,0,.31a8.42,8.42,0,0,0,8.38,8.14h.5a7.17,7.17,0,0,0,7.21-7.08v-.08A40,40,0,0,0,160.31,165.87Z" style="fill: #eae2f2"/>
      <path d="M137.16,222.64a40,40,0,0,0,28.38,11.75h28.72a40.14,40.14,0,1,0,0-80.27h-25.7a0,0,0,0,0,0,0h0a16,16,0,0,0,16,16h9.69a24.07,24.07,0,0,1,0,48.14H166.08c-13.31,0-24.5-10.57-24.61-23.88v-.3a7,7,0,0,0-6.93-7h-2a7.16,7.16,0,0,0-7.16,7.15h0A40.06,40.06,0,0,0,137.16,222.64Z" style="fill: #eae2f2"/>
    </g>
  </g>
</svg>
