<svg id="Layer_1" data-name="Layer 1" xmlns="http://www.w3.org/2000/svg" width="80" height="80" viewBox="0 0 80 80">
  <g>
    <path d="M37.84,67.05H8.78A8.79,8.79,0,0,1,0,58.27V9.11A8.79,8.79,0,0,1,8.78.33H57.94a8.79,8.79,0,0,1,8.79,8.78V37.16H62.82v-28a4.89,4.89,0,0,0-4.88-4.88H8.78A4.88,4.88,0,0,0,3.91,9.11V58.27a4.88,4.88,0,0,0,4.87,4.87H37.84Z"/>
    <path d="M39.17,46.08a95.89,95.89,0,0,0,4.51,17.26c1.49,4.29,4.39,11.89,7.06,14.57a5.26,5.26,0,0,0,3.68,1.76,4.93,4.93,0,0,0,3.39-1.55c2.43-2.38,4.39-7.77,5.61-11.88a4.67,4.67,0,0,1,3.15-3.15c4-1.19,9.27-3.1,11.71-5.44A4.9,4.9,0,0,0,80,54.14a5.22,5.22,0,0,0-1.77-3.72C75.55,47.74,68,44.84,63.66,43.35a96.36,96.36,0,0,0-17.26-4.5c-2.55-.3-4.48.19-5.76,1.47S38.87,43.53,39.17,46.08Z"/>
  </g>
</svg>
