<svg xmlns="http://www.w3.org/2000/svg" viewBox="0 0 100 100"><title>Apply Tag</title><g id="Layer_2" data-name="Layer 2"><g id="Layer_1-2" data-name="Layer 1"><path d="M89.58,0H63.15A18.62,18.62,0,0,0,49.9,5.49L39.28,16.11l-.78,0A26.79,26.79,0,0,0,11.71,42.87c0,.27,0,.52,0,.78L3.55,51.83A12.16,12.16,0,0,0,3.55,69L31,96.45a12.16,12.16,0,0,0,17.17,0L94.51,50.1A18.62,18.62,0,0,0,100,36.85V10.42A10.43,10.43,0,0,0,89.58,0Zm2,47.15L45.22,93.5A8.16,8.16,0,0,1,34,93.5L6.5,66.05a8,8,0,0,1,0-11.27l5.9-5.9A26.79,26.79,0,1,0,44.51,16.77l8.33-8.33A14.48,14.48,0,0,1,63.15,4.17H89.58a6.25,6.25,0,0,1,6.25,6.25V36.85h0A14.47,14.47,0,0,1,91.57,47.15Zm-57.48-.8,14-14a2.21,2.21,0,0,1,3.12,0l1,1a2.21,2.21,0,0,1,0,3.12L35.13,53.62a1.47,1.47,0,0,1-1,.44,1.45,1.45,0,0,1-1-.44l-8.3-8.3a2.21,2.21,0,0,1,0-3.12l1-1a2.21,2.21,0,0,1,3.12,0Z"/><path d="M77.08,12.5A10.42,10.42,0,1,0,87.5,22.92,10.43,10.43,0,0,0,77.08,12.5Zm0,16.67a6.25,6.25,0,1,1,6.25-6.25A6.27,6.27,0,0,1,77.08,29.17Z"/></g></g></svg>