<svg xmlns="http://www.w3.org/2000/svg" viewBox="0 0 77.76 77.76"><title>Apply Tag</title><g id="Layer_2" data-name="Layer 2"><g id="Layer_1-2" data-name="Layer 1"><path d="M69.66,0H49.11A14.5,14.5,0,0,0,38.8,4.27l-8.26,8.26-.6,0A20.83,20.83,0,0,0,9.11,33.34c0,.2,0,.4,0,.61L2.76,40.31a9.45,9.45,0,0,0,0,13.35L24.11,75a9.45,9.45,0,0,0,13.35,0l36-36a14.44,14.44,0,0,0,4.27-10.31V8.1A8.11,8.11,0,0,0,69.66,0ZM71.2,36.67l-36,36a6.35,6.35,0,0,1-8.76,0L5.05,51.36a6.2,6.2,0,0,1,0-8.76L9.64,38a20.83,20.83,0,1,0,25-25l6.48-6.48a11.29,11.29,0,0,1,8-3.32H69.66A4.87,4.87,0,0,1,74.52,8.1V28.65h0A11.27,11.27,0,0,1,71.2,36.67ZM26.51,36,37.4,25.15a1.72,1.72,0,0,1,2.43,0l.8.81a1.71,1.71,0,0,1,0,2.42L27.32,41.7a1.18,1.18,0,0,1-.81.33,1.16,1.16,0,0,1-.81-.33l-6.46-6.46a1.71,1.71,0,0,1,0-2.42l.81-.81a1.72,1.72,0,0,1,2.43,0Z"/><path d="M59.94,9.72a8.1,8.1,0,1,0,8.1,8.1A8.12,8.12,0,0,0,59.94,9.72Zm0,13a4.86,4.86,0,1,1,4.86-4.86A4.87,4.87,0,0,1,59.94,22.68Z"/></g></g></svg>