<svg xmlns="http://www.w3.org/2000/svg" viewBox="0 0 61.09 77.76"><title>Apply List</title><g id="Layer_2" data-name="Layer 2"><g id="Layer_1-2" data-name="Layer 1"><path d="M53.32,10.19h-7V7c0-1-1.11-1.48-2.13-1.48H38.69A8.27,8.27,0,0,0,30.45,0a8.4,8.4,0,0,0-8.23,5.55H16.85c-1,0-2,.46-2,1.48v3.15h-7A7.87,7.87,0,0,0,0,17.69v53c0,4.07,3.7,7,7.78,7H53.32c4.07,0,7.77-3,7.77-7v-53A7.85,7.85,0,0,0,53.32,10.19ZM18.51,9.26H23.6A2,2,0,0,0,25.36,7.6a5.38,5.38,0,0,1,5.09-4.17,5.27,5.27,0,0,1,5,4.17A2,2,0,0,0,37.3,9.26h5.28v7.41H18.51ZM57.39,70.73c0,2-2,3.33-4.07,3.33H7.78c-2,0-4.08-1.3-4.08-3.33v-53a4.18,4.18,0,0,1,4.08-3.8h7v4.72a1.94,1.94,0,0,0,2,1.76h27.3a2,2,0,0,0,2.13-1.76V13.89h7a4.17,4.17,0,0,1,4.07,3.8v53Z"/><path d="M23.42,41.38a1.85,1.85,0,0,0-2.59-.09L14.9,46.94l-2.5-2.59a1.84,1.84,0,0,0-2.59-.1,2,2,0,0,0,0,2.69l3.8,3.89a1.67,1.67,0,0,0,1.29.55,1.9,1.9,0,0,0,1.3-.55L23.42,44a1.77,1.77,0,0,0,.11-2.49Z"/><path d="M50,45.36H28.7a1.86,1.86,0,1,0,0,3.71H50a1.86,1.86,0,0,0,0-3.71Z"/><path d="M23.42,26.57a1.85,1.85,0,0,0-2.59-.09L14.9,32.13l-2.5-2.6a1.85,1.85,0,0,0-2.59-.09,2,2,0,0,0,0,2.69L13.61,36a1.64,1.64,0,0,0,1.29.56A1.87,1.87,0,0,0,16.2,36l7.22-6.85a1.75,1.75,0,0,0,.11-2.48Z"/><path d="M50,30.55H28.7a1.86,1.86,0,1,0,0,3.71H50a1.86,1.86,0,0,0,0-3.71Z"/><path d="M23.42,56.19a1.85,1.85,0,0,0-2.59-.09L14.9,61.75l-2.5-2.59a1.84,1.84,0,0,0-2.59-.1,2,2,0,0,0,0,2.69l3.8,3.89a1.67,1.67,0,0,0,1.29.55,1.86,1.86,0,0,0,1.3-.55l7.22-6.85a1.77,1.77,0,0,0,.11-2.49Z"/><path d="M50,60.17H28.7a1.86,1.86,0,1,0,0,3.71H50a1.86,1.86,0,0,0,0-3.71Z"/></g></g></svg>