<svg xmlns="http://www.w3.org/2000/svg" viewBox="0 0 78.57 100"><title>Apply List</title><g id="Layer_2" data-name="Layer 2"><g id="Layer_1-2" data-name="Layer 1"><path d="M68.57,13.1h-9v-4c0-1.3-1.43-1.9-2.74-1.9h-7C48.09,2.39,43.93,0,39.16,0A10.82,10.82,0,0,0,28.57,7.15h-6.9c-1.31,0-2.62.6-2.62,1.9v4H10A10.12,10.12,0,0,0,0,22.74V91c0,5.24,4.76,9,10,9H68.57c5.23,0,10-3.81,10-9V22.74A10.13,10.13,0,0,0,68.57,13.1ZM23.81,11.91h6.54a2.62,2.62,0,0,0,2.27-2.14,6.91,6.91,0,0,1,6.54-5.36,6.79,6.79,0,0,1,6.43,5.36A2.62,2.62,0,0,0,48,11.91h6.79v9.52H23.81Zm50,79c0,2.62-2.61,4.29-5.23,4.29H10c-2.62,0-5.24-1.67-5.24-4.29V22.74A5.36,5.36,0,0,1,10,17.86h9.05v6.07a2.5,2.5,0,0,0,2.62,2.27H56.78a2.62,2.62,0,0,0,2.74-2.27V17.86h9a5.36,5.36,0,0,1,5.23,4.88V91Z"/><path d="M30.12,53.22a2.39,2.39,0,0,0-3.34-.12l-7.61,7.26L16,57a2.37,2.37,0,0,0-3.33-.12,2.5,2.5,0,0,0,0,3.45l4.88,5a2.14,2.14,0,0,0,1.66.71,2.34,2.34,0,0,0,1.67-.71l9.29-8.81a2.25,2.25,0,0,0,.13-3.19Z"/><path d="M64.28,58.34H36.9a2.38,2.38,0,1,0,0,4.76H64.28a2.38,2.38,0,0,0,0-4.76Z"/><path d="M30.12,34.17a2.4,2.4,0,0,0-3.34-.12l-7.61,7.26L16,38a2.38,2.38,0,0,0-3.33-.12,2.5,2.5,0,0,0,0,3.45l4.88,5a2.11,2.11,0,0,0,1.66.72,2.39,2.39,0,0,0,1.67-.72l9.29-8.8a2.26,2.26,0,0,0,.13-3.2Z"/><path d="M64.28,39.29H36.9a2.38,2.38,0,1,0,0,4.76H64.28a2.38,2.38,0,0,0,0-4.76Z"/><path d="M30.12,72.26a2.39,2.39,0,0,0-3.34-.11l-7.61,7.26L16,76.07A2.38,2.38,0,0,0,12.62,76a2.51,2.51,0,0,0,0,3.46l4.88,5a2.14,2.14,0,0,0,1.66.71,2.42,2.42,0,0,0,1.67-.71l9.29-8.81a2.26,2.26,0,0,0,.13-3.2Z"/><path d="M64.28,77.38H36.9a2.38,2.38,0,0,0,0,4.76H64.28a2.38,2.38,0,0,0,0-4.76Z"/></g></g></svg>