<svg id="Layer_1" data-name="Layer 1" xmlns="http://www.w3.org/2000/svg" width="80" height="80" viewBox="0 0 80 80">
  <g>
    <g>
      <path d="M10.22,11.75H5.71a1.22,1.22,0,0,1-.86-.36L.36,6.89a1.21,1.21,0,0,1,.86-2.07H4.5V1.53A1.22,1.22,0,0,1,6.58.67l4.5,4.5a1.25,1.25,0,0,1,.35.86v4.5A1.21,1.21,0,0,1,10.22,11.75Zm-4-2.43H9V6.53L6.93,4.46V6A1.22,1.22,0,0,1,5.72,7.25H4.15Z"/>
      <path d="M36.25,34.84a6.67,6.67,0,0,0-1.65,1.78L8.51,10.55l1.72-1.73Z"/>
    </g>
    <path d="M40.42,56.87A16.51,16.51,0,0,1,26.2,32a.83.83,0,0,1,1.15-.29.82.82,0,0,1,.29,1.14,14.83,14.83,0,1,0,4.93-5.06.84.84,0,0,1-1.15-.27.83.83,0,0,1,.27-1.15,16.49,16.49,0,1,1,8.73,30.49Z"/>
    <circle cx="40.42" cy="40.38" r="4"/>
    <g>
      <path d="M40.42,74.62A34.25,34.25,0,0,1,12.75,20.19a1.65,1.65,0,0,1,2.65,1.95A30.65,30.65,0,0,0,9.46,40.38,31,31,0,1,0,21.79,15.65a1.64,1.64,0,1,1-2-2.62A34.25,34.25,0,1,1,40.42,74.62Z"/>
      <path d="M78.36,42H74.62a1.65,1.65,0,1,1,0-3.29h3.74a1.65,1.65,0,0,1,0,3.29Z"/>
      <path d="M6.16,42h-3a1.65,1.65,0,0,1,0-3.29h3a1.65,1.65,0,0,1,0,3.29Z"/>
      <path d="M40.42,7.85A1.64,1.64,0,0,1,38.78,6.2V3a1.64,1.64,0,1,1,3.28,0V6.2A1.64,1.64,0,0,1,40.42,7.85Z"/>
      <path d="M40.42,79.69A1.64,1.64,0,0,1,38.78,78V74.62a1.64,1.64,0,0,1,3.28,0V78A1.64,1.64,0,0,1,40.42,79.69Z"/>
    </g>
  </g>
</svg>
