<svg xmlns="http://www.w3.org/2000/svg" viewBox="0 0 77.59 64.97"><defs><style>.cls-1{fill:#fff;}</style></defs><title>Cancel Automations</title><g id="Layer_2" data-name="Layer 2"><g id="Layer_1-2" data-name="Layer 1"><path d="M77.59,41.92H56.82l1.59-9.51a5.24,5.24,0,0,0,3.44-2h0A11.54,11.54,0,0,0,73.4,18.86V14.64a5.19,5.19,0,0,0,2.1-4.16v-.17L74.4,7l-2,.67,1,3a3.14,3.14,0,0,1-6.28,0l1-3-2-.67L65,10.31v.17a5.21,5.21,0,0,0,2.09,4.16V19A5.12,5.12,0,0,1,62,24.1h-.13A5.23,5.23,0,0,0,57.68,22a5,5,0,0,0-1.62.28l-.32-.43a5.25,5.25,0,0,0,1.94-4.05v-1h1a3.15,3.15,0,0,0,3.14-3.15V9.43a3.15,3.15,0,0,0-3.14-3.14h-1v-1A5.25,5.25,0,0,0,52.44,0H37.77a5.25,5.25,0,0,0-5.24,5.24v1h-1a3.15,3.15,0,0,0-3.15,3.14v4.19a3.15,3.15,0,0,0,3.15,3.15h1v1a5.23,5.23,0,0,0,1.95,4.05l-.32.43A5.08,5.08,0,0,0,32.53,22a5.25,5.25,0,0,0-5.24,5.24.52.52,0,0,0,0,.11,14.59,14.59,0,0,0-3.16,8.27,15.9,15.9,0,0,0,1.78,6.29H12.62V44H27c.4.73.82,1.44,1.23,2.1H24.15V65H66.07V46.11H38.28a5.31,5.31,0,0,0-2.38,0,3.12,3.12,0,0,0-.57-.52A6,6,0,0,1,34,44H77.59ZM58.73,8.38a1,1,0,0,1,1.05,1v4.19a1,1,0,0,1-1.05,1.05h-1V8.38ZM31.49,14.67a1,1,0,0,1-1-1.05V9.43a1,1,0,0,1,1-1h1v6.29ZM69.21,19V15.61a5.07,5.07,0,0,0,2.1,0v3.25a9.46,9.46,0,0,1-8.49,9.39,5.56,5.56,0,0,0,.1-1,4.94,4.94,0,0,0-.12-1.1A7.23,7.23,0,0,0,69.21,19Zm-8.38,8.27a3.14,3.14,0,0,1-2.13,3c0-.22,0-.43,0-.65a11.25,11.25,0,0,0-1.41-5.41,2.23,2.23,0,0,1,.36,0A3.15,3.15,0,0,1,60.83,27.25ZM48.25,2.1,46.68,4.19H43.54L42,2.1ZM34.63,5.24A3.15,3.15,0,0,1,37.77,2.1h1.57l3.15,4.19h5.24L50.87,2.1h1.57a3.15,3.15,0,0,1,3.15,3.14V17.81A3.15,3.15,0,0,1,52.44,21H37.77a3.15,3.15,0,0,1-3.14-3.15ZM52.44,23.05H54l.81,1.09,0,.05h0a9.06,9.06,0,0,1,1.77,5.36A9.25,9.25,0,0,1,56.51,31L54.7,41.92H35.52L33.7,31a9.23,9.23,0,0,1-.12-1.48,9,9,0,0,1,1.34-4.73l.48-.7.8-1.08H52.44ZM32.53,24.1a2.2,2.2,0,0,1,.37,0,11.25,11.25,0,0,0-1.41,5.41c0,.21,0,.43,0,.64a3.13,3.13,0,0,1,1-6.1ZM39.2,48.86l1.4,2.8L42,51V52.4h2.1V50.3H42.27l-1.05-2.1H64V62.87H26.25V48.2h3.39a22.57,22.57,0,0,0,1.65,2.1h-1.9v2.1h2.1V50.5a2.25,2.25,0,0,0,.35.32l.05,0a5.23,5.23,0,0,0,1.5,4l.12.12,3.12,1.56.93-1.88-2.8-1.4a3.14,3.14,0,0,1,4.44-4.44Zm-5.81-1.37a5.43,5.43,0,0,0-.82,1.1c-1.65-2-6.32-8.83-6.32-13A11.28,11.28,0,0,1,28.08,30a5.13,5.13,0,0,0,1.51,1.6,8.51,8.51,0,0,0-1.25,4.06c0,2.58,3.47,9.66,5.53,11.47A4.31,4.31,0,0,0,33.39,47.49ZM30.44,35.63a6.87,6.87,0,0,1,1.1-3.25,2.23,2.23,0,0,0,.27,0l1.58,9.51H32.8c-1.23-2.36-2.36-5.14-2.36-6.29Z"/><path d="M33.58,58.68h2.1v2.1h-2.1Z"/><path d="M29.39,58.68h2.1v2.1h-2.1Z"/><path d="M58.73,58.68h2.1v2.1h-2.1Z"/><path d="M54.54,58.68h2.1v2.1h-2.1Z"/><path d="M46.16,58.68h2.09v2.1H46.16Z"/><path d="M42,58.68h2.1v2.1H42Z"/><path d="M50.35,58.68h2.09v2.1H50.35Z"/><path d="M37.77,58.68h2.1v2.1h-2.1Z"/><path d="M29.39,54.49h2.1v2.1h-2.1Z"/><path d="M46.16,54.49h2.09v2.1H46.16Z"/><path d="M37.77,54.49h2.1v2.1h-2.1Z"/><path d="M42,54.49h2.1v2.1H42Z"/><path d="M58.73,54.49h2.1v2.1h-2.1Z"/><path d="M54.54,54.49h2.1v2.1h-2.1Z"/><path d="M50.35,54.49h2.09v2.1H50.35Z"/><path d="M46.16,50.3h2.09v2.1H46.16Z"/><path d="M50.35,50.3h2.09v2.1H50.35Z"/><path d="M58.73,50.3h2.1v2.1h-2.1Z"/><path d="M54.54,50.3h2.1v2.1h-2.1Z"/><path d="M50.35,12.57A3.14,3.14,0,1,0,47.2,9.43,3.15,3.15,0,0,0,50.35,12.57Zm0-4.19a1,1,0,1,1-1.05,1A1,1,0,0,1,50.35,8.38Z"/><path d="M39.87,12.57a3.14,3.14,0,1,0-3.14-3.14A3.15,3.15,0,0,0,39.87,12.57Zm0-4.19a1,1,0,1,1-1,1A1,1,0,0,1,39.87,8.38Z"/><path d="M49.27,16.77l-8.35,0V14.67h-2.1v2.07a2.12,2.12,0,0,0,2.12,2.12h8.33a2.13,2.13,0,0,0,2.13-2.12V14.67H49.3Z"/><path d="M35.68,32.49a3.15,3.15,0,0,0,3.14,3.14H51.4a3.15,3.15,0,0,0,3.14-3.14v-4.2a3.15,3.15,0,0,0-3.14-3.14H38.82a3.15,3.15,0,0,0-3.14,3.14Zm2.09-4.2a1,1,0,0,1,1-1H51.4a1,1,0,0,1,1,1v4.2a1,1,0,0,1-1,1H38.82a1,1,0,0,1-1-1Z"/><path d="M42,37.72h2.1v2.1H42Z"/><path d="M37.77,37.72h2.1v2.1h-2.1Z"/><path d="M50.35,37.72h2.09v2.1H50.35Z"/><path d="M46.16,37.72h2.09v2.1H46.16Z"/><circle class="cls-1" cx="21.28" cy="33.61" r="17.96"/><path d="M21.28,12.12A21.28,21.28,0,1,0,42.55,33.39,21.27,21.27,0,0,0,21.28,12.12ZM30.5,42.76a1.6,1.6,0,0,1-1.15.48,1.65,1.65,0,0,1-1.15-.47l-6.92-6.93-6.93,6.92a1.66,1.66,0,0,1-2.3,0,1.64,1.64,0,0,1,0-2.3L19,33.54l-6.93-6.93a1.63,1.63,0,0,1,2.3-2.3l6.93,6.93,6.92-6.93a1.64,1.64,0,0,1,2.3,0,1.62,1.62,0,0,1,0,2.3l-6.93,6.93,6.93,6.93a1.61,1.61,0,0,1,0,2.29Z"/></g></g></svg>