<svg xmlns="http://www.w3.org/2000/svg" viewBox="0 0 100 87.95"><title>Cancel Sequence Emails</title><g id="Layer_2" data-name="Layer 2"><g id="Layer_1-2" data-name="Layer 1"><path d="M87.26,26.63H55c0,.21,0,.43,0,.64a27.72,27.72,0,0,1-.16,2.9H85.49L48.7,57.76a5,5,0,0,1-5.43,0L36.93,53a26.44,26.44,0,0,1-4.34,1.17l8.56,6.42a8.45,8.45,0,0,0,9.67,0L88.44,32.38v49.5L68.59,57.36a1.77,1.77,0,1,0-2.75,2.22l20,24.76.07.07H6l.06-.07L26.14,59.58a1.77,1.77,0,1,0-2.75-2.22L3.54,81.88V40.27A27.17,27.17,0,0,1,.36,29.55,4.7,4.7,0,0,0,0,31.35V83.23A4.74,4.74,0,0,0,4.72,88H87.26A4.73,4.73,0,0,0,92,83.23V31.35A4.73,4.73,0,0,0,87.26,26.63Z"/><path d="M95.28,9.12H48.08a27.05,27.05,0,0,1,2.66,3.54H93.51l-13.31,10h5.89l10.37-7.78V64.36l-6.41-7.91v5.62l3.86,4.76.06.07H90.05v3.54h5.23A4.74,4.74,0,0,0,100,65.72V13.84A4.73,4.73,0,0,0,95.28,9.12Z"/><path d="M27.59,0A27.36,27.36,0,1,0,55,27.36,27.36,27.36,0,0,0,27.59,0ZM39.46,39.41a2.1,2.1,0,0,1-3,0l-8.91-8.9-8.91,8.9a2.13,2.13,0,0,1-2.95,0,2.08,2.08,0,0,1,0-2.95l8.91-8.91-8.91-8.91a2.09,2.09,0,0,1,2.95-3l8.91,8.91,8.91-8.9a2.09,2.09,0,1,1,3,3l-8.91,8.91,8.91,8.91a2.09,2.09,0,0,1,0,2.95Z"/></g></g></svg>