<svg id="Layer_1" data-name="Layer 1" xmlns="http://www.w3.org/2000/svg" width="80" height="80" viewBox="0 0 80 80">
  <defs>
    <style>
      .cls-1 {
        fill: none;
      }
    </style>
  </defs>
  <path d="M71.5,49.79A15.37,15.37,0,1,0,76,60.65,15.35,15.35,0,0,0,71.5,49.79Zm-14,20.43a2.09,2.09,0,0,1-1.53.66h-.05a2.09,2.09,0,0,1-1.54-.73l-6-7a2.09,2.09,0,1,1,3.18-2.71L56,65.64l12.42-13.3a2.1,2.1,0,0,1,3.07,2.86Z"/>
  <g>
    <path class="cls-1" d="M37.88,29.34a1.9,1.9,0,0,0-.09-1.78,2,2,0,0,0-3-.4,8.47,8.47,0,0,0-1.06,2A43.7,43.7,0,0,0,31.48,40a41.73,41.73,0,0,1-2.09-7.52,3.18,3.18,0,0,0-.68-1.61,1.58,1.58,0,0,0-2-.18,2.92,2.92,0,0,0-1,1.19L20.9,41.13c-.95-3.87-1.65-7.79-2.24-11.73A2.22,2.22,0,0,0,18.07,28a2.18,2.18,0,0,0-2.14-.22,1.93,1.93,0,0,0-1,2.2A129.7,129.7,0,0,0,18,45.11c.38,1.07.6,2.32,1.49,3.1.59.46,1.37,0,1.83-.4A14.51,14.51,0,0,0,23.82,44c1-2,2-4,3-6a23.05,23.05,0,0,0,4.8,9.4,2.39,2.39,0,0,0,2.15,1,1.91,1.91,0,0,0,1.26-2,45.77,45.77,0,0,1,.79-9.77A25.64,25.64,0,0,1,37.88,29.34Z"/>
    <path d="M72,0H8A8,8,0,0,0,0,8V72a8,8,0,0,0,8,8H60.6a19.26,19.26,0,0,1-11.79-4H8a4,4,0,0,1-4-4V8A4,4,0,0,1,8,4H72a4,4,0,0,1,4,4V48.81a19.31,19.31,0,0,1,4,11.8V8A8,8,0,0,0,72,0Z"/>
    <path d="M60.84,36.34A5.53,5.53,0,0,0,60,32.45a1.43,1.43,0,0,0-1.64-.53,4.25,4.25,0,0,0-2,2A6.66,6.66,0,0,0,56.07,40a2.17,2.17,0,0,0,.42.63,17.8,17.8,0,0,1,2.65-.38l0,0A6.44,6.44,0,0,0,60.84,36.34Z"/>
    <path d="M65.81,24a5.07,5.07,0,0,0-3.54-1.33H17.53a5.09,5.09,0,0,0-4.62,3.1,5.88,5.88,0,0,0-.41,2.49c0,5.59,0,11.19,0,16.78a5.12,5.12,0,0,0,4.84,5c7.15,0,14.31,0,21.46,0q1.95,1.05,3.88,2.13a19.69,19.69,0,0,1,4.19-6.24,19.4,19.4,0,0,1,5.74-4,8.18,8.18,0,0,1-.39-.92,11.57,11.57,0,0,1,2.63-11.32A5.53,5.53,0,0,1,58,28.12a5.66,5.66,0,0,1,4.77,1.6A7.37,7.37,0,0,1,64.59,34a12.12,12.12,0,0,1-1.05,6.45,18.78,18.78,0,0,1,4,1c0-4.54,0-9.08,0-13.62A5.14,5.14,0,0,0,65.81,24ZM35,45.36a1.91,1.91,0,0,1-1.26,2,2.39,2.39,0,0,1-2.15-1,23.05,23.05,0,0,1-4.8-9.4c-1,2-2,4-3,6a14.51,14.51,0,0,1-2.49,3.8c-.46.45-1.24.86-1.83.4-.89-.78-1.11-2-1.49-3.1A129.7,129.7,0,0,1,14.91,29a1.93,1.93,0,0,1,1-2.2,2.18,2.18,0,0,1,2.14.22,2.22,2.22,0,0,1,.59,1.43c.59,3.94,1.29,7.86,2.24,11.73l4.87-9.27a2.92,2.92,0,0,1,1-1.19,1.58,1.58,0,0,1,2,.18,3.18,3.18,0,0,1,.68,1.61A41.73,41.73,0,0,0,31.48,39a43.7,43.7,0,0,1,2.24-10.8,8.47,8.47,0,0,1,1.06-2,2,2,0,0,1,3,.4,1.9,1.9,0,0,1,.09,1.78,25.64,25.64,0,0,0-2.07,7.25A45.77,45.77,0,0,0,35,45.36ZM49.14,41a8,8,0,0,1-2.79,3.19,5.75,5.75,0,0,1-6-.2,6.58,6.58,0,0,1-2.51-4.23,11.58,11.58,0,0,1,3.26-10.39,5.36,5.36,0,0,1,2.85-1.29,5.62,5.62,0,0,1,4.84,1.7,7.33,7.33,0,0,1,1.71,4A12.19,12.19,0,0,1,49.14,41Z"/>
    <path d="M44.3,31.92a3.77,3.77,0,0,0-1.82,1.77,6.68,6.68,0,0,0-.55,6.22,1.86,1.86,0,0,0,1.23,1.18,2.17,2.17,0,0,0,1.71-.66,6,6,0,0,0,1.81-3.54,6,6,0,0,0-.74-4.42A1.42,1.42,0,0,0,44.3,31.92Z"/>
  </g>
</svg>
