<svg id="Layer_1" data-name="Layer 1" xmlns="http://www.w3.org/2000/svg" width="80" height="80" viewBox="0 0 80 80">
  <path d="M64.89,58.61c.79-19-14.57-24.76-22.72-27.74h-.08c0-.07,0-.07-.08-.07a40.85,40.85,0,0,1-3.92-1.57,37.72,37.72,0,0,1-4.07-2h-.08a40.73,40.73,0,0,1-7.21-4.93A11.6,11.6,0,0,0,33.47,11.6,5.9,5.9,0,0,0,33.32,10,11.59,11.59,0,0,0,21.8,0a10.35,10.35,0,0,0-4.16.79,11.63,11.63,0,0,0-.7,21.47V57.67a11.68,11.68,0,1,0,9.71,0V34.17a50,50,0,0,0,7.45,3.91c1.25.63,2.82,1.18,4.55,1.89,7.75,2.81,16.29,6,16.45,16.92a11.76,11.76,0,1,0,9.79,1.72ZM27.6,68.25a5.8,5.8,0,1,1-11.6,0,5.8,5.8,0,0,1,11.6,0Zm-5.8-51.4a5.78,5.78,0,0,1-.63-11.52,1.51,1.51,0,0,1,.63-.08,5.93,5.93,0,0,1,5.41,3.69,6.42,6.42,0,0,1,.39,2.11A5.79,5.79,0,0,1,21.8,16.85ZM58.23,74a5.8,5.8,0,1,1,5.8-5.8A5.79,5.79,0,0,1,58.23,74Z"/>
</svg>
