<svg xmlns="http://www.w3.org/2000/svg" viewBox="0 0 100 98.65"><title>Send Custom Email</title><g id="Layer_2" data-name="Layer 2"><g id="Layer_1-2" data-name="Layer 1"><path d="M94.87,32H82.62a4.1,4.1,0,0,1-.49.53c-.72.61-1.45,1.2-2.18,1.79l-1.59,1.53H93l-40,30a4.94,4.94,0,0,1-3,.88,5.41,5.41,0,0,1-.91-.07,5.53,5.53,0,0,1-1.33,2.82,3.82,3.82,0,0,1-.72.62,9.36,9.36,0,0,0,3,.48,8.81,8.81,0,0,0,5.26-1.66L96.15,38.23V92.05L74.57,65.39a1.92,1.92,0,1,0-3,2.42l21.8,26.92.07.07H6.55a.46.46,0,0,0,.07-.07l11-13.58-1.17.26A5.15,5.15,0,0,1,12.83,81l-9,11.1V38.23l7.45,5.59c.87-.94,1.68-1.93,2.46-3l-6.71-5H17.4c1-1.31,1.91-2.61,3-3.85H5.13A5.15,5.15,0,0,0,0,37.11V93.52a5.15,5.15,0,0,0,5.13,5.13H94.87A5.15,5.15,0,0,0,100,93.52V37.11A5.15,5.15,0,0,0,94.87,32Z"/><path d="M12.62,76h.51L37.9,70.59A2.4,2.4,0,0,0,39.18,70l42-42A16.15,16.15,0,0,0,85.9,16.43,16.65,16.65,0,0,0,81.15,4.75,16.13,16.13,0,0,0,69.6,0,15.78,15.78,0,0,0,58.05,4.88l-41.84,42A2.31,2.31,0,0,0,15.44,48L10.05,72.78a2.8,2.8,0,0,0,.77,2.43A2.5,2.5,0,0,0,12.62,76Zm57-70.85A11.17,11.17,0,0,1,80.77,16.3v.13a10.79,10.79,0,0,1-3.21,7.83L61.77,8.34A11.09,11.09,0,0,1,69.6,5.13ZM58.18,12.07,74,27.85,37.39,64.3,21.6,48.65ZM19.55,53.78l12.7,12.71L16,70.08Z"/></g></g></svg>