<svg xmlns="http://www.w3.org/2000/svg" viewBox="0 0 77.76 76.71"><title>Send Custom Email</title><g id="Layer_2" data-name="Layer 2"><g id="Layer_1-2" data-name="Layer 1"><path d="M73.77,24.87H64.25a3,3,0,0,1-.39.41c-.56.47-1.12.94-1.69,1.39l-1.23,1.19H72.28L41.18,51.19a4,4,0,0,1-2.3.69,4.17,4.17,0,0,1-.71-.06,4.29,4.29,0,0,1-1,2.19,3.23,3.23,0,0,1-.56.49,7.19,7.19,0,0,0,2.3.37A6.9,6.9,0,0,0,43,53.58l31.8-23.85V71.58L58,50.85a1.5,1.5,0,1,0-2.33,1.88l17,20.93a.34.34,0,0,0,.06.06H5.09a.34.34,0,0,0,.06-.06L13.7,63.11c-.31.06-.61.12-.91.2A4,4,0,0,1,10,63L3,71.58V29.73l5.8,4.35c.67-.73,1.31-1.51,1.91-2.31L5.48,27.86h8c.74-1,1.49-2,2.3-3H4a4,4,0,0,0-4,4V72.72a4,4,0,0,0,4,4H73.77a4,4,0,0,0,4-4V28.86A4,4,0,0,0,73.77,24.87Z"/><path d="M9.81,59.09h.4L29.47,54.9a1.94,1.94,0,0,0,1-.5L63.11,21.76a12.61,12.61,0,0,0,3.69-9,13,13,0,0,0-3.69-9.09,12.61,12.61,0,0,0-9-3.69,12.29,12.29,0,0,0-9,3.79L12.6,36.43a1.83,1.83,0,0,0-.59.9L7.81,56.59a2.22,2.22,0,0,0,.6,1.9A2,2,0,0,0,9.81,59.09ZM54.13,4a8.69,8.69,0,0,1,8.68,8.69v.1a8.37,8.37,0,0,1-2.5,6.08L48,6.49A8.57,8.57,0,0,1,54.13,4ZM45.24,9.38,57.52,21.66,29.07,50,16.8,37.83Zm-30,32.44,9.88,9.88L12.4,54.5Z"/></g></g></svg>