<svg id="Layer_1" data-name="Layer 1" xmlns="http://www.w3.org/2000/svg" width="80" height="80" viewBox="0 0 80 80">
  <g>
    <g>
      <path d="M59.48,20.54a27.61,27.61,0,1,0,8,19.48A27.35,27.35,0,0,0,59.48,20.54Zm-.93,38A26.09,26.09,0,1,1,66.29,40,26.17,26.17,0,0,1,58.55,58.52Z"/>
      <path d="M63.68,39.78a23.66,23.66,0,0,0-47.31,0L27.22,28.93l3.65,3.65-7.94,7.94H57.17l-8-7.94,3.65-3.65ZM40.05,35.73,29.94,25.13h6.71V19.9c0-1.33,1.52-2.47,3.4-2.47s3.4,1.09,3.4,2.47v5.23h6.71Z"/>
      <path d="M43,53.34a11,11,0,0,0-2-.93,9.34,9.34,0,0,1-1.53-.65,2.43,2.43,0,0,1-.89-.64,1.22,1.22,0,0,1-.3-.84,1.49,1.49,0,0,1,.25-.74,1.28,1.28,0,0,1,.74-.54,3.37,3.37,0,0,1,1.33-.24,9.64,9.64,0,0,1,1.24.09,4.16,4.16,0,0,1,.93.25c.3.1.5.2.69.25l.6-1.83a4.84,4.84,0,0,0-1.39-.44,14.34,14.34,0,0,0-1.62-.2V45H39.31v2a6,6,0,0,0-2.37,1,3,3,0,0,0-1,1.13,2.88,2.88,0,0,0-.35,1.43,2.54,2.54,0,0,0,.49,1.58,4,4,0,0,0,1.33,1.18,9.16,9.16,0,0,0,2.08.89,9.59,9.59,0,0,1,1.43.59,2.38,2.38,0,0,1,.79.69,1.77,1.77,0,0,1,.24.84,1.42,1.42,0,0,1-.29.89,2,2,0,0,1-.89.59,3.86,3.86,0,0,1-1.38.2,10.08,10.08,0,0,1-1.28-.1l-1.19-.29a5.74,5.74,0,0,1-1-.4l-.6,1.92a3.84,3.84,0,0,0,1,.4c.39.1.84.2,1.33.29a14.71,14.71,0,0,0,1.48.1h.1v2h1.68V59.76l.59-.15a5.08,5.08,0,0,0,1.68-.84,3,3,0,0,0,1-1.23,3.62,3.62,0,0,0,.35-1.48,3.19,3.19,0,0,0-.4-1.58A3.69,3.69,0,0,0,43,53.34Z"/>
    </g>
    <path d="M72,4a4,4,0,0,1,4,4V72a4,4,0,0,1-4,4H8a4,4,0,0,1-4-4V8A4,4,0,0,1,8,4H72m0-4H8A8,8,0,0,0,0,8V72a8,8,0,0,0,8,8H72a8,8,0,0,0,8-8V8a8,8,0,0,0-8-8Z"/>
  </g>
</svg>
