<svg id="Layer_1" data-name="Layer 1" xmlns="http://www.w3.org/2000/svg" width="80" height="80" viewBox="0 0 80 80">
  <g>
    <path d="M65.86,39.26a25.88,25.88,0,1,0-26.61,26.6c-.11-.4-.2-.81-.27-1.22A24.66,24.66,0,1,1,64.64,39C65.05,39.06,65.46,39.16,65.86,39.26Z"/>
    <path d="M61.08,38.6a10.88,10.88,0,0,1,1.14.06,22.26,22.26,0,0,0-44.48,1.12L28,29.58,31.37,33l-7.46,7.47H51.59a20,20,0,0,1,3.34-1.17L48.63,33l3.43-3.42ZM40,36,30.52,26h6.3v-4.9c0-1.28,1.43-2.32,3.18-2.32s3.18,1,3.18,2.32V26h6.3Z"/>
    <path d="M39.23,48.47a3.2,3.2,0,0,1,1.26-.22,7.76,7.76,0,0,1,1.14.09l.55.13a16,16,0,0,1,1.13-1.57,5.81,5.81,0,0,0-.88-.25,8.37,8.37,0,0,0-1.55-.18v-1.8H39.31v1.9a4.1,4.1,0,0,0-.73.16,5,5,0,0,0-1.5.71,3.36,3.36,0,0,0-.94,1.09,3,3,0,0,0-.33,1.36,2.61,2.61,0,0,0,.45,1.51,3.83,3.83,0,0,0,1.25,1.13,9.1,9.1,0,0,0,1.93.83l.29.09c.22-.66.48-1.31.76-1.94-.43-.15-.79-.3-1.1-.44a2.48,2.48,0,0,1-.83-.61,1.19,1.19,0,0,1,0-1.46A1.53,1.53,0,0,1,39.23,48.47Z"/>
    <path d="M38.65,58.75a18,18,0,0,1,.22-1.8h0a5.31,5.31,0,0,1-.71-.08,7.08,7.08,0,0,1-1.1-.27,6.09,6.09,0,0,1-.91-.38L35.59,58a4.27,4.27,0,0,0,.95.38,8.4,8.4,0,0,0,1.28.28C38.09,58.71,38.37,58.73,38.65,58.75Z"/>
    <path d="M70.1,2H9.9A7.9,7.9,0,0,0,2,9.9V70.1A7.9,7.9,0,0,0,9.9,78H47.37a21.53,21.53,0,0,1-3.78-3.61H9.9A4.3,4.3,0,0,1,5.61,70.1V9.9A4.3,4.3,0,0,1,9.9,5.61H70.1A4.3,4.3,0,0,1,74.39,9.9V43.59A22.31,22.31,0,0,1,78,47.38V9.9A7.9,7.9,0,0,0,70.1,2Z"/>
    <path d="M77.45,56.09a17,17,0,0,0-1.18-3.22c-.26-.54-.55-1.06-.86-1.57a17.58,17.58,0,0,0-1-1.48h0a18,18,0,0,0-1.53-1.73,17.31,17.31,0,0,0-7.25-4.36,12.29,12.29,0,0,0-1.19-.32,17.15,17.15,0,0,0-4-.45,17.47,17.47,0,0,0-12.39,5.13,16,16,0,0,0-1.78,2.07,16.38,16.38,0,0,0-1.23,1.91,18.85,18.85,0,0,0-1,2.08v0a17.44,17.44,0,0,0-1,3.42s0,0,0,0a17.65,17.65,0,0,0,.21,6.86h0a12.09,12.09,0,0,0,.32,1.18h0c.1.35.21.7.34,1a17.92,17.92,0,0,0,1.4,2.89c.19.3.38.6.58.9.41.58.85,1.14,1.31,1.67.24.26.49.52.74.77a17.91,17.91,0,0,0,1.73,1.52h0A17.42,17.42,0,0,0,60.46,78h0A17.38,17.38,0,0,0,71,74.51a.78.78,0,0,0,.21-.16,1.3,1.3,0,0,0,.2-.15l.11-.09.14-.11c.42-.35.84-.73,1.24-1.13a17.33,17.33,0,0,0,1.34-1.49h0l.45-.57c.28-.39.56-.8.8-1.21a5.76,5.76,0,0,0,.37-.63c.17-.29.31-.58.45-.88a16.72,16.72,0,0,0,1.18-3.22c.14-.56.26-1.13.35-1.71a17.84,17.84,0,0,0,.2-2.67,18,18,0,0,0-.2-2.67C77.71,57.22,77.59,56.65,77.45,56.09Zm-11,17.57a3.86,3.86,0,0,1-1-7.59c-.06-3.6-2.89-4.66-5.44-5.61a15.36,15.36,0,0,1-1.52-.62,12.12,12.12,0,0,1-1.23-.58c-.33-.17-.71-.38-1.11-.63l-.11-.07v7.77a3.87,3.87,0,1,1-3.22,0V54.61a3.87,3.87,0,1,1,3.23,0,13.07,13.07,0,0,0,2.46,1.65c.45.25.84.45,1.12.57l.19.08a13.49,13.49,0,0,0,1.3.52c2.69,1,7.84,2.92,7.57,9.2a3.87,3.87,0,0,1-2.21,7Z"/>
    <path d="M66.5,67.88a1.92,1.92,0,1,0,1.91,1.91A1.91,1.91,0,0,0,66.5,67.88Z"/>
    <path d="M54.45,49a1.92,1.92,0,0,0,0,3.83,1.92,1.92,0,1,0,0-3.83Z"/>
    <path d="M54.45,67.93a1.92,1.92,0,0,0,0,3.83,1.92,1.92,0,1,0,0-3.83Z"/>
  </g>
</svg>
