<svg id="Layer_1" data-name="Layer 1" xmlns="http://www.w3.org/2000/svg" width="80" height="80" viewBox="0 0 80 80">
  <path d="M40,2A38,38,0,1,0,78,40,38,38,0,0,0,40,2Zm0,72.68A34.66,34.66,0,0,1,14.31,16.73L23.6,26l-.24,0a2.35,2.35,0,0,0-2,1.92h-9a1,1,0,0,0-.95,1v6.2a1,1,0,0,0,.95,1H17l.56,1L31.17,60.3v7.3A2.87,2.87,0,0,0,34,70.47h11.9A2.88,2.88,0,0,0,48.8,67.6V60.36l3.36-5.77,11.11,11.1A34.56,34.56,0,0,1,40,74.68ZM51.23,23.84a14.06,14.06,0,0,1,1.15,2.77.77.77,0,0,0,.64.56l3.44.43A.78.78,0,0,1,57,28H47.47a7.79,7.79,0,0,0-15,0H30.25L28,25.67a13.09,13.09,0,0,1,.82-1.83A.77.77,0,0,0,28.7,23l-2.11-2.73a.79.79,0,0,1,.05-1l2.48-2.47a.76.76,0,0,1,1,0l2.73,2.11a.77.77,0,0,0,.85.07,13.73,13.73,0,0,1,2.76-1.15.77.77,0,0,0,.57-.64l.43-3.44a.8.8,0,0,1,.77-.69h3.5a.8.8,0,0,1,.77.7L43,17.1a.77.77,0,0,0,.57.64,14.33,14.33,0,0,1,2.76,1.15.77.77,0,0,0,.85-.07l2.73-2.11a.79.79,0,0,1,1,.05l2.47,2.47a.78.78,0,0,1,0,1L51.3,23A.77.77,0,0,0,51.23,23.84ZM33,59.61,19.23,36.07H33.64L50.77,53.2,47,59.67a.45.45,0,0,0-.1.3V67.6a1,1,0,0,1-1,1H34a1,1,0,0,1-1-1V59.91A.46.46,0,0,0,33,59.61Zm5.39-23.54H60.77L52.51,50.23Zm2.28-1.9H36.45l-4.3-4.3H66.77v4.3H40.63ZM34.12,28a6.23,6.23,0,0,1,11.7,0Zm-2.38,6.2H13.23v-4.3H27.45ZM23,28a.78.78,0,0,1,.58-.37L25,27.42l.55.55ZM65.62,63.34,53.9,51.62,62.41,37l.56-1h4.75a1,1,0,0,0,1-1v-6.2a1,1,0,0,0-1-1h-9a2.35,2.35,0,0,0-2-1.92l-2.92-.37a14.43,14.43,0,0,0-.9-2.14l1.82-2.33a2.34,2.34,0,0,0-.19-3.09L52,15.67a2.33,2.33,0,0,0-3.09-.2l-2.34,1.82a13.89,13.89,0,0,0-2.13-.9l-.37-2.92a2.35,2.35,0,0,0-2.32-2.06h-3.5a2.35,2.35,0,0,0-2.32,2.06l-.37,2.92a13.89,13.89,0,0,0-2.13.9l-2.34-1.82a2.32,2.32,0,0,0-3.08.19l-2.46,2.45a2.34,2.34,0,0,0-.2,3.1l1.82,2.34a9.47,9.47,0,0,0-.43.91L16.66,14.38a34.66,34.66,0,0,1,49,49Z"/>
</svg>
