<svg id="Layer_1" data-name="Layer 1" xmlns="http://www.w3.org/2000/svg" width="80" height="80" viewBox="0 0 80 80">
  <g>
    <path d="M58,63.36v7.8l.12,0c0,2-2,3.26-4,3.26H9.61c-2,0-4-1.27-4-3.26V19.35a4.09,4.09,0,0,1,4-3.71h6.85v4.62a1.91,1.91,0,0,0,2,1.72H45.11a2,2,0,0,0,2.09-1.72V15.6H54a4.1,4.1,0,0,1,2.76,1.15c.81-.08,1.65-.13,2.48-.13.64,0,1.27,0,1.89.08a7.68,7.68,0,0,0-7-4.72H47.31V8.86c0-1-1.09-1.45-2.08-1.45H39.84A8.09,8.09,0,0,0,31.78,2a8.19,8.19,0,0,0-8,5.43H18.48c-1,0-1.95.45-1.95,1.45V12H9.68A7.7,7.7,0,0,0,2,19.32V71.16C2,75.14,5.62,78,9.61,78H54.15c4,0,7.6-2.94,7.6-6.84V63.25a22.16,22.16,0,0,1-2.47.14C58.87,63.39,58.44,63.38,58,63.36ZM20.11,11.07h5a2,2,0,0,0,1.72-1.62,5.26,5.26,0,0,1,5-4.08,5.16,5.16,0,0,1,4.9,4.08,2,2,0,0,0,1.8,1.62h5.17v7.25H20.11Z"/>
    <path d="M25,42.61l-.11-.12a1.81,1.81,0,0,0-2.53-.09l-5.81,5.52-2.44-2.53a1.8,1.8,0,0,0-2.53-.1,2,2,0,0,0,0,2.63l3.71,3.81a1.63,1.63,0,0,0,1.26.53,1.92,1.92,0,0,0,1.28-.53l7.06-6.68A1.73,1.73,0,0,0,25,42.61Z"/>
    <path d="M30.07,46.38A1.82,1.82,0,0,0,29.81,50h8.34a22.57,22.57,0,0,1-1.36-3.63Z"/>
    <path d="M25,28.1h0L24.91,28a1.82,1.82,0,0,0-2.53-.09l-5.81,5.52L14.13,30.9a1.8,1.8,0,0,0-2.53-.09,1.94,1.94,0,0,0,0,2.62l3.71,3.79a1.64,1.64,0,0,0,1.26.55,1.81,1.81,0,0,0,1.28-.55l7.06-6.69A1.72,1.72,0,0,0,25,28.1Z"/>
    <path d="M36.32,35.52a23.54,23.54,0,0,1,1-3.63H30.07a1.82,1.82,0,0,0-.26,3.63Z"/>
    <path d="M22.38,56.88l-5.81,5.53-2.44-2.54a1.8,1.8,0,0,0-2.53-.09,2,2,0,0,0,0,2.63l3.71,3.81a1.63,1.63,0,0,0,1.26.53,1.87,1.87,0,0,0,1.28-.53l7.06-6.71A1.72,1.72,0,0,0,25,57.08L24.91,57A1.8,1.8,0,0,0,22.38,56.88Z"/>
    <path d="M61.75,21.44a18.18,18.18,0,0,0-2.47-.17c-.42,0-.84,0-1.26.05A18.72,18.72,0,0,0,42.4,31.89,18.53,18.53,0,0,0,40.55,40,18.74,18.74,0,0,0,58,58.68c.42,0,.84,0,1.26,0a18.18,18.18,0,0,0,2.47-.17,18.72,18.72,0,0,0,0-37.12Zm4,32.65a4.13,4.13,0,0,1-4-2.94V48.77A4.15,4.15,0,0,1,64.62,46a5.11,5.11,0,0,0-2.87-4.7,18.55,18.55,0,0,0-3-1.29l-.78-.3a7.13,7.13,0,0,1-.83-.37A16.6,16.6,0,0,1,54.57,38v8.3a4.14,4.14,0,1,1-3.66.12,2.39,2.39,0,0,1,.22-.12V33.74A4.15,4.15,0,0,1,48.72,30a4.14,4.14,0,1,1,5.86,3.76A17,17,0,0,0,58,35.92c.25.13.45.22.59.28.39.19.86.36,1.39.56s1.12.42,1.75.69c2.92,1.26,6.57,3.63,6.33,9.12a4.14,4.14,0,0,1-2.36,7.52Z"/>
    <path d="M28.13,62.54a1.8,1.8,0,0,0,1.68,1.95,1.13,1.13,0,0,0,.26,0H50.91a1.82,1.82,0,0,0,1.68-1.95.35.35,0,0,0,0-.14,1.81,1.81,0,0,0-1.65-1.54H30.07A1.81,1.81,0,0,0,28.13,62.54Z"/>
    <path d="M65.72,47.92a2,2,0,1,0,2,2A2,2,0,0,0,65.72,47.92Z"/>
    <path d="M52.85,27.73a2,2,0,1,0,2,2.05A2,2,0,0,0,52.85,27.73Z"/>
    <path d="M52.85,48l-.27,0a2,2,0,1,0,.27,0Z"/>
  </g>
</svg>
