<svg id="Layer_1" data-name="Layer 1" xmlns="http://www.w3.org/2000/svg" width="80" height="80" viewBox="0 0 80 80">
  <g>
    <g>
      <circle cx="34.53" cy="20" r="20"/>
      <path d="M47.77,80H5a5,5,0,0,1-5-5V66.8A21.85,21.85,0,0,1,21.85,45H45.59A23,23,0,0,0,47.77,80Z"/>
    </g>
    <g>
      <path d="M61.54,43.09A18.45,18.45,0,1,0,80,61.54,18.36,18.36,0,0,0,61.54,43.09Zm6.34,32.34a4.07,4.07,0,0,1-1.07-8c-.07-3.79-3.05-4.9-5.75-5.9-.56-.21-1.1-.41-1.55-.63a21.21,21.21,0,0,1-2.61-1.37v8.18a4.08,4.08,0,1,1-3.39,0V55.38a4.08,4.08,0,1,1,3.4,0,17,17,0,0,0,4,2.42c.4.2.85.36,1.37.56,2.83,1,8.27,3.07,8,9.67a4.07,4.07,0,0,1-2.33,7.41Z"/>
      <path d="M69.8,70.75a2,2,0,0,0-3.27-.88h0a2,2,0,0,0-.66,1.48,2,2,0,1,0,4,0,2,2,0,0,0-.09-.6Z"/>
      <polygon points="56.9 55.38 56.91 55.37 56.9 55.36 56.9 55.38"/>
      <path d="M57.22,51.47a2,2,0,0,0-4,0,2.08,2.08,0,0,0,.32,1.1,2,2,0,0,0,3.71-1.1Z"/>
      <path d="M55.2,69.39a2,2,0,0,0-1.69.92,2.08,2.08,0,0,0-.32,1.1,2,2,0,0,0,4,0,2,2,0,0,0-.32-1.08A2,2,0,0,0,55.2,69.39Z"/>
    </g>
  </g>
</svg>
