<svg id="Layer_1" data-name="Layer 1" xmlns="http://www.w3.org/2000/svg" width="80" height="80" viewBox="0 0 80 80">
  <g>
    <path d="M70.1,2H50a14.19,14.19,0,0,0-10,4.17l-8.06,8.08-21,20.93L4.72,41.4a9.23,9.23,0,0,0,0,13.05L25.58,75.3a9.22,9.22,0,0,0,13,0l1.74-1.74a22.38,22.38,0,0,1-2.64-4.21L35.2,71.86a4.37,4.37,0,0,1-6.19,0L8.15,51a4.39,4.39,0,0,1,0-6.19l6.2-6.22L35.3,17.67,43.37,9.6A9.26,9.26,0,0,1,50,6.85h20.1a3.09,3.09,0,0,1,3.06,3.06V30.06a9.29,9.29,0,0,1-2.76,6.62l-1,1.06a22.38,22.38,0,0,1,4.21,2.64l.27-.27A14,14,0,0,0,78,30V9.91A7.91,7.91,0,0,0,70.1,2Z"/>
    <path d="M68.77,19.69a8.41,8.41,0,1,0-8.41,8.41A8.42,8.42,0,0,0,68.77,19.69Zm-12,0a3.56,3.56,0,1,1,3.56,3.55A3.56,3.56,0,0,1,56.8,19.69Z"/>
    <path d="M32.26,27.1l-19.48,19a2.43,2.43,0,0,0,3.39,3.47l19.48-19a2.43,2.43,0,0,0-3.39-3.48Z"/>
    <path d="M70.19,43.73A18.94,18.94,0,1,0,77.93,59,18.89,18.89,0,0,0,70.19,43.73ZM65.5,73.27a4.18,4.18,0,0,1-1.11-8.21c-.06-3.89-3.11-5-5.88-6.06-.6-.23-1.17-.44-1.64-.67a9,9,0,0,1-.87-.4c-.47-.23-1.09-.56-1.77-1v8.39a4.19,4.19,0,1,1-3.49,0V52.67a4.17,4.17,0,1,1,5.38-1.73l-1.57,1.57a2.29,2.29,0,0,1-.31.16l.09.07a16.46,16.46,0,0,0,4,2.42l.31.14c.32.15.69.28,1.09.43,2.91,1.08,8.48,3.15,8.18,9.93a4.18,4.18,0,0,1-2.39,7.61Z"/>
    <path d="M65.5,67a2.07,2.07,0,1,0,2.07,2.07A2.07,2.07,0,0,0,65.5,67Z"/>
    <path d="M52.48,46.6a2.07,2.07,0,1,0,2.07,2.06A2.06,2.06,0,0,0,52.48,46.6Z"/>
    <path d="M52.48,67.07a2.07,2.07,0,1,0,2.07,2.07A2.07,2.07,0,0,0,52.48,67.07Z"/>
  </g>
</svg>
