<svg id="Layer_1" data-name="Layer 1" xmlns="http://www.w3.org/2000/svg" width="80" height="80" viewBox="0 0 80 80">
  <g>
    <path d="M70.1,2H9.9A7.9,7.9,0,0,0,2,9.9V70.09A7.91,7.91,0,0,0,9.9,78H47.37a21.9,21.9,0,0,1-3.78-3.61H9.9a4.3,4.3,0,0,1-4.29-4.3V9.9A4.3,4.3,0,0,1,9.9,5.61H70.1A4.3,4.3,0,0,1,74.39,9.9V43.59A22,22,0,0,1,78,47.38V9.9A7.9,7.9,0,0,0,70.1,2Z"/>
    <path d="M60.39,20.81a5.2,5.2,0,0,0-10.39,0V41.24a21.79,21.79,0,0,1,10.39-2.66Z"/>
    <path d="M45.23,33.51A5.26,5.26,0,0,0,40,28.39a5.18,5.18,0,0,0-5.2,5.19V63.47a1,1,0,0,0,1,1,9.48,9.48,0,0,0,3-.5,21,21,0,0,1-.29-3.48,21.77,21.77,0,0,1,6.66-15.69Z"/>
    <path d="M19.61,47.61V63.47a1,1,0,0,0,1,1A9.41,9.41,0,0,0,30,55.05V47.54a5.2,5.2,0,0,0-10.4.07Z"/>
    <path d="M77.45,56.09a17,17,0,0,0-1.18-3.22c-.26-.54-.55-1.06-.86-1.58s-.66-1-1-1.47h0a18.13,18.13,0,0,0-1.53-1.74,17.47,17.47,0,0,0-12.39-5.13h-.08A17.48,17.48,0,0,0,50,46.41h0a15.76,15.76,0,0,0-1.9,1.64,17,17,0,0,0-2.85,3.75v0a17.32,17.32,0,0,0-2.3,8.67c0,.25,0,.49,0,.72h0a17.43,17.43,0,0,0,5.13,11.69,19.38,19.38,0,0,0,1.73,1.52h0A17.42,17.42,0,0,0,60.46,78h0A17.38,17.38,0,0,0,71,74.51a1.06,1.06,0,0,0,.21-.16l.2-.15.11-.1a.61.61,0,0,0,.14-.1c.42-.35.84-.73,1.24-1.13a19,19,0,0,0,1.34-1.49h0l.45-.57c.28-.39.56-.8.8-1.21a6.88,6.88,0,0,0,.37-.63c.17-.29.31-.58.45-.88a17,17,0,0,0,1.18-3.22c.14-.56.26-1.13.35-1.71a17.92,17.92,0,0,0,0-5.34C77.71,57.22,77.59,56.65,77.45,56.09Zm-11,17.58a3.87,3.87,0,0,1-1-7.6c-.06-3.6-2.89-4.66-5.44-5.61-.39-.14-.76-.28-1.11-.44a3,3,0,0,1-.41-.19,16.21,16.21,0,0,1-2.45-1.27v7.77a3.87,3.87,0,1,1-3.22,0V54.61a3.87,3.87,0,1,1,3.23,0,16,16,0,0,0,3.77,2.3l.32.14c.29.13.62.26,1,.39,2.69,1,7.84,2.91,7.57,9.19a3.87,3.87,0,0,1-2.21,7Z"/>
    <path d="M66.5,67.88a1.92,1.92,0,1,0,1.91,1.92A1.91,1.91,0,0,0,66.5,67.88Z"/>
    <path d="M54.45,49a1.91,1.91,0,1,0,1.92,1.91A1.9,1.9,0,0,0,54.45,49Z"/>
    <path d="M54.45,67.93a1.92,1.92,0,0,0,0,3.83,1.92,1.92,0,1,0,0-3.83Z"/>
  </g>
</svg>
