<svg id="Layer_1" data-name="Layer 1" xmlns="http://www.w3.org/2000/svg" width="80" height="80" viewBox="0 0 80 80">
  <g>
    <path d="M64.17,12.5H15.83a3.34,3.34,0,0,0-3.33,3.34V64.17a3.34,3.34,0,0,0,3.33,3.33H64.17a3.34,3.34,0,0,0,3.33-3.33V15.84A3.34,3.34,0,0,0,64.17,12.5ZM32.07,51.93a7.44,7.44,0,0,1-7.45,7.45.8.8,0,0,1-.78-.78V46A4.12,4.12,0,0,1,32.07,46Zm12.08,0a7.46,7.46,0,0,1-7.46,7.45.8.8,0,0,1-.78-.78V34.91A4.1,4.1,0,0,1,40,30.8a4.17,4.17,0,0,1,4.12,4.06Zm12-.06a7.46,7.46,0,0,1-7.46,7.46.8.8,0,0,1-.77-.78V24.79a4.12,4.12,0,0,1,8.23,0Z"/>
    <path d="M72,4a4,4,0,0,1,4,4V72a4,4,0,0,1-4,4H8a4,4,0,0,1-4-4V8A4,4,0,0,1,8,4H72m0-4H8A8,8,0,0,0,0,8V72a8,8,0,0,0,8,8H72a8,8,0,0,0,8-8V8a8,8,0,0,0-8-8Z"/>
  </g>
</svg>
