<svg id="Layer_1" data-name="Layer 1" xmlns="http://www.w3.org/2000/svg" width="80" height="80" viewBox="0 0 80 80">
  <defs>
    <style>
      .cls-1 {
        fill-rule: evenodd;
      }
    </style>
  </defs>
  <g>
    <g id="Icon">
      <path class="cls-1" d="M29.4,46.93l-1.85-1.06-5,8.55a21.52,21.52,0,0,1-1.9-21.86l.06-.05c.21-.48.47-.9.68-1.32A21.35,21.35,0,0,1,37.69,20.63a29.62,29.62,0,0,1,3.85-4.28A25.59,25.59,0,0,0,24.27,62.08l5-14.73c.05-.11.11-.27.16-.42M59.61,33.25a21.51,21.51,0,0,1-1.06,19.38c-.21.42-.48.84-.74,1.27l-.05.05a21.47,21.47,0,0,1-19.91,9.29l5-8.55L41,53.63l-.31.32L30.4,65.62a25.59,25.59,0,0,0,31-37.81,28.25,28.25,0,0,1-1.74,5.44"/>
      <path class="cls-1" d="M42.44,46.61a7.88,7.88,0,0,1-5.7,2.85,1.69,1.69,0,0,1-1.64-1,7.63,7.63,0,0,1-.37-6.34l-10.35-6a1.6,1.6,0,0,1-.79-1.85,1.58,1.58,0,0,1,1.53-1.27l10.51-.37a28.81,28.81,0,0,1,4-9.14A26.49,26.49,0,0,1,52,13.76a32.33,32.33,0,0,1,3.64-1.21,1.66,1.66,0,0,1,2,1.16,29.12,29.12,0,0,1,.84,3.75,27.41,27.41,0,0,1-2.37,15.63,28.88,28.88,0,0,1-5.92,8l4.91,9.24a1.64,1.64,0,0,1-2.27,2.22l-10.35-6Zm7.82-22.13a3.33,3.33,0,1,1-4.54,1.22,3.36,3.36,0,0,1,4.54-1.22"/>
      <path class="cls-1" d="M27,64.51,38.16,51.78l-1.26.16a4.11,4.11,0,0,1-4-2.37,6.91,6.91,0,0,1-.52-1.17L27,64.51Z"/>
    </g>
    <path d="M72,4a4,4,0,0,1,4,4V72a4,4,0,0,1-4,4H8a4,4,0,0,1-4-4V8A4,4,0,0,1,8,4H72m0-4H8A8,8,0,0,0,0,8V72a8,8,0,0,0,8,8H72a8,8,0,0,0,8-8V8a8,8,0,0,0-8-8Z"/>
  </g>
</svg>
