<svg id="Layer_1" data-name="Layer 1" xmlns="http://www.w3.org/2000/svg" width="80" height="80" viewBox="0 0 80 80">
  <g>
    <path d="M42.35,57.53A22.81,22.81,0,0,1,27,61.48l5.3-9.13-2-1.13-.33.35L19.06,64a27.19,27.19,0,0,0,23.38-1.37,16.07,16.07,0,0,1-.25-2.88A15,15,0,0,1,42.35,57.53Z"/>
    <path d="M18,44.07l-2-1.13-5.3,9.13a22.94,22.94,0,0,1-2-23.33l.06-.06c.22-.51.51-1,.73-1.41A22.84,22.84,0,0,1,26.84,16,31.44,31.44,0,0,1,31,11.43,27.32,27.32,0,0,0,12.53,60.25l5.3-15.73C17.88,44.4,17.94,44.23,18,44.07Z"/>
    <path d="M26,49.42a4.36,4.36,0,0,1-4.28-2.53,8.25,8.25,0,0,1-.57-1.24L15.4,62.84l12-13.59Z"/>
    <path d="M71.74,21.17a21.4,21.4,0,0,0-22.47-5,31.14,31.14,0,0,0-.27-3.6,31.33,31.33,0,0,0-.9-4A1.77,1.77,0,0,0,46,7.36a34.14,34.14,0,0,0-3.89,1.3A28.19,28.19,0,0,0,28.93,19.15a30.46,30.46,0,0,0-4.28,9.75l-11.22.4a1.78,1.78,0,0,0-.79,3.32L23.69,39a8.12,8.12,0,0,0,.4,6.76,1.78,1.78,0,0,0,1.74,1,8.43,8.43,0,0,0,6.09-3.05l6.5,3.75a21.35,21.35,0,0,0,3.09,3.92,20.9,20.9,0,0,0,2.08,1.81A7.62,7.62,0,0,1,44,52.3a19.94,19.94,0,0,1-1.82-1.61,19.58,19.58,0,0,1-1.79-2.06A20.38,20.38,0,0,1,38.64,26.7a20.87,20.87,0,0,1,3.24-4.49c.12-.11.22-.23.33-.34A20.38,20.38,0,0,1,71.38,50.33a9.64,9.64,0,0,1,.58.84,21.37,21.37,0,0,0-.22-30ZM37.57,26.59a4,4,0,0,1-.86-.34,3.55,3.55,0,1,1,4.72-5A21.42,21.42,0,0,0,37.57,26.59Z"/>
    <path d="M64.14,44.74a16.39,16.39,0,0,1,5,3.08.52.52,0,0,0,.06-.13l2.63-6.11a5.84,5.84,0,0,0-5.06-8.76H65a5.81,5.81,0,0,0-1.74.27A8.33,8.33,0,0,1,64.79,35a8.12,8.12,0,0,1,0,8.13Z"/>
    <path d="M45.84,49.55a16.21,16.21,0,0,1,3.88-3.41l-1.29-3a8.09,8.09,0,0,1,0-8.13A8.61,8.61,0,0,1,50,33.09a5.81,5.81,0,0,0-1.74-.27H46.48a5.73,5.73,0,0,0-2.43.53,5.81,5.81,0,0,0-3.21,3.82,5,5,0,0,0-.21,1.59,5.82,5.82,0,0,0,.79,2.82L44,47.69a3.55,3.55,0,0,0,1.41,1.65A2.15,2.15,0,0,0,45.84,49.55Z"/>
    <path d="M51.55,33.44c-.09.07-.19.13-.28.21l-.22.19a5.11,5.11,0,0,0-.48.45l-.22.24A7.26,7.26,0,0,0,49,36.82a6.68,6.68,0,0,0-.21.73,6.58,6.58,0,0,0-.17,1.18c0,.13,0,.26,0,.39a6.78,6.78,0,0,0,1,3.47l1.25,2.92a2.49,2.49,0,0,1,.4-.2,15.27,15.27,0,0,1,4.94-1.51,14,14,0,0,1,2.17-.16,15.7,15.7,0,0,1,4.62.69l.75-1.74a6.86,6.86,0,0,0,.94-3.46c0-.13,0-.27,0-.4a2.55,2.55,0,0,0,0-.39c0-.12,0-.24-.06-.37s0-.27-.08-.41a2.46,2.46,0,0,1-.07-.29,6.69,6.69,0,0,0-.71-1.65,2.29,2.29,0,0,0-.18-.29,5.08,5.08,0,0,0-.38-.53l-.28-.35-.27-.27a5.78,5.78,0,0,0-.59-.52,6.58,6.58,0,0,0-.72-.51,3.58,3.58,0,0,0-.39-.21l-.39-.19-.52-.2-.29-.1-.18-.05-.8-.16h0l-.44,0H55l-.43,0h0c-.27,0-.55.1-.81.16a7,7,0,0,0-1.3.5l-.3.16-.29.17Z"/>
    <path d="M54.78,31a3.28,3.28,0,0,0,.81.3,3.53,3.53,0,0,0,1,.15A4,4,0,0,0,58.46,31a5.78,5.78,0,0,0,2.84-5.2c0-3.11-2.09-5.64-4.67-5.64a4.79,4.79,0,0,0-4.39,3.73A6.31,6.31,0,0,0,52,25.76,5.79,5.79,0,0,0,54.78,31Z"/>
    <path d="M50.73,25a4.12,4.12,0,0,0-2.1-2,3.2,3.2,0,0,0-1.27-.25c-2.16,0-3.92,2.11-3.92,4.74a5,5,0,0,0,1.85,4,3.39,3.39,0,0,0,2.07.73,3.78,3.78,0,0,0,3.19-2,5.51,5.51,0,0,0,.75-2.79,4.63,4.63,0,0,0,0-.65h0A5.41,5.41,0,0,0,50.73,25Z"/>
    <path d="M65.88,22.69A3.83,3.83,0,0,0,62.52,25,5.43,5.43,0,0,0,62,27.43a5.1,5.1,0,0,0,.11,1.11,4.16,4.16,0,0,0,3.82,3.64c2.17,0,3.93-2.12,3.93-4.75S68.05,22.69,65.88,22.69Z"/>
    <path d="M71.11,58.05c0-.29-.08-.57-.14-.85,0,0,0,0,0-.05s0,0,0,0a1.14,1.14,0,0,0-.06-.25h0a.25.25,0,0,1,0-.08c0-.13-.06-.25-.1-.38s-.16-.53-.25-.8-.19-.52-.29-.77-.22-.51-.34-.76l-.39-.72c-.08-.14-.17-.29-.26-.42a3,3,0,0,0-.27-.42,5.48,5.48,0,0,0-.35-.49c-.12-.16-.24-.31-.38-.47a9.71,9.71,0,0,0-.8-.9,9.82,9.82,0,0,0-.9-.81h0v0a13,13,0,0,0-3.65-2.12l-.6-.21-.61-.17-.18,0-.09,0-.48-.11h-.08a3.33,3.33,0,0,0-.55-.1l-.16,0a.93.93,0,0,0-.24,0,5,5,0,0,0-.54-.06,2.47,2.47,0,0,0-.39,0c-.21,0-.43,0-.64,0l-.67,0-.46,0H57l-.22,0h-.06a.41.41,0,0,0-.16,0l-.39.05a2.09,2.09,0,0,0-.36.07l-.3.06-.29.06-.84.23c-.27.09-.54.18-.81.29A6.07,6.07,0,0,0,53,48c-.32.15-.63.3-1,.47l0,0,0,0-.12.06h0c-.27.15-.53.32-.77.48h0a8.35,8.35,0,0,0-.74.55c-.12.08-.23.17-.34.26l-.33.29-.05,0c-.22.21-.44.42-.65.64s-.21.23-.32.35l-.31.36,0,0a8.33,8.33,0,0,0-.5.67l0,.05a.37.37,0,0,0-.07.12,2.71,2.71,0,0,0-.24.35c-.1.14-.18.29-.27.43a8.68,8.68,0,0,0-.46.85v0a.89.89,0,0,0-.08.17c-.08.16-.16.33-.23.5s-.06.17-.1.25a.06.06,0,0,0,0,0,4.15,4.15,0,0,0-.2.53c-.11.32-.21.64-.3,1s-.09.38-.13.58c0,0,0,.06,0,.09,0,.2-.07.4-.1.6s-.06.38-.08.57,0,.13,0,.2a4.58,4.58,0,0,0,0,.53c0,.22,0,.44,0,.66s0,.65,0,1c0,.16,0,.31,0,.45s0,.32.07.48.07.48.12.71.07.32.11.47a1,1,0,0,1,0,.15c.07.26.15.51.22.75s.14.38.2.57c.15.38.32.76.49,1.13,0,.07.06.13.1.19s.12.22.17.33.18.33.29.5c.2.33.43.67.66,1l.36.47.39.45c.07.08.14.14.2.22l.2.21.43.42.44.39.44.36.42.31.09.07,0,0,.44.28.26.16.25.15.53.29.53.26.55.23c.19.08.38.16.57.22s.38.13.57.18l.45.13.62.14c.21,0,.43.08.64.11s.43.07.65.09l.51,0,.81,0,.84,0,.27,0a7.42,7.42,0,0,0,.79-.1l.12,0c.18,0,.36,0,.53-.09l.18,0a1.9,1.9,0,0,0,.36-.09.76.76,0,0,0,.16,0,5.72,5.72,0,0,0,.59-.17,10.44,10.44,0,0,0,1.18-.43,13,13,0,0,0,4.11-2.77l.42-.44c.28-.31.54-.62.79-.95A6,6,0,0,0,69,67c.17-.25.34-.52.5-.78s.3-.56.43-.83h0a7.4,7.4,0,0,0,.38-.87,9.76,9.76,0,0,0,.56-1.81,12.28,12.28,0,0,0,.35-2.92,8.31,8.31,0,0,0,0-.87C71.18,58.62,71.15,58.33,71.11,58.05ZM62.75,69.49A2.84,2.84,0,0,1,62,63.9c0-2.65-2.13-3.43-4-4.14-.4-.15-.78-.29-1.11-.45a13,13,0,0,1-1.8-.94v5.72a2.86,2.86,0,1,1-2.37,0V55.45A2.85,2.85,0,0,1,51,52.87a2.84,2.84,0,0,1,1.83-2.65,2.51,2.51,0,0,1,1-.2,1.23,1.23,0,0,1,.27,0,2.82,2.82,0,0,1,2.54,2.4,2,2,0,0,1,0,.43,2.82,2.82,0,0,1-1.65,2.58,10,10,0,0,0,1.76,1.2h0a9,9,0,0,0,1,.5c.28.13.6.25,1,.38h0c2,.73,5.75,2.16,5.55,6.77a2.85,2.85,0,0,1-1.64,5.18Z"/>
    <path d="M62.75,65.24a1.39,1.39,0,0,0-1.4,1.4,1.41,1.41,0,0,0,1.4,1.42,1.43,1.43,0,0,0,1.42-1.42A1.41,1.41,0,0,0,62.75,65.24Z"/>
    <path d="M55.19,52.19a1.43,1.43,0,0,0-1.31-.88.41.41,0,0,0-.16,0,.54.54,0,0,0-.22,0,1.41,1.41,0,0,0-1,1.35,1.34,1.34,0,0,0,.05.35,1.38,1.38,0,0,0,1.36,1.06,1.42,1.42,0,0,0,1.42-1.41A1.32,1.32,0,0,0,55.19,52.19Z"/>
    <path d="M53.88,65.27a1.41,1.41,0,1,0,1.42,1.41A1.41,1.41,0,0,0,53.88,65.27Z"/>
  </g>
</svg>
