<svg id="Layer_1" data-name="Layer 1" xmlns="http://www.w3.org/2000/svg" width="80" height="80" viewBox="0 0 80 80">
  <g>
    <path d="M38.74,63c-.28,0-.57,0-.86-.07l.74-1.26c0-.42,0-.84,0-1.25a21.23,21.23,0,0,1,.58-4.95l-8.61,9.81a24.74,24.74,0,0,0,9.09,1.83A20.59,20.59,0,0,1,38.74,63Z"/>
    <path d="M21,32.63c.21-.47.46-.89.67-1.31a21.06,21.06,0,0,1,16-10.39,29.27,29.27,0,0,1,3.8-4.21,25.2,25.2,0,0,0-17,45l4.88-14.5a3,3,0,0,0,.17-.42l-1.83-1-4.88,8.43A21.17,21.17,0,0,1,21,32.68Z"/>
    <path d="M65,39.1A25.25,25.25,0,0,0,61,28a29.88,29.88,0,0,1-1.72,5.36,20.67,20.67,0,0,1,1.52,5.24A21.65,21.65,0,0,1,65,39.1Z"/>
    <path d="M42.4,46.5l.8.47A22.16,22.16,0,0,1,50,41.19l0-.09a28,28,0,0,0,5.82-7.9,27,27,0,0,0,2.35-15.39,30,30,0,0,0-.84-3.69,1.62,1.62,0,0,0-2-1.14,33.51,33.51,0,0,0-3.59,1.19,26,26,0,0,0-12.11,9.67,28.07,28.07,0,0,0-3.95,9l-10.35.36a1.53,1.53,0,0,0-1.5,1.24,1.58,1.58,0,0,0,.77,1.83l10.19,5.88a7.5,7.5,0,0,0,.37,6.23,1.65,1.65,0,0,0,1.61.94A7.73,7.73,0,0,0,42.4,46.5Zm3.22-20.58a3.28,3.28,0,1,1,1.2,4.47A3.3,3.3,0,0,1,45.62,25.92Z"/>
    <path d="M36.94,51.76A4.05,4.05,0,0,1,33,49.42a8,8,0,0,1-.52-1.15l-5.3,15.86,11-12.53Z"/>
    <path d="M69.94,2.19H10.06a7.88,7.88,0,0,0-7.87,7.87V69.94a7.87,7.87,0,0,0,7.87,7.87H47.33a21.77,21.77,0,0,1-3.77-3.6H10.06a4.27,4.27,0,0,1-4.27-4.27V10.06a4.27,4.27,0,0,1,4.27-4.27H69.94a4.27,4.27,0,0,1,4.27,4.27V43.57a22.13,22.13,0,0,1,3.6,3.77V10.06A7.88,7.88,0,0,0,69.94,2.19Z"/>
    <path d="M77.66,58.16a13.32,13.32,0,0,0-.23-1.43c-.07-.29-.13-.59-.21-.87a13.75,13.75,0,0,0-.55-1.68c-.1-.28-.21-.55-.33-.82a13.32,13.32,0,0,0-.61-1.26c-.23-.41-.47-.81-.71-1.19h0c-.26-.39-.52-.77-.81-1.13h0a17.38,17.38,0,0,0-9.08-6.17A17,17,0,0,0,61.05,43c-.23,0-.46,0-.68,0A17.29,17.29,0,0,0,52.08,45a17,17,0,0,0-4,2.92c-.2.19-.39.39-.58.59l-.54.62a17.37,17.37,0,0,0-3.91,13.61h0a17,17,0,0,0,1,4h0a17.58,17.58,0,0,1-.63-1.94,17.58,17.58,0,0,0,.63,1.94A17.51,17.51,0,0,0,60.37,77.81c.44,0,.88,0,1.31-.06l.46,0c.33,0,.65-.07,1-.12l.77-.14.84-.19.4-.12c.42-.11.83-.24,1.24-.39l.79-.31.77-.35.76-.39a17,17,0,0,0,1.8-1.14l.31-.22.4-.31h0A18.28,18.28,0,0,0,74,71.22h0l.15-.2c.19-.24.36-.47.53-.72l.31-.46c.13-.2.25-.4.37-.6s.2-.36.31-.54l.36-.71a.21.21,0,0,0,0-.1c.12-.23.23-.48.34-.73s.17-.41.24-.62.13-.35.19-.52.21-.62.29-.94c0-.12.07-.23.1-.35s.13-.55.19-.84.1-.51.14-.77a17.67,17.67,0,0,0,.22-2.74c0-.25,0-.5,0-.75A14.14,14.14,0,0,0,77.66,58.16ZM66.36,73.5a3.85,3.85,0,0,1-1-7.57c-.06-3.58-2.87-4.63-5.42-5.57-.55-.21-1.07-.41-1.51-.63a3.22,3.22,0,0,1-.46-.2,19.23,19.23,0,0,1-2-1.06V66.2a3.85,3.85,0,1,1-3.2,0V54.54a3.83,3.83,0,0,1-2.24-3.34.86.86,0,0,1,0-.16,3.85,3.85,0,0,1,2.79-3.69,3.72,3.72,0,0,1,1.06-.15A3.85,3.85,0,0,1,56,54.54c.18.16.37.31.56.45a17.33,17.33,0,0,0,3.18,1.84,3.2,3.2,0,0,0,.39.16c.28.13.58.24.91.36,2.67,1,7.81,2.89,7.53,9.14a3.85,3.85,0,0,1-2.2,7Z"/>
    <path d="M66.36,67.74a1.91,1.91,0,1,0,1.9,1.91A1.9,1.9,0,0,0,66.36,67.74Z"/>
    <path d="M54.38,48.94h-.21a1.91,1.91,0,0,0-.53,3.65,2,2,0,0,0,.74.15,1.91,1.91,0,0,0,0-3.81Z"/>
    <path d="M54.38,67.79a1.91,1.91,0,1,0,1.9,1.9A1.9,1.9,0,0,0,54.38,67.79Z"/>
  </g>
</svg>
