<svg xmlns="http://www.w3.org/2000/svg" viewBox="0 0 71.54 59.39"><title>Link Clicked</title><g id="Layer_2" data-name="Layer 2"><g id="Layer_1-2" data-name="Layer 1"><path d="M66.19,44,43.67,21.44a1.12,1.12,0,0,0-1.59,0,1.14,1.14,0,0,0-.33.8V53.42a1.13,1.13,0,0,0,1.13,1.13,1.15,1.15,0,0,0,.69-.24l5.72-4.47,5,9a1.09,1.09,0,0,0,1,.57,1.26,1.26,0,0,0,.51-.11l6.75-3.38a1.1,1.1,0,0,0,.57-.68,1.09,1.09,0,0,0-.09-.88l-4.7-8.46h7.1a1.12,1.12,0,0,0,1.12-1.12,1.14,1.14,0,0,0-.33-.8Z"/><path d="M42.88,14.36a1.13,1.13,0,0,1-1.13-1.13V6.47a1.13,1.13,0,0,1,2.25,0v6.76A1.13,1.13,0,0,1,42.88,14.36Z"/><path d="M33.87,23.36H27.11a1.13,1.13,0,0,1,0-2.25h6.76a1.13,1.13,0,0,1,0,2.25Z"/><path d="M58.64,23.36H51.88a1.13,1.13,0,0,1,0-2.25h6.76a1.13,1.13,0,1,1,0,2.25Z"/><path d="M36.51,17a1.09,1.09,0,0,1-.8-.33l-4.77-4.78a1.13,1.13,0,0,1,1.58-1.58l4.78,4.77A1.13,1.13,0,0,1,36.51,17Z"/><path d="M31.73,34.51a1.12,1.12,0,0,1-.79-1.91l4.77-4.79a1.12,1.12,0,0,1,1.62,1.56l0,0-4.78,4.77A1.17,1.17,0,0,1,31.73,34.51Z"/><path d="M49.24,17a1.12,1.12,0,0,1-1.12-1.12,1.09,1.09,0,0,1,.33-.8l4.78-4.77a1.13,1.13,0,0,1,1.58,1.58L50,16.66A1.14,1.14,0,0,1,49.24,17Z"/><path d="M66.68,0H4.86A4.87,4.87,0,0,0,0,4.86V23.09a4.86,4.86,0,0,0,4.86,4.85H34.53a2.16,2.16,0,0,1,4.17,0h1.56V24.58H4.86a1.5,1.5,0,0,1-1.5-1.49V4.86a1.5,1.5,0,0,1,1.5-1.5H66.68a1.5,1.5,0,0,1,1.5,1.5V23.09a1.5,1.5,0,0,1-1.5,1.49H49.35l3.36,3.36h14a4.86,4.86,0,0,0,4.86-4.85V4.86A4.87,4.87,0,0,0,66.68,0Z"/></g></g></svg>