<svg xmlns="http://www.w3.org/2000/svg" viewBox="0 0 71.54 65.39"><title>List Applied</title><g id="Layer_2" data-name="Layer 2"><g id="Layer_1-2" data-name="Layer 1"><path d="M52.87,38V1.92A1.91,1.91,0,0,0,51,0H6A1.91,1.91,0,0,0,4.09,1.92v8.43H1.92a1.92,1.92,0,1,0,0,3.83H4.09v6.38H1.92a1.92,1.92,0,1,0,0,3.83H4.09v6.39H1.92a1.92,1.92,0,1,0,0,3.83H4.09V41H1.92a1.92,1.92,0,1,0,0,3.83H4.09v6.38H1.92a1.92,1.92,0,0,0,0,3.84H4.09v8.43A1.91,1.91,0,0,0,6,65.39H51a1.91,1.91,0,0,0,1.91-1.91V47.16a3.94,3.94,0,0,1-.76.32l-.23.21q-.54.45-1.08.84a2.55,2.55,0,0,1,.28,1,2.24,2.24,0,0,1-2,2.2v9.8H7.92V55.05h2.17a1.92,1.92,0,1,0,0-3.84H7.92V44.83h2.17a1.92,1.92,0,1,0,0-3.83H7.92V34.61h2.17a1.92,1.92,0,1,0,0-3.83H7.92V24.39h2.17a1.92,1.92,0,1,0,0-3.83H7.92V14.18h2.17a1.92,1.92,0,1,0,0-3.83H7.92V3.83H49V41.25a2.27,2.27,0,0,1,1.18-.36h0a3.91,3.91,0,0,1,.46-.71A29.89,29.89,0,0,1,52.87,38Z"/><path d="M16.35,46a1.92,1.92,0,0,0,3.83,0c0-5.09,3.1-10.35,8.3-10.35s8.3,5.26,8.3,10.35a1.92,1.92,0,0,0,3.83,0c0-4.87-2.22-9.91-6.29-12.49a9.07,9.07,0,1,0-11.68,0C18.57,36.07,16.35,41.11,16.35,46Zm6.89-19.42a5.24,5.24,0,1,1,5.24,5.24A5.24,5.24,0,0,1,23.24,26.56Z"/><path d="M51.77,21.56A19.77,19.77,0,1,0,71.54,41.33,19.77,19.77,0,0,0,51.77,21.56ZM61.92,36.63,49.29,49.27a1.11,1.11,0,0,1-.77.31,1.09,1.09,0,0,1-.77-.31l-6.13-6.13a1.64,1.64,0,0,1,0-2.3l.77-.77a1.62,1.62,0,0,1,2.3,0l3.83,3.82L58.85,33.56a1.63,1.63,0,0,1,2.31,0l.76.76A1.63,1.63,0,0,1,61.92,36.63Z"/></g></g></svg>