<svg xmlns="http://www.w3.org/2000/svg" viewBox="0 0 71.54 66.53"><title>Remove From List</title><g id="Layer_2" data-name="Layer 2"><g id="Layer_1-2" data-name="Layer 1"><path d="M52.79,48.52a12.14,12.14,0,0,1-1.11.85A2.53,2.53,0,0,1,52,50.42a2.27,2.27,0,0,1-2.07,2.24v10H8.06V56h2.21a2,2,0,1,0,0-3.9H8.06v-6.5h2.21a1.95,1.95,0,1,0,0-3.9H8.06V35.22h2.21a1.95,1.95,0,0,0,0-3.9H8.06v-6.5h2.21a1.95,1.95,0,1,0,0-3.9H8.06v-6.5h2.21a1.95,1.95,0,1,0,0-3.89H8.06V3.9H49.9V38c1.3,0,2.6,0,3.9,0V2A2,2,0,0,0,51.85,0H6.11A2,2,0,0,0,4.16,2v8.58H2a1.95,1.95,0,1,0,0,3.89H4.16v6.5H2a1.95,1.95,0,0,0,0,3.9H4.16v6.5H2a1.95,1.95,0,0,0,0,3.9H4.16v6.49H2a1.95,1.95,0,0,0,0,3.9H4.16v6.5H2A2,2,0,0,0,2,56H4.16v8.57a2,2,0,0,0,2,2H51.85a2,2,0,0,0,1.95-2V48a3.8,3.8,0,0,1-.78.33Z"/><path d="M16.63,46.78a2,2,0,0,0,3.9,0c0-5.17,3.16-10.52,8.45-10.52s8.45,5.35,8.45,10.52a1.95,1.95,0,1,0,3.89,0c0-5-2.26-10.08-6.4-12.7a9.23,9.23,0,1,0-11.89,0C18.89,36.7,16.63,41.83,16.63,46.78Zm7-19.75A5.33,5.33,0,1,1,29,32.36,5.33,5.33,0,0,1,23.65,27Z"/><path d="M71.54,42a19,19,0,1,0-19,19A19,19,0,0,0,71.54,42Zm-9.65,2.47H43.67a2.65,2.65,0,1,1,0-5.29H61.89a2.65,2.65,0,0,1,0,5.29Z"/></g></g></svg>