<svg xmlns="http://www.w3.org/2000/svg" viewBox="0 0 100 96.89"><title>Remove From List</title><g id="Layer_2" data-name="Layer 2"><g id="Layer_1-2" data-name="Layer 1"><path d="M61.94,58.82a3.61,3.61,0,0,1-3.36-2.29H15a2.31,2.31,0,0,0,0,4.61H62.28a2.3,2.3,0,0,0,2.31-2.31H61.94Z"/><path d="M62.28,38.07H16a2.31,2.31,0,1,0,0,4.61H62.28a2.31,2.31,0,1,0,0-4.61Z"/><path d="M62.28,75H15a2.31,2.31,0,0,0,0,4.61H62.28a2.31,2.31,0,1,0,0-4.61Z"/><path d="M74.05,72.51a17.76,17.76,0,0,1-2.54-.19V88.13h0c0,2.54-2.54,4.15-5.07,4.15H9.69c-2.54,0-5.08-1.61-5.08-4.15V22a5.2,5.2,0,0,1,5.08-4.73h8.76v5.88A2.43,2.43,0,0,0,21,25.38H55a2.53,2.53,0,0,0,2.65-2.19V17.31h8.77A5.19,5.19,0,0,1,71.51,22v16.5a16.42,16.42,0,0,1,2.54-.19,17.87,17.87,0,0,1,2.08.13V22a9.82,9.82,0,0,0-9.69-9.35H57.67V8.77c0-1.27-1.38-1.84-2.65-1.84H48.21C46.6,2.31,42.56,0,38,0A10.49,10.49,0,0,0,27.68,6.93H21c-1.27,0-2.54.57-2.54,1.84v3.92H9.69A9.81,9.81,0,0,0,0,22V88.13c0,5.07,4.61,8.76,9.69,8.76H66.44c5.07,0,9.69-3.69,9.69-8.76V72.38A17.87,17.87,0,0,1,74.05,72.51Zm-51-61h6.34A2.53,2.53,0,0,0,31.6,9.47,6.7,6.7,0,0,1,38,4.28a6.58,6.58,0,0,1,6.23,5.19,2.52,2.52,0,0,0,2.3,2.07h6.58v9.23h-30Z"/><path d="M74.05,29.5a26,26,0,1,0,26,26A26,26,0,0,0,74.05,29.5ZM86.82,58.82H61.94a3.61,3.61,0,0,1,0-7.22H86.82a3.61,3.61,0,1,1,0,7.22Z"/></g></g></svg>