<svg xmlns="http://www.w3.org/2000/svg" viewBox="0 0 77.76 75.35"><title>List removed</title><g id="Layer_2" data-name="Layer 2"><g id="Layer_1-2" data-name="Layer 1"><path d="M48.17,45.74A2.8,2.8,0,0,1,45.56,44H11.66a1.79,1.79,0,0,0,0,3.58H48.43a1.8,1.8,0,0,0,1.8-1.79H48.17Z"/><path d="M48.43,29.6h-36a1.8,1.8,0,1,0,0,3.59h36a1.8,1.8,0,1,0,0-3.59Z"/><path d="M48.43,58.31H11.66a1.79,1.79,0,0,0,0,3.58H48.43a1.79,1.79,0,1,0,0-3.58Z"/><path d="M57.58,56.38a14.16,14.16,0,0,1-2-.14V68.53h0c0,2-2,3.23-4,3.23H7.53c-2,0-3.94-1.26-3.94-3.23V17.14a4,4,0,0,1,3.94-3.68h6.82V18a1.89,1.89,0,0,0,2,1.71H42.78A2,2,0,0,0,44.85,18V13.46h6.81a4,4,0,0,1,4,3.68V30a12.78,12.78,0,0,1,2-.15,14.38,14.38,0,0,1,1.62.1V17.14a7.63,7.63,0,0,0-7.54-7.27H44.85v-3c0-1-1.08-1.43-2.07-1.43H37.49a8,8,0,0,0-8-5.38,8.14,8.14,0,0,0-8,5.38H16.32c-1,0-2,.45-2,1.43v3H7.53A7.63,7.63,0,0,0,0,17.14V68.53c0,4,3.59,6.82,7.53,6.82H51.66c4,0,7.54-2.87,7.54-6.82V56.28A12.36,12.36,0,0,1,57.58,56.38ZM17.94,9h4.93a2,2,0,0,0,1.71-1.62,5.22,5.22,0,0,1,4.93-4,5.12,5.12,0,0,1,4.84,4A2,2,0,0,0,36.15,9h5.11v7.17H17.94Z"/><path d="M57.58,22.94A20.18,20.18,0,1,0,77.76,43.12,20.18,20.18,0,0,0,57.58,22.94Zm9.94,22.8H48.17a2.81,2.81,0,1,1,0-5.61H67.52a2.81,2.81,0,0,1,0,5.61Z"/></g></g></svg>