<svg xmlns="http://www.w3.org/2000/svg" viewBox="0 0 71.54 62.28"><title>Order ReceivedIn WooCommerce</title><g id="Layer_2" data-name="Layer 2"><g id="Layer_1-2" data-name="Layer 1"><path d="M70.09,42H68.67L63.3,36.63a1.45,1.45,0,0,0-1-.42H55V1.45A1.45,1.45,0,0,0,53.59,0H1.45A1.45,1.45,0,0,0,0,1.45V53.59A1.45,1.45,0,0,0,1.45,55H26.07v5.79a1.45,1.45,0,0,0,1.45,1.45H59.38a1.46,1.46,0,0,0,1-.43l5.37-5.37h4.32A1.44,1.44,0,0,0,71.54,55V43.45A1.45,1.45,0,0,0,70.09,42Zm-42-34.65a1.45,1.45,0,0,0-1.58.32l-6.21,6.21V2.9H34.76v13H29V8.69A1.46,1.46,0,0,0,28.07,7.35ZM2.9,52.14V2.9H17.38V17.38a1.45,1.45,0,0,0,.89,1.34,1.55,1.55,0,0,0,.56.11,1.41,1.41,0,0,0,1-.43l6.22-6.21v5.19a1.45,1.45,0,0,0,1.45,1.45h8.69a1.45,1.45,0,0,0,1.45-1.45V2.9H52.14V36.21h-13a1.44,1.44,0,0,0-1.44,1.45V44.9a1.44,1.44,0,0,0,1.44,1.45H51.54l-5.79,5.79Zm65.74,1.45H65.17a1.45,1.45,0,0,0-1,.42l-5.37,5.37H29V55H46.35a1.46,1.46,0,0,0,1-.43l8.69-8.69a1.45,1.45,0,0,0-1-2.47H40.55V39.1H61.68l5.37,5.37a1.46,1.46,0,0,0,1,.43h.57Z"/><path d="M30.82,30.84a1,1,0,0,0-.24,0,1.91,1.91,0,0,0-1.29.7c-1.36,1.5-1.17,3.81-.58,5.33.29.75.61,1.13.79,1.11A2.84,2.84,0,0,0,31,36.75a6.45,6.45,0,0,0,1.16-2.46C32.37,33,32.34,31.27,30.82,30.84Z"/><path d="M41.35,30.84a.93.93,0,0,0-.24,0,1.89,1.89,0,0,0-1.28.7c-1.37,1.5-1.17,3.81-.59,5.33.29.75.62,1.13.79,1.11a2.84,2.84,0,0,0,1.47-1.2,6.31,6.31,0,0,0,1.16-2.46C42.9,33,42.87,31.27,41.35,30.84Z"/><path d="M40.53,44.4A5.88,5.88,0,0,1,40,42.16a4.44,4.44,0,0,1,.16-1.37H40c-1,0-2.47-.45-3.42-2.94a7.88,7.88,0,0,1,1.14-8.24,4.35,4.35,0,0,1,4.38-1.5,4.86,4.86,0,0,1,1.74.89A4.56,4.56,0,0,1,45,30.51a6.88,6.88,0,0,1,.41,4.28,8,8,0,0,1-.73,2.12,4.53,4.53,0,0,1,.52,0,5.13,5.13,0,0,1,2.57.68V27.89A3.86,3.86,0,0,0,44,24H10.34a3.85,3.85,0,0,0-3.85,3.86V40.54a3.85,3.85,0,0,0,3.85,3.86h16l7.08,4.12L32,44.4Zm-18-2.19A1.44,1.44,0,0,1,21,41.89a16.86,16.86,0,0,1-3.44-6.51c0-.13-.09-.26-.13-.39a68.32,68.32,0,0,1-3.79,6.89,1.43,1.43,0,0,1-1.15.59h0a1.38,1.38,0,0,1-1.16-.62c-.41-.6-1-2-2-7.46-.55-2.93-1-5.69-1-5.72a1.42,1.42,0,0,1,2.81-.41s.41,2.72.94,5.59c.31,1.65.57,2.89.79,3.81,1.34-2.47,3-5.78,3.69-7.28a1.42,1.42,0,0,1,2.67.33,35.72,35.72,0,0,0,1.7,5.58c.32-3,.94-6.85,2.12-9.26a1.42,1.42,0,1,1,2.54,1.25c-1.87,3.83-2.15,12.56-2.15,12.65A1.41,1.41,0,0,1,22.54,42.21Zm6.94-1.42c-1,0-2.47-.45-3.42-2.94a7.86,7.86,0,0,1,1.14-8.24,4.35,4.35,0,0,1,4.38-1.5,4.54,4.54,0,0,1,2.93,2.4,6.88,6.88,0,0,1,.41,4.28c-.41,2.34-2.58,5.74-5.15,6Z"/></g></g></svg>