<svg xmlns="http://www.w3.org/2000/svg" viewBox="0 0 71.54 62.28"><title>New OrderSuccess in EDD</title><g id="Layer_2" data-name="Layer 2"><g id="Layer_1-2" data-name="Layer 1"><path d="M70.09,42H68.67L63.3,36.63a1.45,1.45,0,0,0-1-.42H55V33a4.56,4.56,0,0,1-1.5.27,4.61,4.61,0,0,1-1.4-.22v3.16h-13a1.44,1.44,0,0,0-1.44,1.45V44.9a1.44,1.44,0,0,0,1.44,1.45H51.54l-5.79,5.79H2.9V2.9H17.38V17.38a1.45,1.45,0,0,0,.89,1.34,1.55,1.55,0,0,0,.56.11,1.41,1.41,0,0,0,1-.43l6.22-6.21v5.19a1.45,1.45,0,0,0,1.45,1.45h8.69a1.45,1.45,0,0,0,1.45-1.45V2.9H52.14V6a4.42,4.42,0,0,1,1.4-.23A4.91,4.91,0,0,1,55,6V1.45A1.45,1.45,0,0,0,53.59,0H1.45A1.45,1.45,0,0,0,0,1.45V53.59A1.45,1.45,0,0,0,1.45,55H26.07v5.79a1.45,1.45,0,0,0,1.45,1.45H59.38a1.46,1.46,0,0,0,1-.43l5.37-5.37h4.32A1.44,1.44,0,0,0,71.54,55V43.45A1.45,1.45,0,0,0,70.09,42ZM20.28,2.9H34.76v13H29V8.69a1.45,1.45,0,0,0-2.48-1l-6.21,6.21ZM68.64,53.59H65.17a1.45,1.45,0,0,0-1,.42l-5.37,5.37H29V55H46.35a1.46,1.46,0,0,0,1-.43l8.69-8.69a1.45,1.45,0,0,0-1-2.47H40.55V39.1H61.68l5.37,5.37a1.46,1.46,0,0,0,1,.43h.57Z"/><g id="hAejxo"><path d="M36.21,35A14.63,14.63,0,1,1,21.68,20.33,14.63,14.63,0,0,1,36.21,35Zm-.67,0a14,14,0,1,0-14,13.93A14,14,0,0,0,35.54,35Z"/><path d="M34,34.65l-5.52-5.57-1.88,2.1,4.05,4H12.55l4.19-4.09-2-1.83L9.2,34.81c-.7-2.59,1.53-7.37,4.51-9.65a12.06,12.06,0,0,1,13.65-1.35c4.32,2.2,6.48,5.93,6.82,10.71Zm-7.22-7.41L26.69,27h-3.2a2.38,2.38,0,0,1-.08-.29c0-.7,0-1.39,0-2.08A1.58,1.58,0,0,0,21.57,23a1.58,1.58,0,0,0-1.81,1.69c0,.76,0,1.52,0,2.39H16.22l5.36,5.62Z"/><path d="M22.13,45.59h-.84l-.15-.89-2.06-.47.29-.94a16.76,16.76,0,0,0,1.85.29c.56,0,1.17-.08,1.33-.74s-.42-1-.93-1.17-1-.37-1.45-.62A1.66,1.66,0,0,1,20.33,38c.66-.23,1.07-.52.86-1.32H22l.06.88,1.57.42-.27.85a10.82,10.82,0,0,0-1.93-.11,1.13,1.13,0,0,0-.79.67c0,.26.31.68.59.85.52.31,1.12.47,1.67.73a1.69,1.69,0,0,1,1,1.66,1.65,1.65,0,0,1-1.11,1.61C22.21,44.46,21.89,44.79,22.13,45.59Z"/></g><path d="M68.14,8.11a1.09,1.09,0,0,0-1.54,0L53.47,21.19l-4.73-5.14A1.1,1.1,0,0,0,47.19,16a1.09,1.09,0,0,0-.06,1.54l5.5,6a1.14,1.14,0,0,0,.79.36h0a1.1,1.1,0,0,0,.77-.32L68.14,9.65A1.08,1.08,0,0,0,68.14,8.11Z"/><path d="M67.88,17.56a1.09,1.09,0,0,0-1.1,1.09A12.33,12.33,0,1,1,54.46,6.33a1.1,1.1,0,0,0,0-2.19A14.51,14.51,0,1,0,69,18.65,1.09,1.09,0,0,0,67.88,17.56Z"/></g></g></svg>