<svg id="Layer_1" data-name="Layer 1" xmlns="http://www.w3.org/2000/svg" width="80" height="80" viewBox="0 0 80 80">
  <g>
    <g id="Icon">
      <g id="Money">
        <path d="M60.58,41.8l2,13.94-31.8-.16c-.06.06-.11.13-.17.2l-.17.2-.16.2-.17.2-.14.18-.15.19-.15.19-.15.18,34.35.62-2.38-16Z"/>
        <path d="M33.13,52.85l-.35.39-.35.39-.34.39,28.19-.21L58.48,40.3l-.22-1.63-1.18.13L58.75,52l-25.28.51Z"/>
        <path d="M54.63,35.9l-1.81.24-.56.36-.55.35-.55.37-.55.36-.74.51-.73.5-.72.52-.73.52-.63.47-.63.47-.62.48-.63.48c-.13.11-.26.22-.4.32l-.4.32-.4.33-.4.32-.15.13-.15.12-.15.13-.15.13-.5.42-.5.43-.5.43L41,45q-.8.69-1.56,1.41c-.52.47-1,.95-1.53,1.44l-1.5,1.48-1.47,1.51,21.34-.7L54.81,37.45Z"/>
        <g id="Money_Shadow" data-name="Money Shadow">
          <path d="M54.63,35.9l-1.81.24-.56.36-.55.35-.55.37-.55.36-.74.51-.73.5-.72.52-.73.52-.63.47-.63.47-.62.48-.63.48c-.13.11-.26.22-.4.32l-.4.32-.4.33-.4.32-.15.13-.15.12-.15.13-.15.13-.5.42-.5.43-.5.43L41,45q-.8.69-1.56,1.41c-.52.47-1,.95-1.53,1.44l-1.5,1.48-1.47,1.51,21.34-.7L54.81,37.45Z"/>
        </g>
      </g>
      <g id="Check">
        <path d="M64.34,27.45c-1,.39-2.09.8-3.14,1.22s-2.08.85-3.12,1.29-2,.89-3.07,1.36l-.08,0-.08,0-.07,0a.2.2,0,0,0-.08,0l-2.48,1.16-2.43,1.21-2.37,1.25c-.79.42-1.56.85-2.33,1.28l-.82.47-.81.47-.81.48-.79.48-.69.42-.68.42-.68.43-.66.43-.45.29-.44.29-.44.3-.44.29a.78.78,0,0,1-.15.1,1,1,0,0,1-.15.11l-.14.1-.15.11-.54.37-.52.37-.53.38-.52.38c-1.14.84-2.25,1.7-3.34,2.58s-2.11,1.77-3.13,2.7-2,1.85-2.92,2.82-1.83,1.94-2.7,3a3.11,3.11,0,0,0-.23.28l-.24.27-.23.28-.23.28-.17.22-.18.21a1.84,1.84,0,0,1-.17.22L21,56.1,20.88,56l-.09-.11-.09-.11-.09-.1c-.29-.35-.57-.67-.83-1l-.73-.83-.67-.73-.62-.67-.16-.18-.15-.17L17.29,52l-.15-.17c-.22-.24-.45-.49-.68-.76l-.7-.82L15,49.29c-.26-.33-.53-.68-.81-1.07-.13-.17-.27-.35-.4-.54l-.42-.57L13,46.49l-.46-.66c.31,1,.6,1.94.89,2.83s.56,1.77.83,2.58.53,1.61.78,2.36.51,1.5.77,2.2c.05.17.11.33.17.49s.12.33.17.49l.18.48.18.48c0,.07.05.14.08.22a2,2,0,0,0,.08.22c0,.07.05.15.08.22s.05.15.08.22l.09.23a1.55,1.55,0,0,1,.08.23l.09.22.09.23.06.17a1.11,1.11,0,0,0,.07.16l.06.17.06.16,0,.07,0,.07,0,.07a.14.14,0,0,0,0,.07l.09.23.09.22.09.23.09.23,0,.08,0,0c.18.45.36.91.55,1.37L19,64.26c.2.5.42,1,.64,1.56l.7,1.7c.41-.74.83-1.48,1.26-2.21s.86-1.44,1.3-2.14.89-1.41,1.35-2.09.92-1.37,1.39-2l0,0,0,0,0,0,0,0,.27-.39.28-.38c.09-.13.18-.26.28-.38l.27-.38.25-.32.24-.33.24-.32.24-.31,0-.06,0-.06,0-.06,0-.06.3-.38.29-.38.3-.37.3-.38.31-.37.3-.38c.1-.12.21-.24.31-.37s.2-.25.31-.37c.73-.87,1.48-1.72,2.23-2.56S34.21,48.61,35,47.8s1.58-1.6,2.39-2.38,1.64-1.54,2.48-2.29l.48-.43.49-.42.49-.42a6.4,6.4,0,0,1,.49-.42l.14-.13.15-.12.15-.13.14-.12.39-.33.39-.31.39-.32.4-.32.6-.48.61-.47.62-.47.62-.46.7-.52.71-.51.71-.51.72-.49c.45-.31.9-.62,1.36-.92L52,33.94l1.38-.87,1.41-.84c1-.6,2.07-1.17,3.11-1.72s2.1-1.07,3.16-1.57,2.14-1,3.21-1.4,2.16-.85,3.23-1.22C66.45,26.68,65.4,27.06,64.34,27.45Z"/>
      </g>
      <g id="Lock">
        <path d="M52.6,24.57a2.08,2.08,0,0,0-.34-.94,2.14,2.14,0,0,0-.71-.66,2.71,2.71,0,0,0-1-.32,3,3,0,0,0-1.11.06l-2.72.63v-.07l-.91.21-.3-4.15a7.58,7.58,0,0,0-1.16-3.65,6.76,6.76,0,0,0-2.53-2.31,7.75,7.75,0,0,0-3.36-.88,10.22,10.22,0,0,0-3.77.57,13.14,13.14,0,0,0-3.56,1.86,14.6,14.6,0,0,0-2.83,2.72A14,14,0,0,0,26.39,21a11,11,0,0,0-.84,3.64l-.19,3.65-.56.13v.05l-2.18.51a2.21,2.21,0,0,0-.72.32,2.94,2.94,0,0,0-.6.57,3,3,0,0,0-.43.73,3.07,3.07,0,0,0-.21.83L19.17,50.66l1.63,1.85.37-6.92a6.87,6.87,0,0,1,.44-2,6.14,6.14,0,0,1,1-1.7A5.22,5.22,0,0,1,24,40.61a4.05,4.05,0,0,1,1.67-.6l.73-.1a2.56,2.56,0,0,1-.81-.44,2.63,2.63,0,0,1-.61-.71,3.36,3.36,0,0,1-.38-.91,3.82,3.82,0,0,1-.1-1.08,4.43,4.43,0,0,1,.29-1.42,4.51,4.51,0,0,1,.7-1.23,3.8,3.8,0,0,1,1-.92,3.25,3.25,0,0,1,1.22-.5h0a2.66,2.66,0,0,1,1.23,0,2.42,2.42,0,0,1,1,.59,2.85,2.85,0,0,1,.7,1,3.64,3.64,0,0,1,.26,1.4A4.67,4.67,0,0,1,30.72,37,5.16,5.16,0,0,1,30.26,38a4.49,4.49,0,0,1-.7.91,3.73,3.73,0,0,1-.88.67l.64-.08a3.75,3.75,0,0,1,1.3.05A4.12,4.12,0,0,1,31.8,40a4.33,4.33,0,0,1,1,.82,4.67,4.67,0,0,1,.7,1l.5-.38,0-2.27a4.35,4.35,0,0,1,.25-1.53,4.52,4.52,0,0,1,.74-1.3,4.28,4.28,0,0,1,1.1-1,3.87,3.87,0,0,1,1.39-.5l.62-.1a2.14,2.14,0,0,1-.71-.3,2.23,2.23,0,0,1-.55-.51,2.3,2.3,0,0,1-.37-.67,2.65,2.65,0,0,1-.15-.81,3,3,0,0,1,.18-1.08,3.25,3.25,0,0,1,1.34-1.67,3.05,3.05,0,0,1,1-.4,2.64,2.64,0,0,1,1.05,0,2.32,2.32,0,0,1,1.53,1.18,2.66,2.66,0,0,1,.27,1,2.61,2.61,0,0,1-.09.88,2.88,2.88,0,0,1-.33.81,3.35,3.35,0,0,1-.54.7,3.23,3.23,0,0,1-.7.53l.53-.08a3.38,3.38,0,0,1,.84,0,4.24,4.24,0,0,1,.79.15,3.86,3.86,0,0,1,.72.32,4.28,4.28,0,0,1,.64.48l-.18.11h.23l.8-.47-.06-1a3.07,3.07,0,0,1,.15-1.17,3.42,3.42,0,0,1,.57-1,3.66,3.66,0,0,1,.89-.77,3.45,3.45,0,0,1,1.15-.42l.51-.09a1.94,1.94,0,0,1-.6-.21,1.66,1.66,0,0,1-.49-.38,1.6,1.6,0,0,1-.33-.51,1.77,1.77,0,0,1-.16-.61,2.14,2.14,0,0,1,.11-.84,2.34,2.34,0,0,1,.41-.74,2.27,2.27,0,0,1,.66-.57,2.38,2.38,0,0,1,.84-.33,2.12,2.12,0,0,1,.87,0,1.92,1.92,0,0,1,.75.31,1.76,1.76,0,0,1,.55.57,1.89,1.89,0,0,1,.26.79,1.87,1.87,0,0,1,0,.67,2.41,2.41,0,0,1-.24.63,2.49,2.49,0,0,1-.43.54,2.31,2.31,0,0,1-.56.41l.43-.07a3.28,3.28,0,0,1,1.45.08,3.61,3.61,0,0,1,.64.27l.17.12h0l.26-.13.53-.26L53.2,30ZM28.77,27.5l.12-3.79a6.83,6.83,0,0,1,.51-2.33,8.53,8.53,0,0,1,1.24-2.11,8.79,8.79,0,0,1,1.82-1.73,8.34,8.34,0,0,1,2.27-1.14,6.36,6.36,0,0,1,2.36-.28,4.7,4.7,0,0,1,2,.63,4.17,4.17,0,0,1,1.47,1.48,4.81,4.81,0,0,1,.63,2.24l.18,4.11Z"/>
        <path d="M52.6,24.57a2.08,2.08,0,0,0-.34-.94,2.14,2.14,0,0,0-.71-.66,2.71,2.71,0,0,0-1-.32,3,3,0,0,0-1.11.06l-2.72.63v-.07l-.91.21-.3-4.15a7.58,7.58,0,0,0-1.16-3.65,6.76,6.76,0,0,0-2.53-2.31,7.75,7.75,0,0,0-3.36-.88,10.22,10.22,0,0,0-3.77.57,13.14,13.14,0,0,0-3.56,1.86,14.6,14.6,0,0,0-2.83,2.72A14,14,0,0,0,26.39,21a11,11,0,0,0-.84,3.64l-.19,3.65-.56.13v.05l-2.18.51a2.21,2.21,0,0,0-.72.32,2.94,2.94,0,0,0-.6.57,3,3,0,0,0-.43.73,3.07,3.07,0,0,0-.21.83L19.17,50.66l1.63,1.85.37-6.92a6.87,6.87,0,0,1,.44-2,6.14,6.14,0,0,1,1-1.7A5.22,5.22,0,0,1,24,40.61a4.05,4.05,0,0,1,1.67-.6l.73-.1a2.56,2.56,0,0,1-.81-.44,2.63,2.63,0,0,1-.61-.71,3.36,3.36,0,0,1-.38-.91,3.82,3.82,0,0,1-.1-1.08,4.43,4.43,0,0,1,.29-1.42,4.51,4.51,0,0,1,.7-1.23,3.8,3.8,0,0,1,1-.92,3.25,3.25,0,0,1,1.22-.5h0a2.66,2.66,0,0,1,1.23,0,2.42,2.42,0,0,1,1,.59,2.85,2.85,0,0,1,.7,1,3.64,3.64,0,0,1,.26,1.4A4.67,4.67,0,0,1,30.72,37,5.16,5.16,0,0,1,30.26,38a4.49,4.49,0,0,1-.7.91,3.73,3.73,0,0,1-.88.67l.64-.08a3.75,3.75,0,0,1,1.3.05A4.12,4.12,0,0,1,31.8,40a4.33,4.33,0,0,1,1,.82,4.67,4.67,0,0,1,.7,1l.5-.38,0-2.27a4.35,4.35,0,0,1,.25-1.53,4.52,4.52,0,0,1,.74-1.3,4.28,4.28,0,0,1,1.1-1,3.87,3.87,0,0,1,1.39-.5l.62-.1a2.14,2.14,0,0,1-.71-.3,2.23,2.23,0,0,1-.55-.51,2.3,2.3,0,0,1-.37-.67,2.65,2.65,0,0,1-.15-.81,3,3,0,0,1,.18-1.08,3.25,3.25,0,0,1,1.34-1.67,3.05,3.05,0,0,1,1-.4,2.64,2.64,0,0,1,1.05,0,2.32,2.32,0,0,1,1.53,1.18,2.66,2.66,0,0,1,.27,1,2.61,2.61,0,0,1-.09.88,2.88,2.88,0,0,1-.33.81,3.35,3.35,0,0,1-.54.7,3.23,3.23,0,0,1-.7.53l.53-.08a3.38,3.38,0,0,1,.84,0,4.24,4.24,0,0,1,.79.15,3.86,3.86,0,0,1,.72.32,4.28,4.28,0,0,1,.64.48l-.18.11h.23l.8-.47-.06-1a3.07,3.07,0,0,1,.15-1.17,3.42,3.42,0,0,1,.57-1,3.66,3.66,0,0,1,.89-.77,3.45,3.45,0,0,1,1.15-.42l.51-.09a1.94,1.94,0,0,1-.6-.21,1.66,1.66,0,0,1-.49-.38,1.6,1.6,0,0,1-.33-.51,1.77,1.77,0,0,1-.16-.61,2.14,2.14,0,0,1,.11-.84,2.34,2.34,0,0,1,.41-.74,2.27,2.27,0,0,1,.66-.57,2.38,2.38,0,0,1,.84-.33,2.12,2.12,0,0,1,.87,0,1.92,1.92,0,0,1,.75.31,1.76,1.76,0,0,1,.55.57,1.89,1.89,0,0,1,.26.79,1.87,1.87,0,0,1,0,.67,2.41,2.41,0,0,1-.24.63,2.49,2.49,0,0,1-.43.54,2.31,2.31,0,0,1-.56.41l.43-.07a3.28,3.28,0,0,1,1.45.08,3.61,3.61,0,0,1,.64.27l.17.12h0l.26-.13.53-.26L53.2,30ZM28.77,27.5l.12-3.79a6.83,6.83,0,0,1,.51-2.33,8.53,8.53,0,0,1,1.24-2.11,8.79,8.79,0,0,1,1.82-1.73,8.34,8.34,0,0,1,2.27-1.14,6.36,6.36,0,0,1,2.36-.28,4.7,4.7,0,0,1,2,.63,4.17,4.17,0,0,1,1.47,1.48,4.81,4.81,0,0,1,.63,2.24l.18,4.11Z"/>
      </g>
    </g>
    <path d="M72,4a4,4,0,0,1,4,4V72a4,4,0,0,1-4,4H8a4,4,0,0,1-4-4V8A4,4,0,0,1,8,4H72m0-4H8A8,8,0,0,0,0,8V72a8,8,0,0,0,8,8H72a8,8,0,0,0,8-8V8a8,8,0,0,0-8-8Z"/>
  </g>
</svg>
