<svg id="Layer_1" data-name="Layer 1" xmlns="http://www.w3.org/2000/svg" width="80" height="80" viewBox="0 0 80 80">
  <g>
    <path d="M71.74,12.12a21.38,21.38,0,0,0-30.23,0,20.74,20.74,0,0,0-1.8,2.06l-.37.49c-.15.21-.3.42-.43.63s-.36.53-.53.8c-.3.5-.57,1-.84,1.52-.11-.22-.23-.41-.35-.61a7.42,7.42,0,0,0-2.79-2.55,8.58,8.58,0,0,0-3.7-1,11.36,11.36,0,0,0-4.17.63,14.36,14.36,0,0,0-3.92,2.05,16,16,0,0,0-3.13,3,15.49,15.49,0,0,0-2.15,3.65,12.25,12.25,0,0,0-.92,4l-.21,4-.62.14v.07l-2.41.56a2.11,2.11,0,0,0-.8.35,3.83,3.83,0,0,0-.66.62,4.43,4.43,0,0,0-.48.81,3,3,0,0,0-.21.92L9.36,55.62l1.8,2.05L11.58,50a7.21,7.21,0,0,1,.47-2.24,7.07,7.07,0,0,1,1.07-1.88,5.73,5.73,0,0,1,1.51-1.37,4.69,4.69,0,0,1,1.86-.67l.8-.1a2.8,2.8,0,0,1-.89-.5,3,3,0,0,1-.68-.78,3.19,3.19,0,0,1-.41-1,3.86,3.86,0,0,1-.11-1.19,4.68,4.68,0,0,1,.32-1.58,5.11,5.11,0,0,1,.76-1.35,4.67,4.67,0,0,1,1.11-1,3.46,3.46,0,0,1,1.35-.54h0a2.82,2.82,0,0,1,1.36.05,3.1,3.1,0,0,1,1.14.65A3.14,3.14,0,0,1,22,37.65a4.24,4.24,0,0,1,.28,1.55,5.31,5.31,0,0,1-.19,1.3,4.62,4.62,0,0,1-.5,1.19,5.15,5.15,0,0,1-.78,1,4,4,0,0,1-1,.74l.71-.08a4.07,4.07,0,0,1,1.44,0,4.22,4.22,0,0,1,1.3.5,4.52,4.52,0,0,1,1.1.9,5.74,5.74,0,0,1,.78,1.14l.55-.42,0-2.5A4.67,4.67,0,0,1,26,41.34a5,5,0,0,1,.8-1.45A4.48,4.48,0,0,1,28,38.82a4,4,0,0,1,1.53-.57l.67-.1a2.66,2.66,0,0,1-.77-.34,2.28,2.28,0,0,1-.61-.55,2.6,2.6,0,0,1-.41-.75,2.87,2.87,0,0,1-.16-.89,3.2,3.2,0,0,1,.2-1.19,3.6,3.6,0,0,1,.58-1,3.51,3.51,0,0,1,.89-.79,3.22,3.22,0,0,1,1.12-.45,2.82,2.82,0,0,1,1.16,0,2.68,2.68,0,0,1,1,.46,2.48,2.48,0,0,1,.7.84,2.72,2.72,0,0,1,.3,1.15,2.94,2.94,0,0,1-.09,1,3.49,3.49,0,0,1-.37.89,3.2,3.2,0,0,1-.6.77,3.31,3.31,0,0,1-.77.58l.59-.09a4.75,4.75,0,0,1,.92,0,3.8,3.8,0,0,1,.88.17,3.28,3.28,0,0,1,.79.35,3.6,3.6,0,0,1,.71.52l-.19.13h.24l.89-.53-.07-1.11a2.87,2.87,0,0,1,.09-1c.07.18.16.35.24.51s.23.44.35.67c0,0,0,0,0,.05l.44.75c.22.37.45.74.69,1.09l-1,.55c-.31.17-.6.36-.91.53l-.9.52-.88.52-.89.53-.75.47-.75.46-.75.48-.74.47-.48.33-.49.32-.48.32-.49.33-.17.11a.64.64,0,0,1-.16.11l-.16.12-.17.11-.59.41-.58.42-.58.41-.57.42q-1.89,1.4-3.68,2.85c-1.19,1-2.34,2-3.46,3s-2.19,2-3.22,3.11-2,2.15-3,3.27c-.08.11-.18.2-.26.31s-.17.21-.26.3l-.26.31-.24.31-.2.24-.19.23c-.06.09-.13.16-.19.25a2.15,2.15,0,0,0-.18.24l-.11-.13-.1-.12-.1-.11L11,61.15,10,60.09c-.29-.32-.55-.63-.81-.91l-.73-.81-.69-.74-.18-.19-.17-.19a1.45,1.45,0,0,0-.17-.18,1.62,1.62,0,0,0-.17-.19L6.38,56c-.26-.29-.51-.59-.78-.91s-.53-.66-.82-1-.59-.75-.9-1.17l-.44-.59L3,51.7,2.5,51,2,50.29c.34,1.11.67,2.14,1,3.13s.62,1.95.91,2.85.59,1.78.87,2.6.56,1.66.85,2.43c.06.18.12.37.19.55s.12.35.19.53.13.35.19.53l.2.53.09.24c0,.08.06.16.09.25l.09.23a1.84,1.84,0,0,0,.09.25,1.86,1.86,0,0,0,.1.25,1.25,1.25,0,0,0,.09.25c0,.09.07.18.1.25a2.67,2.67,0,0,0,.09.26,1,1,0,0,1,.07.18c0,.06,0,.12.07.18s0,.12.07.18l.08.19s0,0,0,.08l0,.07,0,.08,0,.07.1.25a2.77,2.77,0,0,0,.1.26,2.34,2.34,0,0,1,.09.24l.11.26,0,.09.06,0c.19.49.39,1,.6,1.51L9.1,70.4h0l.1.23.7,1.72.78,1.87c.45-.81.91-1.63,1.38-2.43s.95-1.59,1.44-2.37,1-1.55,1.5-2.31,1-1.5,1.53-2.24l0,0,0,0,0,0,0,0,.3-.43c.11-.14.2-.29.31-.42s.21-.28.3-.43a4.56,4.56,0,0,0,.31-.42l.27-.35.27-.36c.08-.11.18-.23.26-.35s.18-.23.27-.35l.06-.07s0,0,0-.06l.05-.06,0-.07c.1-.14.22-.27.32-.42l.33-.41.33-.42.33-.41.34-.42.33-.41.35-.41.34-.41q1.2-1.44,2.46-2.82c.84-.94,1.69-1.84,2.55-2.73s1.76-1.77,2.65-2.62,1.81-1.71,2.73-2.54l.53-.47.54-.47.54-.47.55-.46a.65.65,0,0,1,.16-.13l.16-.15a2,2,0,0,0,.16-.14l.16-.13.43-.35c.14-.13.29-.24.43-.35l.43-.36.44-.35.67-.53.67-.52.69-.52.67-.51.72-.53c.43.51.88,1,1.35,1.48.12.13.25.25.37.36a1.88,1.88,0,0,1-.23.16l-.79.58-.71.52-.69.52-.69.52-.69.54c-.14.12-.29.23-.45.35s-.29.23-.43.36l-.45.35-.44.36-.16.14-.17.13-.16.15a1.07,1.07,0,0,0-.16.14c-.19.15-.38.3-.56.46l-.55.47-.55.48-.56.48L31.73,51c-.56.52-1.14,1.05-1.69,1.58s-1.11,1.09-1.65,1.64-1.09,1.1-1.62,1.67l16.09-.52a16,16,0,0,1-.68-4.62,15.79,15.79,0,0,1,1.41-6.56,7.76,7.76,0,0,1,.44-.92,12.79,12.79,0,0,1-1.31-1.13l-.51-.47A17.69,17.69,0,0,1,41,40.28a12.42,12.42,0,0,1-.9-1.16,1.48,1.48,0,0,1-.22-.31A19.14,19.14,0,0,1,37.79,35a20.36,20.36,0,0,1,.27-16.16,20,20,0,0,1,4.15-6A20.37,20.37,0,0,1,71.38,41.29a9.49,9.49,0,0,1,.58.83A.18.18,0,0,0,72,42c.2-.2.39-.41.57-.62l.11-.11c.2-.23.39-.46.58-.7a7.85,7.85,0,0,0,.56-.73c.17-.23.34-.45.49-.69s.32-.47.46-.7c.27-.44.54-.9.78-1.36.14-.26.26-.53.39-.79s.24-.53.36-.81.25-.62.37-.94.24-.66.34-1a21.27,21.27,0,0,0,.85-4.17c0-.29,0-.6.07-.9s0-.86,0-1.28A21.34,21.34,0,0,0,71.74,12.12ZM20,30.06l.14-4.19a7.69,7.69,0,0,1,.55-2.57A9.36,9.36,0,0,1,22,21a9.85,9.85,0,0,1,2-1.91,9,9,0,0,1,2.5-1.26,6.86,6.86,0,0,1,2.6-.31,5,5,0,0,1,2.25.7A4.44,4.44,0,0,1,33,19.82a5.28,5.28,0,0,1,.69,2.47l.2,4.54Z"/>
    <path d="M64.14,35.69a16.1,16.1,0,0,1,5,3.1.61.61,0,0,0,.07-.14l2.63-6.1a5.84,5.84,0,0,0-5.06-8.76H65a5.49,5.49,0,0,0-1.73.26A8.55,8.55,0,0,1,64.79,26a8.14,8.14,0,0,1,0,8.14Z"/>
    <path d="M41.42,32.55,44,38.65a3.6,3.6,0,0,0,1.81,1.87c.27-.32.54-.64.84-.94a16.35,16.35,0,0,1,3-2.48l-1.28-3a8.11,8.11,0,0,1,0-8.14A8.55,8.55,0,0,1,50,24.05a5.51,5.51,0,0,0-1.74-.26H46.48A5.84,5.84,0,0,0,41.42,32.55Z"/>
    <path d="M51.27,24.62a1.24,1.24,0,0,0-.22.18c-.17.14-.33.3-.48.45s-.15.16-.22.25A6.9,6.9,0,0,0,49,27.78a6.09,6.09,0,0,0-.21.73,5.89,5.89,0,0,0-.17,1.18c0,.13,0,.25,0,.39a6.81,6.81,0,0,0,1,3.47l1.25,2.91a16,16,0,0,1,7.51-1.86,16.15,16.15,0,0,1,4.63.68l.74-1.73a6.86,6.86,0,0,0,.94-3.46c0-.14,0-.26,0-.39a2.61,2.61,0,0,0,0-.4c0-.12,0-.25-.06-.37s0-.27-.08-.41,0-.19-.07-.29a6.69,6.69,0,0,0-.71-1.65,1.34,1.34,0,0,0-.18-.28h0a6.42,6.42,0,0,0-.38-.53c-.09-.13-.19-.24-.28-.35a3.31,3.31,0,0,0-.27-.26,5.88,5.88,0,0,0-.59-.53,5.46,5.46,0,0,0-.72-.51l-.39-.22-.39-.18L60,23.5l-.29-.08-.18-.06a7.05,7.05,0,0,0-.8-.15h0c-.14,0-.29,0-.44-.06h-.08l-.46,0H55.56l-.45,0H55l-.43.06h0a5.5,5.5,0,0,0-.81.15,7,7,0,0,0-1.3.5,2.19,2.19,0,0,0-.3.16l-.29.17A4.12,4.12,0,0,0,51.27,24.62Z"/>
    <path d="M54.79,21.92a4.08,4.08,0,0,0,1.83.44,4.16,4.16,0,0,0,1.84-.44,5.79,5.79,0,0,0,2.84-5.2c0-3.12-2.09-5.64-4.68-5.64S52,13.6,52,16.72A5.79,5.79,0,0,0,54.79,21.92Z"/>
    <path d="M47.36,13.65c-2.17,0-3.92,2.12-3.92,4.74s1.75,4.74,3.92,4.74a4.16,4.16,0,0,0,3.83-3.64,5.7,5.7,0,0,0,.11-1.1,5.43,5.43,0,0,0-.57-2.45A3.83,3.83,0,0,0,47.36,13.65Z"/>
    <path d="M65.88,13.65a3.82,3.82,0,0,0-3.36,2.29A5.43,5.43,0,0,0,62,18.39a5.7,5.7,0,0,0,.1,1.1,4.16,4.16,0,0,0,3.83,3.64c2.17,0,3.93-2.12,3.93-4.74S68.05,13.65,65.88,13.65Z"/>
    <path d="M46,61.17l-23.86-.11a1.32,1.32,0,0,0-.18.22l-.19.21a2.13,2.13,0,0,1-.18.22c-.06.08-.13.15-.18.23l-.17.2-.16.21c-.05.07-.11.13-.17.2a1.46,1.46,0,0,1-.16.21l27.37.49A15.45,15.45,0,0,1,46,61.17Z"/>
    <path d="M25.15,57.61c-.12.14-.26.28-.38.43l-.38.42L24,58.9c-.13.14-.25.29-.38.44l21-.16a14.46,14.46,0,0,1-1-2Z"/>
    <path d="M58.32,37.81A12.92,12.92,0,1,0,71.24,50.73,12.92,12.92,0,0,0,58.32,37.81Zm4.43,22.64a2.85,2.85,0,0,1-2.85-2.84A2.88,2.88,0,0,1,62,54.85c0-2.65-2.13-3.43-4-4.13-.4-.15-.79-.29-1.11-.45a13.85,13.85,0,0,1-1.8-1V55a2.86,2.86,0,1,1-2.37,0V46.42a2.84,2.84,0,1,1,2.38,0,12.16,12.16,0,0,0,2.77,1.69c.28.13.6.25,1,.39,2,.73,5.78,2.15,5.58,6.76a2.87,2.87,0,0,1,1.21,2.35A2.84,2.84,0,0,1,62.75,60.45Z"/>
    <path d="M62.75,56.19a1.41,1.41,0,1,0,1.41,1.41A1.41,1.41,0,0,0,62.75,56.19Z"/>
    <path d="M53.88,42.27a1.41,1.41,0,1,0,1.41,1.41A1.41,1.41,0,0,0,53.88,42.27Z"/>
    <circle cx="53.88" cy="57.64" r="1.41"/>
  </g>
</svg>
