<?xml version="1.0" encoding="utf-8"?>
<!-- Generator: Adobe Illustrator 25.2.1, SVG Export Plug-In . SVG Version: 6.00 Build 0)  -->
<svg version="1.1" id="Layer_1" xmlns="http://www.w3.org/2000/svg" xmlns:xlink="http://www.w3.org/1999/xlink" x="0px" y="0px"
	 viewBox="0 0 80 80" style="enable-background:new 0 0 80 80;" xml:space="preserve">
<g>
	<path d="M71.7,11.9c-8.3-8.3-21.9-8.3-30.2,0c-0.5,0.5-0.9,1-1.3,1.5h1.3c0.2-0.2,0.5-0.5,0.7-0.8c8.1-7.8,21-7.6,28.8,0.4
		c7.5,7.8,7.7,20.1,0.3,28c0.2,0.3,0.4,0.6,0.6,0.8C80.1,33.5,80,20.1,71.7,11.9z"/>
	<path d="M64.1,35.4c1.8,0.7,3.5,1.8,5,3.1l0.1-0.2l2.6-6.1c1.6-2.8,0.7-6.4-2.1-8c-0.9-0.5-1.9-0.8-2.9-0.8H65
		c-0.6,0-1.2,0.1-1.7,0.3c0.6,0.6,1.1,1.2,1.5,1.9c1.5,2.5,1.5,5.6,0,8.1L64.1,35.4z"/>
	<path d="M54.8,21.6c0.6,0.3,1.2,0.4,1.8,0.5c0.6,0,1.3-0.2,1.8-0.5c1.8-1.1,2.9-3.1,2.8-5.2c0-3.1-2.1-5.6-4.7-5.6S52,13.3,52,16.4
		C51.9,18.6,53,20.5,54.8,21.6z"/>
	<path d="M65.9,13.4c-1.5,0.1-2.8,0.9-3.4,2.3c-0.4,0.8-0.5,1.6-0.5,2.5c0,0.4,0,0.7,0.1,1.1c0.2,2,1.8,3.5,3.8,3.6
		c2.2,0,3.9-2.1,3.9-4.8S68.1,13.4,65.9,13.4z"/>
	<path d="M69.5,44c-0.2-0.3-0.3-0.6-0.5-0.9c-0.5-0.7-1.1-1.4-1.8-2c-0.2-0.2-0.4-0.4-0.7-0.6l0,0c-0.1-0.1-0.3-0.2-0.4-0.3l0,0
		c-0.1-0.1-0.3-0.2-0.4-0.3l0,0c-0.9-0.6-1.8-1.1-2.8-1.5c-0.4-0.2-0.8-0.3-1.2-0.4c-1.1-0.3-2.2-0.5-3.3-0.5
		c-2.2,0-4.3,0.6-6.2,1.6c-0.3,0.2-0.6,0.3-0.8,0.5c-0.7,0.5-1.4,1-2,1.6c-0.4,0.4-0.8,0.8-1.1,1.3c-0.4,0.5-0.7,0.9-1,1.4
		c-0.8,1.3-1.2,2.7-1.5,4.3l0,0c-0.1,0.7-0.2,1.4-0.2,2.2c0,7.1,5.8,12.9,12.9,12.9c3.4,0,6.7-1.4,9.1-3.8l0,0
		c2.4-2.4,3.8-5.7,3.8-9.1c0-1.1-0.2-2.3-0.5-3.4C70.6,46,70.1,45,69.5,44z M62.8,60.2c-1.6,0-2.9-1.2-2.9-2.8
		c0-1.3,0.9-2.5,2.1-2.8c0-2.7-2.1-3.4-4-4.1c-0.4-0.2-0.8-0.3-1.1-0.5c-0.6-0.3-1.2-0.6-1.8-0.9v5.7c1.4,0.7,2.1,2.3,1.4,3.8
		c-0.7,1.4-2.3,2.1-3.8,1.4c-0.6-0.3-1.2-0.8-1.4-1.5c-0.2-0.3-0.3-0.7-0.3-1.1c0-0.4,0.1-0.8,0.2-1.1c0.3-0.7,0.8-1.2,1.4-1.5v-8.6
		c-0.7-0.3-1.2-0.8-1.4-1.5c-0.3-0.7-0.3-1.5,0-2.2c0.3-0.7,0.9-1.3,1.6-1.5c0.3-0.1,0.7-0.2,1-0.2c1.6,0,2.8,1.3,2.8,2.9
		c0,1.1-0.6,2.1-1.6,2.6c0.5,0.5,1.1,0.9,1.8,1.2c0.3,0.2,0.7,0.4,1,0.5c0.3,0.1,0.6,0.2,1,0.4l0,0c2,0.7,5.8,2.2,5.6,6.8
		c1.3,0.9,1.6,2.7,0.7,4C64.5,59.7,63.6,60.2,62.8,60.2L62.8,60.2z"/>
	<path d="M62.8,55.9c-0.8,0-1.4,0.6-1.4,1.4c0,0,0,0,0,0c0,0.8,0.6,1.4,1.4,1.4c0,0,0,0,0,0c0.8,0,1.4-0.6,1.4-1.4
		C64.2,56.5,63.5,55.9,62.8,55.9C62.8,55.9,62.8,55.9,62.8,55.9z"/>
	<path d="M55.2,42.9C55,42.3,54.5,42,53.9,42h-0.2c-0.7,0.1-1.3,0.7-1.3,1.4c0,0.8,0.6,1.4,1.4,1.4c0.8,0,1.4-0.6,1.4-1.4
		C55.3,43.2,55.3,43,55.2,42.9z"/>
	<path d="M53.9,55.9c-0.8,0-1.4,0.6-1.4,1.4s0.6,1.4,1.4,1.4c0.8,0,1.4-0.6,1.4-1.4c0,0,0,0,0,0C55.3,56.6,54.7,55.9,53.9,55.9z"/>
	<path d="M44.2,58.3H32.4l-3.9-12.9c3.6-1.9,4.9-6.4,3-10c-1.3-2.4-3.8-3.9-6.5-3.9l0,0v26.8H13.2V24.5H34c0.5,0,0.9,0,1.3,0.1
		c-0.1,0.8-0.1,1.6-0.1,2.5c0,6.6,3.1,12.9,8.3,16.9c0.1-0.3,0.3-0.6,0.5-0.9c-0.6-0.5-1.3-1-1.8-1.6c-3.8-3.8-6-9-6-14.4
		c0-0.8,0-1.5,0.1-2.3c0.2-1.5,0.5-3,1-4.5c0.9-2.6,2.3-4.9,4.1-6.9H2v42.4h3.5V16.8h32.3c-0.6,1.1-1.1,2.3-1.5,3.4H8.9v42.4h38.8
		C46.3,61.4,45.1,59.9,44.2,58.3z"/>
	<path d="M41.3,26.7c-0.9,1.8-0.9,3.9,0.1,5.6l2.6,6.1c0.3,0.8,1,1.5,1.8,1.9c0.3-0.4,0.6-0.7,1-1.1c0.9-0.9,1.8-1.7,2.9-2.3l-1.3-3
		c-1.5-2.5-1.5-5.6,0-8.1c0.4-0.7,1-1.4,1.6-1.9c-0.6-0.2-1.2-0.3-1.8-0.3h-1.8C44.3,23.5,42.3,24.7,41.3,26.7z"/>
	<path d="M64.6,29.8c0,1.2-0.3,2.4-0.9,3.5L62.9,35c-3.9-1.2-8.1-0.8-11.7,1l-0.5,0.2l-1.2-2.9c-0.6-1-1-2.2-1-3.5
		c0-0.1,0-0.3,0-0.4c0-0.4,0.1-0.8,0.2-1.2c0.1-0.3,0.2-0.5,0.3-0.8c0.3-0.8,0.8-1.6,1.3-2.3l0.2-0.2c0.2-0.2,0.3-0.3,0.5-0.5
		c0.1-0.1,0.1-0.1,0.2-0.2l0,0c0.2-0.2,0.4-0.3,0.6-0.4l0.3-0.2l0.3-0.2c0.4-0.2,0.9-0.4,1.3-0.5c0.3-0.1,0.5-0.1,0.8-0.2l0,0H55
		h3.2h0.4c1.6,0.2,3.1,1,4.2,2.2c0.3,0.4,0.6,0.8,0.8,1.2c0.3,0.5,0.6,1.1,0.8,1.7C64.5,28.6,64.6,29.2,64.6,29.8z"/>
	<path d="M51.3,18.1c0,0.4,0,0.7-0.1,1.1c-0.1,0.3-0.2,0.7-0.3,1c-0.5,1.5-1.9,2.5-3.5,2.6c-1.6-0.1-3-1.1-3.5-2.6
		c-0.3-0.7-0.4-1.4-0.4-2.1c0-0.4,0.1-0.9,0.2-1.3c0.1-0.6,0.4-1.2,0.8-1.7c0.7-1,1.8-1.7,3-1.7c1.5,0.1,2.8,0.9,3.4,2.3
		C51.1,16.4,51.3,17.3,51.3,18.1z"/>
</g>
</svg>
