<svg xmlns="http://www.w3.org/2000/svg" viewBox="0 0 77.76 69.4"><title>Send Campaign Email</title><g id="Layer_2" data-name="Layer 2"><g id="Layer_1-2" data-name="Layer 1"><path d="M73.77,17.56H41.58a21.16,21.16,0,0,1,.25,3H72.28L41.18,43.88a4.16,4.16,0,0,1-4.59,0l-6-4.52a21.52,21.52,0,0,1-3.21,1.34l7.43,5.57a7.13,7.13,0,0,0,8.18,0l31.8-23.85V64.27L58,43.54a1.5,1.5,0,0,0-2.33,1.88l17,20.94.06,0H5.09l.06,0,17-20.94a1.5,1.5,0,0,0-2.33-1.88L3,64.27v-33A20.74,20.74,0,0,1,.18,20.86c0-.18,0-.35,0-.53A4,4,0,0,0,0,21.55V65.41a4,4,0,0,0,4,4H73.77a4,4,0,0,0,4-4V21.55A4,4,0,0,0,73.77,17.56Z"/><path d="M20.94,0A20.83,20.83,0,1,0,41.77,20.83,20.83,20.83,0,0,0,20.94,0ZM17.5,27.37l.19,7L12.24,35.8l-.37-8.07-5.32.34-2-7.75L23.27,10.24l4.29,16.48ZM27,12l7-4.42,1.34,2.12-7,4.42Zm1.61,4.7,7.64-2,.63,2.42-7.64,2ZM30.11,24l.13-2.5,8.27.43-.13,2.51Z"/></g></g></svg>