<svg xmlns="http://www.w3.org/2000/svg" viewBox="0 0 100 89.25"><title>Send Campaign Email</title><g id="Layer_2" data-name="Layer 2"><g id="Layer_1-2" data-name="Layer 1"><path d="M94.87,22.58H53.47a28.7,28.7,0,0,1,.32,3.85H93l-40,30a5.38,5.38,0,0,1-5.9,0l-7.74-5.81a27.12,27.12,0,0,1-4.12,1.72l9.55,7.17a9.21,9.21,0,0,0,10.52,0L96.15,28.83V82.65L74.57,56a1.92,1.92,0,1,0-3,2.42l21.8,26.92.07.07H6.55a.46.46,0,0,0,.07-.07l21.8-26.92a1.92,1.92,0,1,0-3-2.42L3.85,82.65V40.26A26.62,26.62,0,0,1,.23,26.82c0-.22,0-.45,0-.68A5.11,5.11,0,0,0,0,27.71V84.12a5.15,5.15,0,0,0,5.13,5.13H94.87A5.15,5.15,0,0,0,100,84.12V27.71A5.15,5.15,0,0,0,94.87,22.58Z"/><path d="M26.93,0A26.79,26.79,0,1,0,53.71,26.79,26.78,26.78,0,0,0,26.93,0ZM22.5,35.2l.25,9-7,1.83-.46-10.38-6.85.44-2.6-10,24.1-13,5.53,21.2ZM34.69,15.41l9-5.68,1.72,2.73-9,5.68Zm2.08,6.05,9.82-2.56L47.4,22l-9.82,2.56Zm1.95,9.41.17-3.22,10.63.56-.17,3.22Z"/></g></g></svg>