<svg xmlns="http://www.w3.org/2000/svg" viewBox="0 0 77.76 67.88"><title>Set Sequence Emails</title><g id="Layer_2" data-name="Layer 2"><g id="Layer_1-2" data-name="Layer 1"><path d="M67.85,20.2H42.57c0,.33,0,.66,0,1,0,.59,0,1.17-.08,1.75h24L37.87,44.41a3.85,3.85,0,0,1-4.22,0L29.1,41a22,22,0,0,1-3.26,1L32,46.61a6.4,6.4,0,0,0,3.76,1.18,6.26,6.26,0,0,0,3.76-1.18L68.77,24.67V63.16L53.33,44.09a1.37,1.37,0,0,0-2.13,1.73L66.78,65.08l.06,0H4.69l0,0L20.32,45.82a1.37,1.37,0,1,0-2.13-1.73L2.75,63.16V31.59A21.12,21.12,0,0,1,.12,23a3.39,3.39,0,0,0-.12.91V64.21a3.68,3.68,0,0,0,3.67,3.67H67.85a3.68,3.68,0,0,0,3.67-3.67V23.87A3.68,3.68,0,0,0,67.85,20.2Z"/><path d="M74.09,6.58H36.77A21.63,21.63,0,0,1,39,9.33H72.72L62.36,17.1H67L75,11.05V49.54l-5-6.16v4.37l3,3.71,0,0H70v2.75h4.06a3.68,3.68,0,0,0,3.67-3.67V10.25A3.68,3.68,0,0,0,74.09,6.58Z"/><path d="M21.3,0A21.28,21.28,0,1,0,42.57,21.28,21.28,21.28,0,0,0,21.3,0ZM32.22,16.21,18.62,29.82a1.22,1.22,0,0,1-.83.34,1.19,1.19,0,0,1-.82-.34l-6.6-6.6a1.76,1.76,0,0,1,0-2.48l.83-.82a1.74,1.74,0,0,1,2.48,0L17.79,24,28.92,12.91a1.74,1.74,0,0,1,2.48,0l.82.82A1.74,1.74,0,0,1,32.22,16.21Z"/></g></g></svg>