<svg xmlns="http://www.w3.org/2000/svg" viewBox="0 0 100 87.29"><title>Set Sequence Emails</title><g id="Layer_2" data-name="Layer 2"><g id="Layer_1-2" data-name="Layer 1"><path d="M87.26,26H54.74q0,.64,0,1.29c0,.76,0,1.51-.1,2.25H85.49L48.7,57.1a4.9,4.9,0,0,1-5.43,0l-5.84-4.38A26.84,26.84,0,0,1,33.23,54l7.92,5.94a8.45,8.45,0,0,0,9.67,0L88.44,31.72v49.5L68.59,56.7a1.77,1.77,0,0,0-2.75,2.22l20,24.77.07.06H6l.06-.06L26.14,58.92a1.77,1.77,0,0,0-2.75-2.22L3.54,81.22V40.62A27.17,27.17,0,0,1,.15,29.52,5.07,5.07,0,0,0,0,30.69V82.57a4.73,4.73,0,0,0,4.72,4.72H87.26A4.73,4.73,0,0,0,92,82.57V30.69A4.73,4.73,0,0,0,87.26,26Z"/><path d="M95.28,8.46h-48A26.85,26.85,0,0,1,50.12,12H93.51L80.2,22h5.89l10.37-7.78v49.5l-6.41-7.92v5.62l3.86,4.77.06.06H90.05v3.54h5.23A4.73,4.73,0,0,0,100,65.06V13.18A4.74,4.74,0,0,0,95.28,8.46Z"/><path d="M27.39,0A27.36,27.36,0,1,0,54.75,27.36,27.36,27.36,0,0,0,27.39,0Zm14,20.85L23.94,38.34a1.5,1.5,0,0,1-2.12,0l-8.48-8.48a2.26,2.26,0,0,1,0-3.19l1.06-1.06a2.26,2.26,0,0,1,3.19,0l5.29,5.3L37.19,16.6a2.25,2.25,0,0,1,3.18,0l1.07,1.06A2.26,2.26,0,0,1,41.44,20.85Z"/></g></g></svg>