<svg xmlns="http://www.w3.org/2000/svg" viewBox="0 0 71.54 65.39"><title>tag applided</title><g id="Layer_2" data-name="Layer 2"><g id="Layer_1-2" data-name="Layer 1"><path d="M49,55v6.56H7.92V55.05h2.17a1.92,1.92,0,1,0,0-3.84H7.92V44.83h2.17a1.92,1.92,0,1,0,0-3.83H7.92V34.61h2.17a1.92,1.92,0,1,0,0-3.83H7.92V24.39h2.17a1.92,1.92,0,1,0,0-3.83H7.92V14.18h2.17a1.92,1.92,0,1,0,0-3.83H7.92V3.83H49V30.46l.35-.14.12-.07a4.58,4.58,0,0,1,3.36-.94V1.92A1.91,1.91,0,0,0,51,0H6A1.91,1.91,0,0,0,4.09,1.92v8.43H1.92a1.92,1.92,0,1,0,0,3.83H4.09v6.38H1.92a1.92,1.92,0,1,0,0,3.83H4.09v6.39H1.92a1.92,1.92,0,1,0,0,3.83H4.09V41H1.92a1.92,1.92,0,1,0,0,3.83H4.09v6.38H1.92a1.92,1.92,0,0,0,0,3.84H4.09v8.43A1.91,1.91,0,0,0,6,65.39H51a1.91,1.91,0,0,0,1.91-1.91V55.82A4.52,4.52,0,0,1,49,55Z"/><path d="M16.35,46a1.92,1.92,0,0,0,3.83,0c0-5.09,3.1-10.35,8.3-10.35s8.3,5.26,8.3,10.35a1.92,1.92,0,0,0,3.83,0c0-4.87-2.22-9.91-6.29-12.49a9.07,9.07,0,1,0-11.68,0C18.57,36.07,16.35,41.11,16.35,46Zm6.89-19.42a5.24,5.24,0,1,1,5.24,5.24A5.24,5.24,0,0,1,23.24,26.56Z"/><path d="M54.27,35.06a1.31,1.31,0,1,0,1.31,1.31A1.31,1.31,0,0,0,54.27,35.06Z"/><path d="M51.77,21.56A19.77,19.77,0,1,0,71.54,41.33,19.77,19.77,0,0,0,51.77,21.56Zm-5.2,29.82-7.31-7.31a1.75,1.75,0,0,1,0-2.47l9.52-9.52A1.74,1.74,0,0,1,50,31.57h7.31a1.75,1.75,0,0,1,1.75,1.74v7.32a1.74,1.74,0,0,1-.52,1.23L49,51.38A1.75,1.75,0,0,1,46.57,51.38Zm16-9a1.76,1.76,0,0,1-.51,1.24l-8.74,8.73a1.75,1.75,0,0,1-2.47,0l-.15-.15,9.68-9.67a1.55,1.55,0,0,0,.44-1.08V33.31a1.75,1.75,0,0,1,1.75,1.75Z"/></g></g></svg>