<svg xmlns="http://www.w3.org/2000/svg" viewBox="0 0 77.76 77.76"><title>Remove Tag</title><g id="Layer_2" data-name="Layer 2"><g id="Layer_1-2" data-name="Layer 1"><path d="M48.31,27.82A20.83,20.83,0,1,0,69.14,48.65,20.84,20.84,0,0,0,48.31,27.82ZM58.57,51.36h-20a2.9,2.9,0,0,1,0-5.8h20a2.9,2.9,0,0,1,0,5.8Z"/><path d="M59.94,9.72a8.1,8.1,0,1,0,8.1,8.1A8.12,8.12,0,0,0,59.94,9.72Zm0,13a4.86,4.86,0,1,1,4.86-4.86A4.87,4.87,0,0,1,59.94,22.68Z"/><path d="M69.66,0H49.11A14.5,14.5,0,0,0,38.8,4.27l-36,36a9.45,9.45,0,0,0,0,13.35L24.11,75a9.45,9.45,0,0,0,13.35,0l7.83-7.84a18.38,18.38,0,0,1-3.62-1l-6.51,6.51a6.35,6.35,0,0,1-8.76,0L5.05,51.36a6.2,6.2,0,0,1,0-8.76l36-36a11.29,11.29,0,0,1,8-3.32H69.66A4.87,4.87,0,0,1,74.52,8.1V28.65h0a11.27,11.27,0,0,1-3.32,8L65.88,42a18.8,18.8,0,0,1,1,3.61L73.49,39a14.44,14.44,0,0,0,4.27-10.31V8.1A8.11,8.11,0,0,0,69.66,0Z"/></g></g></svg>