<svg id="Layer_1" data-name="Layer 1" xmlns="http://www.w3.org/2000/svg" width="80" height="80" viewBox="0 0 80 80">
  <g>
    <path d="M71.68,0H50.52A14.92,14.92,0,0,0,40,4.39L31.5,12.9l-22.11,22L2.84,41.48a9.72,9.72,0,0,0,0,13.74l22,22a9.71,9.71,0,0,0,13.68,0l1.84-1.84a23.38,23.38,0,0,1-2.78-4.43l-2.61,2.64a4.6,4.6,0,0,1-6.51,0h0l-22-22a4.61,4.61,0,0,1,0-6.52L13,38.53,35,16.5,43.54,8a9.73,9.73,0,0,1,7-2.89H71.68A3.24,3.24,0,0,1,74.9,8.33V29.54a9.76,9.76,0,0,1-2.9,7l-1.06,1.12a23.46,23.46,0,0,1,4.44,2.78l.28-.28A14.76,14.76,0,0,0,80,29.48V8.33A8.33,8.33,0,0,0,71.68,0Z"/>
    <path d="M61.43,9.77a8.86,8.86,0,1,0,8.85,8.85A8.86,8.86,0,0,0,61.43,9.77Zm0,12.59h0a3.74,3.74,0,0,1-3.71-3.74h0a3.75,3.75,0,1,1,3.76,3.74Z"/>
    <path d="M31.84,26.42h0l-20.51,20a2.56,2.56,0,0,0,3.57,3.66l20.51-20a2.56,2.56,0,0,0-3.57-3.66Z"/>
    <path d="M71.78,43.93A19.95,19.95,0,1,0,79.92,60,20,20,0,0,0,71.78,43.93Zm-.21,24.34a2.84,2.84,0,0,1-4.15,3.87l-7.44-8-7.44,8a2.8,2.8,0,0,1-2.07.9,2.83,2.83,0,0,1-2.08-4.77L56.1,60l-7.71-8.26a2.84,2.84,0,1,1,4.15-3.87l7.44,8,7.44-8a2.84,2.84,0,1,1,4.15,3.87L63.86,60Z"/>
  </g>
</svg>
