<svg xmlns="http://www.w3.org/2000/svg" viewBox="0 0 100 100"><title>Remove Tag</title><g id="Layer_2" data-name="Layer 2"><g id="Layer_1-2" data-name="Layer 1"><path d="M62.13,35.78A26.79,26.79,0,1,0,88.92,62.57,26.79,26.79,0,0,0,62.13,35.78ZM75.32,66H49.64a3.73,3.73,0,0,1,0-7.45H75.32a3.73,3.73,0,0,1,0,7.45Z"/><path d="M77.08,12.5A10.42,10.42,0,1,0,87.5,22.92,10.42,10.42,0,0,0,77.08,12.5Zm0,16.67a6.25,6.25,0,1,1,6.25-6.25A6.27,6.27,0,0,1,77.08,29.17Z"/><path d="M89.58,0H63.15A18.62,18.62,0,0,0,49.9,5.49L3.55,51.83A12.16,12.16,0,0,0,3.55,69L31,96.45a12.16,12.16,0,0,0,17.17,0L58.24,86.37a24.12,24.12,0,0,1-4.65-1.24L45.22,93.5A8.16,8.16,0,0,1,34,93.5L6.5,66.05a8,8,0,0,1,0-11.27L52.84,8.44A14.48,14.48,0,0,1,63.15,4.17H89.58a6.25,6.25,0,0,1,6.25,6.25V36.85h0a14.47,14.47,0,0,1-4.26,10.3L84.72,54A24.2,24.2,0,0,1,86,58.66l8.56-8.56A18.62,18.62,0,0,0,100,36.85V10.42A10.43,10.43,0,0,0,89.58,0Z"/></g></g></svg>