<svg xmlns="http://www.w3.org/2000/svg" viewBox="0 0 66.43 49.25"><defs><style>.cls-1{fill:none;}.cls-2{fill:#020202;}</style></defs><title>Tag Removed</title><g id="Layer_2" data-name="Layer 2"><g id="Layer_1-2" data-name="Layer 1"><path class="cls-1" d="M35.9,14.63V24.76a1.88,1.88,0,0,1-.56,1.34l-12.05,12,.19.19a2.17,2.17,0,0,0,3.07,0L37.43,27.46a2.19,2.19,0,0,0,.64-1.54V16.81A2.18,2.18,0,0,0,35.9,14.63Z"/><path class="cls-1" d="M33.72,23.74V14.63a2.17,2.17,0,0,0-2.18-2.17H22.43a2.15,2.15,0,0,0-1.53.64L9,25A2.18,2.18,0,0,0,9,28l9.11,9.11a2.17,2.17,0,0,0,3.07,0L33.08,25.28A2.15,2.15,0,0,0,33.72,23.74Z"/><path d="M24.62,0A24.63,24.63,0,1,0,49.25,24.62,24.62,24.62,0,0,0,24.62,0ZM18.15,37.14,9,28A2.18,2.18,0,0,1,9,25L20.9,13.1a2.15,2.15,0,0,1,1.53-.64h9.11a2.17,2.17,0,0,1,2.18,2.17v9.11a2.15,2.15,0,0,1-.64,1.54L21.22,37.14A2.17,2.17,0,0,1,18.15,37.14ZM38.07,25.92a2.19,2.19,0,0,1-.64,1.54L26.55,38.34a2.17,2.17,0,0,1-3.07,0l-.19-.19,12.05-12a1.88,1.88,0,0,0,.56-1.34V14.63a2.18,2.18,0,0,1,2.17,2.18Z"/><path class="cls-2" d="M62.72,14.31H53.39a3.71,3.71,0,1,1,0-7.41h9.33a3.71,3.71,0,1,1,0,7.41Z"/><path d="M28.39,16a1.31,1.31,0,1,0,1.32,1.31A1.31,1.31,0,0,0,28.39,16Z"/></g></g></svg>