<svg id="Layer_1" data-name="Layer 1" xmlns="http://www.w3.org/2000/svg" width="80" height="80" viewBox="0 0 80 80">
  <defs>
    <style>
      .cls-1 {
        fill-rule: evenodd;
      }
    </style>
  </defs>
  <g id="Group">
    <g id="Fill-1">
      <path class="cls-1" d="M30.33,47.53h0a2.76,2.76,0,0,1-2.65-2.65V38.82a2.65,2.65,0,0,1,5.3,0v6.06a2.59,2.59,0,0,1-2.52,2.65h-.13"/>
    </g>
    <g id="Fill-3">
      <path class="cls-1" d="M49.45,47.53h0a2.64,2.64,0,0,1-2.67-2.61v-6.1a2.65,2.65,0,1,1,5.29,0v6.06a2.64,2.64,0,0,1-2.63,2.65h0"/>
    </g>
    <g id="Fill-5">
      <path class="cls-1" d="M25,34.27a6.75,6.75,0,0,1,5.87-3.88,6.77,6.77,0,0,1,6.54,6.92v12.4a2.48,2.48,0,0,0,4.92,0V37.3a6.75,6.75,0,0,1,6.52-6.91A6.13,6.13,0,0,1,54.57,34,16.5,16.5,0,1,1,25,34.27ZM35.45,18h9.27v3.58A20.33,20.33,0,0,0,40,21a24.29,24.29,0,0,0-4.58.47ZM60.63,43.36c0-.56.09-1,.09-1.61a20.83,20.83,0,0,0-10.6-18.08V18h4a2.75,2.75,0,0,0,0-5.5H26a2.9,2.9,0,0,0-2.75,2.84A2.75,2.75,0,0,0,26,18.09h4.07v5.59a20.69,20.69,0,0,0-8.23,28.08c.24.43.48.85.75,1.26h0C30.28,66.08,51.16,67.41,58.26,67.5A2.76,2.76,0,0,0,60,66.84a2.34,2.34,0,0,0,.66-1.71Z"/>
    </g>
  </g>
  <path d="M72,4a4,4,0,0,1,4,4V72a4,4,0,0,1-4,4H8a4,4,0,0,1-4-4V8A4,4,0,0,1,8,4H72m0-4H8A8,8,0,0,0,0,8V72a8,8,0,0,0,8,8H72a8,8,0,0,0,8-8V8a8,8,0,0,0-8-8Z"/>
</svg>
