<svg id="Layer_1" data-name="Layer 1" xmlns="http://www.w3.org/2000/svg" width="80" height="80" viewBox="0 0 80 80">
  <g>
    <g>
      <path d="M71.16,49.65a1,1,0,0,0,1.29-.57,36.45,36.45,0,0,0,1.92-11.89q0-15.25-11.58-27.11Q51.08,0,38.68,0H36Q25.06,0,14.29,7.62a16.16,16.16,0,0,1-2.85,2.46Q0,22.07,0,36v2.72q0,11.72,9.12,23Q18.87,72,31.22,73.93a1,1,0,0,0,1.06-.71v0a.92.92,0,0,0-.77-1.15,35.79,35.79,0,0,1-17.9-8.57Q1.76,52.31,1.76,37.19A35.2,35.2,0,0,1,9.39,15.26Q20.7,1.78,37,1.77q14.18,0,25.07,10.35Q72.46,23,72.46,36.92v.41a33.68,33.68,0,0,1-1.84,11.11,1,1,0,0,0,.54,1.21Z"/>
      <path d="M7.9,24.11h.27L23.29,65.79h-.14Q13.76,61.44,8.3,51.08a34.61,34.61,0,0,1-3.13-14A34.07,34.07,0,0,1,7.9,24.11Z"/>
      <path d="M53,18.25v1.23q0,2.72,3.82,8.44a16.66,16.66,0,0,1,1.76,5.69,15.75,15.75,0,0,0-3.91-.49A15.57,15.57,0,0,0,46,35.72L41.4,22.07h.14q4.77,0,4.77-1.23v-.41c-.18-.63-.5-1-1-1.09l-8.85.41-9-.41a1.35,1.35,0,0,0-.68,1.23h-.14c0,1,1.32,1.5,3.95,1.5l.68.13L36.23,36,29.28,56.8h-.13L17.57,22.2v-.13h.13c3.09,0,4.63-.37,4.63-1.09v-.41a1.32,1.32,0,0,0-.95-1.23L11,19.75h-.55v-.27Q11.85,17,16.89,12.4A31.87,31.87,0,0,1,37.18,5.18,31.26,31.26,0,0,1,58.7,13.62v.14l-.41-.14C55.75,13.62,54,15.17,53,18.25Z"/>
      <path d="M43.57,59.87a20.86,20.86,0,0,0-6,4.24A21.34,21.34,0,0,0,34,68.91a27.49,27.49,0,0,1-5.93-1.21l9.53-27.93a31.26,31.26,0,0,1,1.94,4.88A15.32,15.32,0,0,0,39,48.79,15.63,15.63,0,0,0,43.57,59.87Z"/>
      <path d="M69.06,37.19a33.34,33.34,0,0,1-.33,4.73,15.64,15.64,0,0,0-5.67-6.34L64.29,32a30.36,30.36,0,0,0,.95-6.95L65,21.79h.27A34.19,34.19,0,0,1,69.06,37.19Z"/>
    </g>
    <g>
      <path d="M54.65,37.62A11.18,11.18,0,1,0,65.82,48.79,11.19,11.19,0,0,0,54.65,37.62Z"/>
      <path d="M64.45,80H37.26A1.24,1.24,0,0,1,36,78.76a16.29,16.29,0,0,1,4.71-11.49,15.93,15.93,0,0,1,11.42-4.82h5c.52,0,1,0,1.57.08a12.2,12.2,0,0,0-1.66,6.17A12.34,12.34,0,0,0,64.45,80Z"/>
    </g>
    <path d="M69.39,58.09a10.61,10.61,0,0,0,0,21.21,10.42,10.42,0,0,0,3.88-.74,10.6,10.6,0,0,0-3.88-20.47Zm7.38,12.34H71.08v5.64H67.69V70.43H62V67h5.68V61.32h3.39V67h5.69Z"/>
  </g>
</svg>
