<svg xmlns="http://www.w3.org/2000/svg" viewBox="0 0 100 100"><title>Wait X Days</title><g id="Layer_2" data-name="Layer 2"><g id="Layer_1-2" data-name="Layer 1"><path d="M50,16.3a2.17,2.17,0,0,0,2.17-2.17V13a2.17,2.17,0,0,0-4.34,0v1.09A2.17,2.17,0,0,0,50,16.3Z"/><path d="M50,83.7a2.17,2.17,0,0,0-2.17,2.17V87a2.17,2.17,0,0,0,4.34,0V85.87A2.17,2.17,0,0,0,50,83.7Z"/><path d="M14.13,47.83H13a2.17,2.17,0,1,0,0,4.34h1.09a2.17,2.17,0,0,0,0-4.34Z"/><path d="M87,47.83H85.87a2.17,2.17,0,0,0,0,4.34H87a2.17,2.17,0,0,0,0-4.34Z"/><path d="M25.43,22.39a2.15,2.15,0,0,0-3,3l.76.77a2.11,2.11,0,0,0,3.05,0,2.11,2.11,0,0,0,0-3.05Z"/><path d="M23.15,73.8l-.76.77a2.1,2.1,0,0,0,0,3,2.17,2.17,0,0,0,1.52.65,2.14,2.14,0,0,0,1.52-.65l.77-.76a2.16,2.16,0,1,0-3.05-3Z"/><path d="M74.57,22.39l-.77.76a2.11,2.11,0,0,0,0,3.05,2.11,2.11,0,0,0,3,0l.76-.77a2.15,2.15,0,1,0-3-3Z"/><path d="M52.17,49.13V29.35a2.17,2.17,0,1,0-4.34,0V50a2.12,2.12,0,0,0,.65,1.52l23.8,23.81a2.11,2.11,0,0,0,3,0,2.11,2.11,0,0,0,0-3Z"/><path d="M50,0a50,50,0,1,0,50,50A50,50,0,0,0,50,0Zm0,95.65A45.65,45.65,0,1,1,95.65,50,45.64,45.64,0,0,1,50,95.65Z"/></g></g></svg>