<svg xmlns="http://www.w3.org/2000/svg" viewBox="0 0 77.76 77.76"><title>Wait X Days</title><g id="Layer_2" data-name="Layer 2"><g id="Layer_1-2" data-name="Layer 1"><path d="M38.88,12.68A1.69,1.69,0,0,0,40.57,11v-.85a1.69,1.69,0,1,0-3.38,0V11A1.69,1.69,0,0,0,38.88,12.68Z"/><path d="M38.88,65.08a1.69,1.69,0,0,0-1.69,1.69v.85a1.69,1.69,0,1,0,3.38,0v-.85A1.69,1.69,0,0,0,38.88,65.08Z"/><path d="M11,37.19h-.85a1.69,1.69,0,0,0,0,3.38H11a1.69,1.69,0,0,0,0-3.38Z"/><path d="M67.62,37.19h-.85a1.69,1.69,0,1,0,0,3.38h.85a1.69,1.69,0,0,0,0-3.38Z"/><path d="M19.78,17.41a1.68,1.68,0,1,0-2.37,2.37l.59.59a1.63,1.63,0,0,0,2.37,0,1.63,1.63,0,0,0,0-2.37Z"/><path d="M18,57.39l-.59.59a1.65,1.65,0,0,0,0,2.37,1.63,1.63,0,0,0,2.37,0l.59-.59a1.63,1.63,0,0,0,0-2.37A1.65,1.65,0,0,0,18,57.39Z"/><path d="M58,17.41l-.59.59a1.65,1.65,0,0,0,0,2.37,1.63,1.63,0,0,0,2.37,0l.59-.59a1.63,1.63,0,0,0,0-2.37A1.65,1.65,0,0,0,58,17.41Z"/><path d="M40.57,38.2V22.82a1.69,1.69,0,1,0-3.38,0V38.88a1.65,1.65,0,0,0,.51,1.18L56.21,58.58a1.7,1.7,0,0,0,1.18.5,1.72,1.72,0,0,0,1.19-.5,1.65,1.65,0,0,0,0-2.37Z"/><path d="M38.88,0A38.88,38.88,0,1,0,77.76,38.88,38.88,38.88,0,0,0,38.88,0Zm0,74.38a35.5,35.5,0,1,1,35.5-35.5A35.5,35.5,0,0,1,38.88,74.38Z"/></g></g></svg>