<svg id="Layer_1" data-name="Layer 1" xmlns="http://www.w3.org/2000/svg" width="80" height="80" viewBox="0 0 80 80">
  <g>
    <g>
      <path d="M67.5,14.39v10.7S46.28,29.23,27.4,51c0,0-7.26-11.13-14.9-16.48V14.39a1.89,1.89,0,0,1,1.89-1.89H65.61A1.89,1.89,0,0,1,67.5,14.39Z"/>
      <path d="M67.5,34.1V65.61a1.89,1.89,0,0,1-1.89,1.89H14.39a1.89,1.89,0,0,1-1.89-1.89V40.47s5.77,4.76,14.62,18.74A82.9,82.9,0,0,1,67.5,34.1Z"/>
    </g>
    <path d="M72,4a4,4,0,0,1,4,4V72a4,4,0,0,1-4,4H8a4,4,0,0,1-4-4V8A4,4,0,0,1,8,4H72m0-4H8A8,8,0,0,0,0,8V72a8,8,0,0,0,8,8H72a8,8,0,0,0,8-8V8a8,8,0,0,0-8-8Z"/>
  </g>
</svg>
