<svg id="Layer_1" data-name="Layer 1" xmlns="http://www.w3.org/2000/svg" width="80" height="80" viewBox="0 0 80 80">
  <g>
    <path d="M66.65,39.49q0-4.59,0-9.15A5,5,0,0,0,65,26.49a5,5,0,0,0-3.49-1.32H17.36a5,5,0,0,0-4.56,3.07,5.63,5.63,0,0,0-.4,2.44c0,5.53,0,11.05,0,16.56a5.08,5.08,0,0,0,4.78,4.89c7.06,0,14.12,0,21.18,0,.46.25.94.5,1.4.77a21.78,21.78,0,0,1,3.14-5.72,5.64,5.64,0,0,1-3-.93,6.48,6.48,0,0,1-2.48-4.18,11.43,11.43,0,0,1,3.21-10.25,5.44,5.44,0,0,1,2.82-1.28,5.6,5.6,0,0,1,4.77,1.67,7.47,7.47,0,0,1,1.69,3.94,12.2,12.2,0,0,1-.55,5.36,15.46,15.46,0,0,1,1.8-.95,11.44,11.44,0,0,1,3.08-8.48,5.42,5.42,0,0,1,3.09-1.53A5.53,5.53,0,0,1,62,32.16a7.31,7.31,0,0,1,1.8,4.21,13.58,13.58,0,0,1,0,2.47A20.69,20.69,0,0,1,66.65,39.49ZM37.43,30.8a25.35,25.35,0,0,0-2,7.15,46,46,0,0,0-.79,9.65,1.85,1.85,0,0,1-1.22,2,2.33,2.33,0,0,1-2.13-1,22.85,22.85,0,0,1-4.73-9.27c-1,2-2,3.91-2.95,5.89A14,14,0,0,1,21.1,49c-.44.45-1.22.87-1.79.39a6.75,6.75,0,0,1-1.48-3,124.51,124.51,0,0,1-3-14.95,1.89,1.89,0,0,1,1-2.17,2.15,2.15,0,0,1,2.11.21,2.19,2.19,0,0,1,.59,1.42c.58,3.88,1.27,7.75,2.21,11.56q2.41-4.56,4.81-9.14a2.89,2.89,0,0,1,1-1.17,1.55,1.55,0,0,1,1.94.17,3.35,3.35,0,0,1,.67,1.6,40,40,0,0,0,2.07,7.41,42.94,42.94,0,0,1,2.2-10.65,8.3,8.3,0,0,1,1.05-2,2,2,0,0,1,3,.4A1.84,1.84,0,0,1,37.43,30.8Z"/>
    <path d="M57.66,34.33a4.1,4.1,0,0,0-1.93,2,7.05,7.05,0,0,0-.9,3,21,21,0,0,1,5.28-.7,5.44,5.44,0,0,0-.83-3.7A1.45,1.45,0,0,0,57.66,34.33Z"/>
    <path d="M77.77,58.65c0-.29-.06-.57-.1-.87-.1-.58-.21-1.15-.35-1.71a18.76,18.76,0,0,0-1.18-3.22c-.22-.45-.45-.88-.71-1.31L75,50.89c-.14-.2-.27-.4-.41-.59L74.39,50l-.17-.22a.45.45,0,0,1-.09-.1l-.4-.5-.49-.56-.51-.53a15.36,15.36,0,0,0-1.35-1.21l-.72-.55-.75-.53-.78-.47a13.35,13.35,0,0,0-1.64-.84l-.85-.35h0c-.32-.12-.65-.25-1-.34a14.36,14.36,0,0,0-2-.51c-.36-.07-.71-.13-1.06-.17h0l-.44,0a16.25,16.25,0,0,0-3.6,0l-.41,0a1.93,1.93,0,0,0-.42,0q-.36,0-.69.12l-.57.12a7.23,7.23,0,0,0-.8.21,6.29,6.29,0,0,0-.74.22c-.18.05-.37.11-.55.18a16.72,16.72,0,0,0-1.62.68l-.36.19h0L52,45c-.25.13-.49.28-.73.43a7.8,7.8,0,0,0-.71.46c-.23.15-.47.31-.69.48h0c-.22.16-.43.34-.65.52s-.39.33-.58.51-.45.4-.67.62-.41.42-.6.64-.24.27-.35.4c-.3.35-.59.71-.85,1.08-.11.14-.21.29-.31.44a.32.32,0,0,0-.08.12c-.14.21-.28.42-.4.63s-.3.48-.43.73-.26.5-.39.76-.22.47-.31.7a.77.77,0,0,0-.07.16c-.09.21-.18.44-.26.67a.58.58,0,0,0-.06.17,5.44,5.44,0,0,0-.19.52h0a1.16,1.16,0,0,1-.06.15c-.09.3-.18.59-.25.89-.14.54-.25,1.1-.34,1.66a18.14,18.14,0,0,0-.2,2.67c0,.21,0,.42,0,.63h0c0,.21,0,.41,0,.62s0,.42,0,.63,0,.41.08.62.06.39.1.59a6,6,0,0,0,.11.61h0c0,.2.09.4.14.6a18.21,18.21,0,0,0,1.52,3.92c.19.35.39.7.6,1a17.39,17.39,0,0,0,1.91,2.52c.19.21.38.41.58.61a17.66,17.66,0,0,0,8.17,4.61c.47.12.94.21,1.43.29a17.13,17.13,0,0,0,2.79.23,18.28,18.28,0,0,0,2.68-.2c.58-.09,1.14-.21,1.7-.35a17.78,17.78,0,0,0,3.23-1.18,15.26,15.26,0,0,0,1.48-.81c.49-.29,1-.61,1.41-.94l.13-.11h0a18.48,18.48,0,0,0,1.76-1.54l.51-.53.49-.56.4-.5.09-.1.17-.22.24-.34c.14-.19.27-.39.41-.59l.39-.65c.26-.43.49-.86.71-1.31a18.76,18.76,0,0,0,1.18-3.22c.14-.56.25-1.13.35-1.71,0-.29.07-.58.1-.87s0-.53.07-.78,0-.68,0-1,0-.67,0-1S77.8,58.92,77.77,58.65Zm-11.41,15a3.86,3.86,0,0,1-1-7.59c-.06-3.6-2.89-4.66-5.45-5.61a16.32,16.32,0,0,1-1.52-.63,16.41,16.41,0,0,1-2.44-1.27v7.77a3.87,3.87,0,1,1-3.22,0V54.59a3.86,3.86,0,1,1,5.47-3.52A3.53,3.53,0,0,1,58,52.15a3.82,3.82,0,0,1-2.09,2.44,16.18,16.18,0,0,0,3.76,2.3c.37.18.81.34,1.3.52,2.69,1,7.85,2.92,7.58,9.2a3.87,3.87,0,0,1-2.22,7Z"/>
    <path d="M66.36,67.86a1.92,1.92,0,1,0,1.91,1.91A1.92,1.92,0,0,0,66.36,67.86Z"/>
    <path d="M54.32,49a1.91,1.91,0,0,0-1.91,1.91,1.93,1.93,0,0,0,.48,1.28,1.92,1.92,0,0,0,2.86,0,1.89,1.89,0,0,0,.49-1.28A1.92,1.92,0,0,0,54.32,49Z"/>
    <path d="M54.32,67.91a1.92,1.92,0,0,0,0,3.83,1.92,1.92,0,1,0,0-3.83Z"/>
    <path d="M43.77,34.33A3.71,3.71,0,0,0,42,36.08a6.62,6.62,0,0,0-.56,6.15,1.85,1.85,0,0,0,1.23,1.16,2.13,2.13,0,0,0,1.68-.67,5.8,5.8,0,0,0,1.78-3.48,5.79,5.79,0,0,0-.73-4.36A1.42,1.42,0,0,0,43.77,34.33Z"/>
    <path d="M70.09,2H9.91A7.9,7.9,0,0,0,2,9.9V70.08A7.92,7.92,0,0,0,9.91,78H47.28a21.61,21.61,0,0,1-3.79-3.61H9.91a4.31,4.31,0,0,1-4.3-4.31V9.9a4.3,4.3,0,0,1,4.3-4.29H30.38V19a1.38,1.38,0,0,0,.84,1.27,1.61,1.61,0,0,0,.53.1,1.28,1.28,0,0,0,1-.41l5.91-5.9V19A1.37,1.37,0,0,0,40,20.4h8.26A1.37,1.37,0,0,0,49.62,19V5.61H70.09a4.3,4.3,0,0,1,4.3,4.29V43.69A21.67,21.67,0,0,1,78,47.55V9.9A7.9,7.9,0,0,0,70.09,2ZM46.89,17.62H41.42V10.77a1.41,1.41,0,0,0-.89-1.27,1.35,1.35,0,0,0-1.48.3l-5.9,5.9V5.61H46.89Z"/>
  </g>
</svg>
