<svg id="Layer_1" data-name="Layer 1" xmlns="http://www.w3.org/2000/svg" width="80" height="80" viewBox="0 0 80 80">
  <defs>
    <style>
      .cls-1 {
        fill: none;
      }
    </style>
  </defs>
  <g>
    <g>
      <path class="cls-1" d="M23.66,65.07A31,31,0,0,1,8.88,24.57Z"/>
      <path d="M40.44,72c-1.07.1-2.16.16-3.26.16a34.88,34.88,0,0,1-19.54-6A35.33,35.33,0,0,1,8.2,56.73a34.94,34.94,0,0,1,0-39.09A35.33,35.33,0,0,1,17.64,8.2a34.94,34.94,0,0,1,39.09,0,35.33,35.33,0,0,1,9.44,9.44,34.88,34.88,0,0,1,6,19.55c0,.74,0,1.49-.08,2.23a13.54,13.54,0,0,1,1.93,3,36.31,36.31,0,0,0,.38-5.24A37.19,37.19,0,1,0,37.18,74.37c1.09,0,2.16-.06,3.22-.15V73C40.4,72.66,40.42,72.32,40.44,72Z"/>
      <path d="M6.2,37.18A31,31,0,0,0,23.66,65.07L8.88,24.57A30.88,30.88,0,0,0,6.2,37.18Z"/>
      <path d="M58.08,35.11a16.59,16.59,0,0,0-2.53-8c-1.57-2.56-3-4.72-3-7.27a5.36,5.36,0,0,1,5.2-5.5l.4,0a31,31,0,0,0-46.82,5.83c.73,0,1.42,0,2,0,3.24,0,8.26-.39,8.26-.39a1.28,1.28,0,0,1,.2,2.55s-1.68.2-3.55.3L29.48,56.22l6.79-20.34L31.44,22.66c-1.67-.1-3.25-.3-3.25-.3a1.28,1.28,0,0,1,.19-2.55s5.12.39,8.17.39c3.24,0,8.25-.39,8.25-.39a1.28,1.28,0,0,1,.2,2.55s-1.68.2-3.54.3L48.7,44.19a13.51,13.51,0,0,1,9.38-9.08Z"/>
      <path d="M45.72,61.78l-8-21.89-9.3,27a30.87,30.87,0,0,0,8.76,1.26,29.89,29.89,0,0,0,4.14-.28A14.61,14.61,0,0,1,45.72,61.78Z"/>
      <path d="M64.38,22.32a24.25,24.25,0,0,1,.21,3.18,27.91,27.91,0,0,1-1.65,9.18,13.46,13.46,0,0,1,5.2,1.56A30.87,30.87,0,0,0,64.38,22.32Z"/>
    </g>
    <g>
      <path d="M72.3,48.19a1.94,1.94,0,0,1,0,.34v0a10.62,10.62,0,0,1-6.15,9.26l0,0a10.38,10.38,0,0,1-4.42.95,11.94,11.94,0,0,1-1.7-.12l0,0a10.6,10.6,0,0,1-8.77-9,9.27,9.27,0,0,1-.1-1.51,10.6,10.6,0,0,1,21.2,0Z"/>
      <path d="M80,73v4.34A2.65,2.65,0,0,1,77.35,80H46.05a2.63,2.63,0,0,1-2.63-2.47.55.55,0,0,1,0-.18V73A11.56,11.56,0,0,1,55,61.43H68.42A11.62,11.62,0,0,1,80,73Z"/>
    </g>
  </g>
</svg>
