<svg id="Layer_1" data-name="Layer 1" xmlns="http://www.w3.org/2000/svg" width="80" height="80" viewBox="0 0 80 80">
  <g>
    <g id="W_Mark" data-name="W Mark">
      <path d="M33.75,0a33.75,33.75,0,0,0,0,67.5q1,0,2-.06a19.71,19.71,0,0,1-.51-2c-.49,0-1,0-1.47,0A31.43,31.43,0,0,1,21.4,63,31.73,31.73,0,0,1,4.52,46.1a31.75,31.75,0,0,1,0-24.7A31.73,31.73,0,0,1,21.4,4.52a31.75,31.75,0,0,1,24.7,0A31.73,31.73,0,0,1,63,21.4a31.44,31.44,0,0,1,2.5,12.35c0,.49,0,1,0,1.47.68.14,1.35.31,2,.51q.06-1,.06-2A33.75,33.75,0,0,0,33.75,0Z"/>
      <path d="M8.06,22.3A28.12,28.12,0,0,0,21.48,59.06ZM47.66,18a4.86,4.86,0,0,1,4.72-5l.36,0A28.11,28.11,0,0,0,10.25,18.3l1.81,0c2.94,0,7.5-.35,7.5-.35a1.16,1.16,0,0,1,.18,2.31s-1.53.18-3.22.27L26.76,51l6.16-18.46-4.39-12c-1.51-.09-3-.27-3-.27A1.16,1.16,0,0,1,25.76,18s4.65.35,7.41.35c2.94,0,7.5-.35,7.5-.35a1.16,1.16,0,0,1,.18,2.31s-1.53.18-3.22.27l6.6,19.62a24.92,24.92,0,0,1,8.08-4.33,16.84,16.84,0,0,0,.43-3.52,14.84,14.84,0,0,0-2.32-7.76C49,22.26,47.66,20.29,47.66,18ZM38.21,47.07l-4-10.86L25.8,60.73a28.19,28.19,0,0,0,8,1.14l1,0c-.05-.59-.07-1.19-.07-1.79A25.24,25.24,0,0,1,38.21,47.07ZM58.43,20.26a21.57,21.57,0,0,1,.19,2.89,26.44,26.44,0,0,1-2.14,10.07L55.87,35a25.11,25.11,0,0,1,4.19-.35c.6,0,1.2,0,1.79.07,0-.32,0-.64,0-1A27.9,27.9,0,0,0,58.43,20.26Z"/>
    </g>
    <path d="M71.86,44A19.95,19.95,0,1,0,80,60.06,20,20,0,0,0,71.86,44ZM46.52,55.1a1.69,1.69,0,0,1,0-2.42l6.16-6.17a1.74,1.74,0,0,1,1.21-.5,1.71,1.71,0,0,1,1.21,2.92l-3.24,3.25H70.4a1.71,1.71,0,0,1,0,3.42H51.86l3.24,3.25a1.71,1.71,0,0,1-1.21,2.92,1.74,1.74,0,0,1-1.21-.5ZM73.61,67.44l-6.17,6.17a1.7,1.7,0,0,1-1.21.5,1.74,1.74,0,0,1-1.21-.5,1.71,1.71,0,0,1,0-2.42l3.25-3.25H50.72a1.71,1.71,0,0,1,0-3.42H68.27L65,61.27a1.71,1.71,0,0,1,0-2.42,1.72,1.72,0,0,1,1.21-.5,1.7,1.7,0,0,1,1.21.5L73.61,65A1.71,1.71,0,0,1,73.61,67.44Z"/>
  </g>
</svg>
